<svg xmlns="http://www.w3.org/2000/svg" xmlns:xlink="http://www.w3.org/1999/xlink"
     viewBox="0 0 46 80" width="46" height="80"
     shape-rendering="crispEdges">
<g id="frame0" opacity="1">
  <rect x="18" y="0" width="8" height="1" fill="#000000"/>
  <rect x="18" y="1" width="8" height="1" fill="#000000"/>
  <rect x="16" y="2" width="2" height="1" fill="#000000"/>
  <rect x="18" y="2" width="8" height="1" fill="#f87858"/>
  <rect x="26" y="2" width="2" height="1" fill="#000000"/>
  <rect x="16" y="3" width="2" height="1" fill="#000000"/>
  <rect x="18" y="3" width="8" height="1" fill="#f87858"/>
  <rect x="26" y="3" width="2" height="1" fill="#000000"/>
  <rect x="16" y="4" width="2" height="1" fill="#000000"/>
  <rect x="18" y="4" width="2" height="1" fill="#f87858"/>
  <rect x="20" y="4" width="2" height="1" fill="#000000"/>
  <rect x="22" y="4" width="6" height="1" fill="#f87858"/>
  <rect x="28" y="4" width="2" height="1" fill="#000000"/>
  <rect x="16" y="5" width="2" height="1" fill="#000000"/>
  <rect x="18" y="5" width="2" height="1" fill="#f87858"/>
  <rect x="20" y="5" width="2" height="1" fill="#000000"/>
  <rect x="22" y="5" width="6" height="1" fill="#f87858"/>
  <rect x="28" y="5" width="2" height="1" fill="#000000"/>
  <rect x="16" y="6" width="2" height="1" fill="#000000"/>
  <rect x="18" y="6" width="4" height="1" fill="#f8f8f8"/>
  <rect x="22" y="6" width="4" height="1" fill="#000000"/>
  <rect x="26" y="6" width="2" height="1" fill="#f87858"/>
  <rect x="28" y="6" width="2" height="1" fill="#000000"/>
  <rect x="16" y="7" width="2" height="1" fill="#000000"/>
  <rect x="18" y="7" width="4" height="1" fill="#f8f8f8"/>
  <rect x="22" y="7" width="4" height="1" fill="#000000"/>
  <rect x="26" y="7" width="2" height="1" fill="#f87858"/>
  <rect x="28" y="7" width="2" height="1" fill="#000000"/>
  <rect x="18" y="8" width="2" height="1" fill="#000000"/>
  <rect x="20" y="8" width="2" height="1" fill="#f87858"/>
  <rect x="22" y="8" width="4" height="1" fill="#f8f8f8"/>
  <rect x="26" y="8" width="2" height="1" fill="#f87858"/>
  <rect x="28" y="8" width="2" height="1" fill="#000000"/>
  <rect x="18" y="9" width="2" height="1" fill="#000000"/>
  <rect x="20" y="9" width="2" height="1" fill="#f87858"/>
  <rect x="22" y="9" width="4" height="1" fill="#f8f8f8"/>
  <rect x="26" y="9" width="2" height="1" fill="#f87858"/>
  <rect x="28" y="9" width="2" height="1" fill="#000000"/>
  <rect x="16" y="10" width="2" height="1" fill="#000000"/>
  <rect x="18" y="10" width="6" height="1" fill="#f8f8f8"/>
  <rect x="24" y="10" width="4" height="1" fill="#f87858"/>
  <rect x="28" y="10" width="4" height="1" fill="#000000"/>
  <rect x="16" y="11" width="2" height="1" fill="#000000"/>
  <rect x="18" y="11" width="6" height="1" fill="#f8f8f8"/>
  <rect x="24" y="11" width="4" height="1" fill="#f87858"/>
  <rect x="28" y="11" width="4" height="1" fill="#000000"/>
  <rect x="18" y="12" width="2" height="1" fill="#000000"/>
  <rect x="20" y="12" width="2" height="1" fill="#f8f8f8"/>
  <rect x="22" y="12" width="2" height="1" fill="#f87858"/>
  <rect x="24" y="12" width="6" height="1" fill="#000000"/>
  <rect x="30" y="12" width="2" height="1" fill="#f87858"/>
  <rect x="32" y="12" width="6" height="1" fill="#000000"/>
  <rect x="18" y="13" width="2" height="1" fill="#000000"/>
  <rect x="20" y="13" width="2" height="1" fill="#f8f8f8"/>
  <rect x="22" y="13" width="2" height="1" fill="#f87858"/>
  <rect x="24" y="13" width="6" height="1" fill="#000000"/>
  <rect x="30" y="13" width="2" height="1" fill="#f87858"/>
  <rect x="32" y="13" width="6" height="1" fill="#000000"/>
  <rect x="4" y="14" width="6" height="1" fill="#000000"/>
  <rect x="16" y="14" width="2" height="1" fill="#000000"/>
  <rect x="18" y="14" width="4" height="1" fill="#f87858"/>
  <rect x="22" y="14" width="6" height="1" fill="#000000"/>
  <rect x="28" y="14" width="2" height="1" fill="#f87858"/>
  <rect x="30" y="14" width="2" height="1" fill="#000000"/>
  <rect x="32" y="14" width="6" height="1" fill="#f87858"/>
  <rect x="38" y="14" width="2" height="1" fill="#000000"/>
  <rect x="4" y="15" width="6" height="1" fill="#000000"/>
  <rect x="16" y="15" width="2" height="1" fill="#000000"/>
  <rect x="18" y="15" width="4" height="1" fill="#f87858"/>
  <rect x="22" y="15" width="6" height="1" fill="#000000"/>
  <rect x="28" y="15" width="2" height="1" fill="#f87858"/>
  <rect x="30" y="15" width="2" height="1" fill="#000000"/>
  <rect x="32" y="15" width="6" height="1" fill="#f87858"/>
  <rect x="38" y="15" width="2" height="1" fill="#000000"/>
  <rect x="2" y="16" width="2" height="1" fill="#000000"/>
  <rect x="4" y="16" width="2" height="1" fill="#f8f8f8"/>
  <rect x="6" y="16" width="4" height="1" fill="#f87858"/>
  <rect x="10" y="16" width="2" height="1" fill="#000000"/>
  <rect x="16" y="16" width="8" height="1" fill="#000000"/>
  <rect x="24" y="16" width="2" height="1" fill="#f8f8f8"/>
  <rect x="26" y="16" width="2" height="1" fill="#f87858"/>
  <rect x="28" y="16" width="2" height="1" fill="#000000"/>
  <rect x="30" y="16" width="2" height="1" fill="#f87858"/>
  <rect x="32" y="16" width="4" height="1" fill="#f8f8f8"/>
  <rect x="36" y="16" width="4" height="1" fill="#f87858"/>
  <rect x="40" y="16" width="2" height="1" fill="#000000"/>
  <rect x="2" y="17" width="2" height="1" fill="#000000"/>
  <rect x="4" y="17" width="2" height="1" fill="#f8f8f8"/>
  <rect x="6" y="17" width="4" height="1" fill="#f87858"/>
  <rect x="10" y="17" width="2" height="1" fill="#000000"/>
  <rect x="16" y="17" width="8" height="1" fill="#000000"/>
  <rect x="24" y="17" width="2" height="1" fill="#f8f8f8"/>
  <rect x="26" y="17" width="2" height="1" fill="#f87858"/>
  <rect x="28" y="17" width="2" height="1" fill="#000000"/>
  <rect x="30" y="17" width="2" height="1" fill="#f87858"/>
  <rect x="32" y="17" width="4" height="1" fill="#f8f8f8"/>
  <rect x="36" y="17" width="4" height="1" fill="#f87858"/>
  <rect x="40" y="17" width="2" height="1" fill="#000000"/>
  <rect x="2" y="18" width="2" height="1" fill="#000000"/>
  <rect x="4" y="18" width="4" height="1" fill="#f8f8f8"/>
  <rect x="8" y="18" width="2" height="1" fill="#f87858"/>
  <rect x="10" y="18" width="2" height="1" fill="#000000"/>
  <rect x="14" y="18" width="2" height="1" fill="#000000"/>
  <rect x="16" y="18" width="2" height="1" fill="#f87858"/>
  <rect x="18" y="18" width="2" height="1" fill="#000000"/>
  <rect x="20" y="18" width="4" height="1" fill="#f8f8f8"/>
  <rect x="24" y="18" width="2" height="1" fill="#f87858"/>
  <rect x="26" y="18" width="4" height="1" fill="#000000"/>
  <rect x="30" y="18" width="2" height="1" fill="#f87858"/>
  <rect x="32" y="18" width="6" height="1" fill="#f8f8f8"/>
  <rect x="38" y="18" width="2" height="1" fill="#f87858"/>
  <rect x="40" y="18" width="2" height="1" fill="#000000"/>
  <rect x="2" y="19" width="2" height="1" fill="#000000"/>
  <rect x="4" y="19" width="4" height="1" fill="#f8f8f8"/>
  <rect x="8" y="19" width="2" height="1" fill="#f87858"/>
  <rect x="10" y="19" width="2" height="1" fill="#000000"/>
  <rect x="14" y="19" width="2" height="1" fill="#000000"/>
  <rect x="16" y="19" width="2" height="1" fill="#f87858"/>
  <rect x="18" y="19" width="2" height="1" fill="#000000"/>
  <rect x="20" y="19" width="4" height="1" fill="#f8f8f8"/>
  <rect x="24" y="19" width="2" height="1" fill="#f87858"/>
  <rect x="26" y="19" width="4" height="1" fill="#000000"/>
  <rect x="30" y="19" width="2" height="1" fill="#f87858"/>
  <rect x="32" y="19" width="6" height="1" fill="#f8f8f8"/>
  <rect x="38" y="19" width="2" height="1" fill="#f87858"/>
  <rect x="40" y="19" width="2" height="1" fill="#000000"/>
  <rect x="2" y="20" width="2" height="1" fill="#000000"/>
  <rect x="4" y="20" width="4" height="1" fill="#f8f8f8"/>
  <rect x="8" y="20" width="2" height="1" fill="#f87858"/>
  <rect x="10" y="20" width="2" height="1" fill="#000000"/>
  <rect x="14" y="20" width="6" height="1" fill="#000000"/>
  <rect x="20" y="20" width="2" height="1" fill="#f8f8f8"/>
  <rect x="22" y="20" width="8" height="1" fill="#000000"/>
  <rect x="30" y="20" width="2" height="1" fill="#f87858"/>
  <rect x="32" y="20" width="6" height="1" fill="#f8f8f8"/>
  <rect x="38" y="20" width="2" height="1" fill="#f87858"/>
  <rect x="40" y="20" width="2" height="1" fill="#000000"/>
  <rect x="2" y="21" width="2" height="1" fill="#000000"/>
  <rect x="4" y="21" width="4" height="1" fill="#f8f8f8"/>
  <rect x="8" y="21" width="2" height="1" fill="#f87858"/>
  <rect x="10" y="21" width="2" height="1" fill="#000000"/>
  <rect x="14" y="21" width="6" height="1" fill="#000000"/>
  <rect x="20" y="21" width="2" height="1" fill="#f8f8f8"/>
  <rect x="22" y="21" width="8" height="1" fill="#000000"/>
  <rect x="30" y="21" width="2" height="1" fill="#f87858"/>
  <rect x="32" y="21" width="6" height="1" fill="#f8f8f8"/>
  <rect x="38" y="21" width="2" height="1" fill="#f87858"/>
  <rect x="40" y="21" width="2" height="1" fill="#000000"/>
  <rect x="2" y="22" width="2" height="1" fill="#000000"/>
  <rect x="4" y="22" width="4" height="1" fill="#f8f8f8"/>
  <rect x="8" y="22" width="2" height="1" fill="#000000"/>
  <rect x="12" y="22" width="2" height="1" fill="#000000"/>
  <rect x="14" y="22" width="2" height="1" fill="#f87858"/>
  <rect x="16" y="22" width="16" height="1" fill="#000000"/>
  <rect x="32" y="22" width="2" height="1" fill="#f87858"/>
  <rect x="34" y="22" width="2" height="1" fill="#f8f8f8"/>
  <rect x="36" y="22" width="4" height="1" fill="#f87858"/>
  <rect x="40" y="22" width="2" height="1" fill="#000000"/>
  <rect x="2" y="23" width="2" height="1" fill="#000000"/>
  <rect x="4" y="23" width="4" height="1" fill="#f8f8f8"/>
  <rect x="8" y="23" width="2" height="1" fill="#000000"/>
  <rect x="12" y="23" width="2" height="1" fill="#000000"/>
  <rect x="14" y="23" width="2" height="1" fill="#f87858"/>
  <rect x="16" y="23" width="16" height="1" fill="#000000"/>
  <rect x="32" y="23" width="2" height="1" fill="#f87858"/>
  <rect x="34" y="23" width="2" height="1" fill="#f8f8f8"/>
  <rect x="36" y="23" width="4" height="1" fill="#f87858"/>
  <rect x="40" y="23" width="2" height="1" fill="#000000"/>
  <rect x="2" y="24" width="2" height="1" fill="#000000"/>
  <rect x="4" y="24" width="2" height="1" fill="#f8f8f8"/>
  <rect x="6" y="24" width="2" height="1" fill="#f87858"/>
  <rect x="8" y="24" width="6" height="1" fill="#000000"/>
  <rect x="14" y="24" width="2" height="1" fill="#f87858"/>
  <rect x="16" y="24" width="4" height="1" fill="#f8f8f8"/>
  <rect x="20" y="24" width="12" height="1" fill="#000000"/>
  <rect x="32" y="24" width="2" height="1" fill="#f87858"/>
  <rect x="34" y="24" width="6" height="1" fill="#f8f8f8"/>
  <rect x="40" y="24" width="2" height="1" fill="#000000"/>
  <rect x="2" y="25" width="2" height="1" fill="#000000"/>
  <rect x="4" y="25" width="2" height="1" fill="#f8f8f8"/>
  <rect x="6" y="25" width="2" height="1" fill="#f87858"/>
  <rect x="8" y="25" width="6" height="1" fill="#000000"/>
  <rect x="14" y="25" width="2" height="1" fill="#f87858"/>
  <rect x="16" y="25" width="4" height="1" fill="#f8f8f8"/>
  <rect x="20" y="25" width="12" height="1" fill="#000000"/>
  <rect x="32" y="25" width="2" height="1" fill="#f87858"/>
  <rect x="34" y="25" width="6" height="1" fill="#f8f8f8"/>
  <rect x="40" y="25" width="2" height="1" fill="#000000"/>
  <rect x="2" y="26" width="2" height="1" fill="#000000"/>
  <rect x="4" y="26" width="2" height="1" fill="#f8f8f8"/>
  <rect x="6" y="26" width="4" height="1" fill="#f87858"/>
  <rect x="10" y="26" width="4" height="1" fill="#000000"/>
  <rect x="14" y="26" width="2" height="1" fill="#f87858"/>
  <rect x="16" y="26" width="6" height="1" fill="#f8f8f8"/>
  <rect x="22" y="26" width="2" height="1" fill="#000000"/>
  <rect x="24" y="26" width="8" height="1" fill="#f87858"/>
  <rect x="32" y="26" width="2" height="1" fill="#000000"/>
  <rect x="34" y="26" width="4" height="1" fill="#f8f8f8"/>
  <rect x="38" y="26" width="2" height="1" fill="#f87858"/>
  <rect x="40" y="26" width="2" height="1" fill="#000000"/>
  <rect x="2" y="27" width="2" height="1" fill="#000000"/>
  <rect x="4" y="27" width="2" height="1" fill="#f8f8f8"/>
  <rect x="6" y="27" width="4" height="1" fill="#f87858"/>
  <rect x="10" y="27" width="4" height="1" fill="#000000"/>
  <rect x="14" y="27" width="2" height="1" fill="#f87858"/>
  <rect x="16" y="27" width="6" height="1" fill="#f8f8f8"/>
  <rect x="22" y="27" width="2" height="1" fill="#000000"/>
  <rect x="24" y="27" width="8" height="1" fill="#f87858"/>
  <rect x="32" y="27" width="2" height="1" fill="#000000"/>
  <rect x="34" y="27" width="4" height="1" fill="#f8f8f8"/>
  <rect x="38" y="27" width="2" height="1" fill="#f87858"/>
  <rect x="40" y="27" width="2" height="1" fill="#000000"/>
  <rect x="2" y="28" width="2" height="1" fill="#000000"/>
  <rect x="4" y="28" width="4" height="1" fill="#f8f8f8"/>
  <rect x="8" y="28" width="4" height="1" fill="#f87858"/>
  <rect x="12" y="28" width="2" height="1" fill="#000000"/>
  <rect x="14" y="28" width="24" height="1" fill="#f8f8f8"/>
  <rect x="38" y="28" width="2" height="1" fill="#f87858"/>
  <rect x="40" y="28" width="2" height="1" fill="#000000"/>
  <rect x="2" y="29" width="2" height="1" fill="#000000"/>
  <rect x="4" y="29" width="4" height="1" fill="#f8f8f8"/>
  <rect x="8" y="29" width="4" height="1" fill="#f87858"/>
  <rect x="12" y="29" width="2" height="1" fill="#000000"/>
  <rect x="14" y="29" width="24" height="1" fill="#f8f8f8"/>
  <rect x="38" y="29" width="2" height="1" fill="#f87858"/>
  <rect x="40" y="29" width="2" height="1" fill="#000000"/>
  <rect x="2" y="30" width="2" height="1" fill="#000000"/>
  <rect x="4" y="30" width="4" height="1" fill="#f8f8f8"/>
  <rect x="8" y="30" width="4" height="1" fill="#f87858"/>
  <rect x="12" y="30" width="2" height="1" fill="#000000"/>
  <rect x="14" y="30" width="2" height="1" fill="#f87858"/>
  <rect x="16" y="30" width="20" height="1" fill="#f8f8f8"/>
  <rect x="36" y="30" width="4" height="1" fill="#f87858"/>
  <rect x="40" y="30" width="2" height="1" fill="#000000"/>
  <rect x="2" y="31" width="2" height="1" fill="#000000"/>
  <rect x="4" y="31" width="4" height="1" fill="#f8f8f8"/>
  <rect x="8" y="31" width="4" height="1" fill="#f87858"/>
  <rect x="12" y="31" width="2" height="1" fill="#000000"/>
  <rect x="14" y="31" width="2" height="1" fill="#f87858"/>
  <rect x="16" y="31" width="20" height="1" fill="#f8f8f8"/>
  <rect x="36" y="31" width="4" height="1" fill="#f87858"/>
  <rect x="40" y="31" width="2" height="1" fill="#000000"/>
  <rect x="2" y="32" width="2" height="1" fill="#000000"/>
  <rect x="4" y="32" width="6" height="1" fill="#f8f8f8"/>
  <rect x="10" y="32" width="2" height="1" fill="#f87858"/>
  <rect x="12" y="32" width="10" height="1" fill="#000000"/>
  <rect x="22" y="32" width="4" height="1" fill="#f87858"/>
  <rect x="26" y="32" width="6" height="1" fill="#f8f8f8"/>
  <rect x="32" y="32" width="6" height="1" fill="#f87858"/>
  <rect x="38" y="32" width="2" height="1" fill="#000000"/>
  <rect x="2" y="33" width="2" height="1" fill="#000000"/>
  <rect x="4" y="33" width="6" height="1" fill="#f8f8f8"/>
  <rect x="10" y="33" width="2" height="1" fill="#f87858"/>
  <rect x="12" y="33" width="10" height="1" fill="#000000"/>
  <rect x="22" y="33" width="4" height="1" fill="#f87858"/>
  <rect x="26" y="33" width="6" height="1" fill="#f8f8f8"/>
  <rect x="32" y="33" width="6" height="1" fill="#f87858"/>
  <rect x="38" y="33" width="2" height="1" fill="#000000"/>
  <rect x="4" y="34" width="2" height="1" fill="#000000"/>
  <rect x="6" y="34" width="2" height="1" fill="#f8f8f8"/>
  <rect x="8" y="34" width="2" height="1" fill="#f87858"/>
  <rect x="10" y="34" width="2" height="1" fill="#000000"/>
  <rect x="18" y="34" width="22" height="1" fill="#000000"/>
  <rect x="4" y="35" width="2" height="1" fill="#000000"/>
  <rect x="6" y="35" width="2" height="1" fill="#f8f8f8"/>
  <rect x="8" y="35" width="2" height="1" fill="#f87858"/>
  <rect x="10" y="35" width="2" height="1" fill="#000000"/>
  <rect x="18" y="35" width="22" height="1" fill="#000000"/>
  <rect x="6" y="36" width="4" height="1" fill="#000000"/>
  <rect x="18" y="36" width="2" height="1" fill="#000000"/>
  <rect x="20" y="36" width="18" height="1" fill="#f8f8f8"/>
  <rect x="38" y="36" width="2" height="1" fill="#000000"/>
  <rect x="6" y="37" width="4" height="1" fill="#000000"/>
  <rect x="18" y="37" width="2" height="1" fill="#000000"/>
  <rect x="20" y="37" width="18" height="1" fill="#f8f8f8"/>
  <rect x="38" y="37" width="2" height="1" fill="#000000"/>
  <rect x="18" y="38" width="2" height="1" fill="#000000"/>
  <rect x="20" y="38" width="20" height="1" fill="#f8f8f8"/>
  <rect x="40" y="38" width="2" height="1" fill="#000000"/>
  <rect x="18" y="39" width="2" height="1" fill="#000000"/>
  <rect x="20" y="39" width="20" height="1" fill="#f8f8f8"/>
  <rect x="40" y="39" width="2" height="1" fill="#000000"/>
  <rect x="14" y="40" width="4" height="1" fill="#000000"/>
  <rect x="18" y="40" width="2" height="1" fill="#f8f8f8"/>
  <rect x="20" y="40" width="2" height="1" fill="#000000"/>
  <rect x="22" y="40" width="10" height="1" fill="#f8f8f8"/>
  <rect x="32" y="40" width="2" height="1" fill="#000000"/>
  <rect x="34" y="40" width="6" height="1" fill="#f8f8f8"/>
  <rect x="40" y="40" width="2" height="1" fill="#000000"/>
  <rect x="14" y="41" width="4" height="1" fill="#000000"/>
  <rect x="18" y="41" width="2" height="1" fill="#f8f8f8"/>
  <rect x="20" y="41" width="2" height="1" fill="#000000"/>
  <rect x="22" y="41" width="10" height="1" fill="#f8f8f8"/>
  <rect x="32" y="41" width="2" height="1" fill="#000000"/>
  <rect x="34" y="41" width="6" height="1" fill="#f8f8f8"/>
  <rect x="40" y="41" width="2" height="1" fill="#000000"/>
  <rect x="12" y="42" width="2" height="1" fill="#000000"/>
  <rect x="14" y="42" width="6" height="1" fill="#f8f8f8"/>
  <rect x="20" y="42" width="2" height="1" fill="#000000"/>
  <rect x="22" y="42" width="6" height="1" fill="#f8f8f8"/>
  <rect x="28" y="42" width="4" height="1" fill="#000000"/>
  <rect x="32" y="42" width="8" height="1" fill="#f8f8f8"/>
  <rect x="40" y="42" width="2" height="1" fill="#000000"/>
  <rect x="12" y="43" width="2" height="1" fill="#000000"/>
  <rect x="14" y="43" width="6" height="1" fill="#f8f8f8"/>
  <rect x="20" y="43" width="2" height="1" fill="#000000"/>
  <rect x="22" y="43" width="6" height="1" fill="#f8f8f8"/>
  <rect x="28" y="43" width="4" height="1" fill="#000000"/>
  <rect x="32" y="43" width="8" height="1" fill="#f8f8f8"/>
  <rect x="40" y="43" width="2" height="1" fill="#000000"/>
  <rect x="10" y="44" width="2" height="1" fill="#000000"/>
  <rect x="12" y="44" width="10" height="1" fill="#f8f8f8"/>
  <rect x="22" y="44" width="2" height="1" fill="#000000"/>
  <rect x="24" y="44" width="2" height="1" fill="#f8f8f8"/>
  <rect x="26" y="44" width="2" height="1" fill="#000000"/>
  <rect x="28" y="44" width="2" height="1" fill="#f8f8f8"/>
  <rect x="30" y="44" width="4" height="1" fill="#000000"/>
  <rect x="34" y="44" width="6" height="1" fill="#f8f8f8"/>
  <rect x="40" y="44" width="2" height="1" fill="#000000"/>
  <rect x="10" y="45" width="2" height="1" fill="#000000"/>
  <rect x="12" y="45" width="10" height="1" fill="#f8f8f8"/>
  <rect x="22" y="45" width="2" height="1" fill="#000000"/>
  <rect x="24" y="45" width="2" height="1" fill="#f8f8f8"/>
  <rect x="26" y="45" width="2" height="1" fill="#000000"/>
  <rect x="28" y="45" width="2" height="1" fill="#f8f8f8"/>
  <rect x="30" y="45" width="4" height="1" fill="#000000"/>
  <rect x="34" y="45" width="6" height="1" fill="#f8f8f8"/>
  <rect x="40" y="45" width="2" height="1" fill="#000000"/>
  <rect x="8" y="46" width="2" height="1" fill="#000000"/>
  <rect x="10" y="46" width="14" height="1" fill="#f8f8f8"/>
  <rect x="24" y="46" width="6" height="1" fill="#000000"/>
  <rect x="30" y="46" width="6" height="1" fill="#f8f8f8"/>
  <rect x="36" y="46" width="4" height="1" fill="#000000"/>
  <rect x="8" y="47" width="2" height="1" fill="#000000"/>
  <rect x="10" y="47" width="14" height="1" fill="#f8f8f8"/>
  <rect x="24" y="47" width="6" height="1" fill="#000000"/>
  <rect x="30" y="47" width="6" height="1" fill="#f8f8f8"/>
  <rect x="36" y="47" width="4" height="1" fill="#000000"/>
  <rect x="6" y="48" width="2" height="1" fill="#000000"/>
  <rect x="8" y="48" width="16" height="1" fill="#f8f8f8"/>
  <rect x="24" y="48" width="2" height="1" fill="#000000"/>
  <rect x="26" y="48" width="6" height="1" fill="#f8f8f8"/>
  <rect x="32" y="48" width="4" height="1" fill="#000000"/>
  <rect x="36" y="48" width="2" height="1" fill="#f8f8f8"/>
  <rect x="38" y="48" width="2" height="1" fill="#000000"/>
  <rect x="6" y="49" width="2" height="1" fill="#000000"/>
  <rect x="8" y="49" width="16" height="1" fill="#f8f8f8"/>
  <rect x="24" y="49" width="2" height="1" fill="#000000"/>
  <rect x="26" y="49" width="6" height="1" fill="#f8f8f8"/>
  <rect x="32" y="49" width="4" height="1" fill="#000000"/>
  <rect x="36" y="49" width="2" height="1" fill="#f8f8f8"/>
  <rect x="38" y="49" width="2" height="1" fill="#000000"/>
  <rect x="6" y="50" width="2" height="1" fill="#000000"/>
  <rect x="8" y="50" width="14" height="1" fill="#f8f8f8"/>
  <rect x="22" y="50" width="2" height="1" fill="#000000"/>
  <rect x="24" y="50" width="12" height="1" fill="#f8f8f8"/>
  <rect x="36" y="50" width="2" height="1" fill="#000000"/>
  <rect x="6" y="51" width="2" height="1" fill="#000000"/>
  <rect x="8" y="51" width="14" height="1" fill="#f8f8f8"/>
  <rect x="22" y="51" width="2" height="1" fill="#000000"/>
  <rect x="24" y="51" width="12" height="1" fill="#f8f8f8"/>
  <rect x="36" y="51" width="2" height="1" fill="#000000"/>
  <rect x="4" y="52" width="2" height="1" fill="#000000"/>
  <rect x="6" y="52" width="8" height="1" fill="#f8f8f8"/>
  <rect x="14" y="52" width="2" height="1" fill="#000000"/>
  <rect x="16" y="52" width="4" height="1" fill="#f8f8f8"/>
  <rect x="20" y="52" width="6" height="1" fill="#000000"/>
  <rect x="26" y="52" width="12" height="1" fill="#f8f8f8"/>
  <rect x="38" y="52" width="2" height="1" fill="#000000"/>
  <rect x="4" y="53" width="2" height="1" fill="#000000"/>
  <rect x="6" y="53" width="8" height="1" fill="#f8f8f8"/>
  <rect x="14" y="53" width="2" height="1" fill="#000000"/>
  <rect x="16" y="53" width="4" height="1" fill="#f8f8f8"/>
  <rect x="20" y="53" width="6" height="1" fill="#000000"/>
  <rect x="26" y="53" width="12" height="1" fill="#f8f8f8"/>
  <rect x="38" y="53" width="2" height="1" fill="#000000"/>
  <rect x="4" y="54" width="2" height="1" fill="#000000"/>
  <rect x="6" y="54" width="10" height="1" fill="#f8f8f8"/>
  <rect x="16" y="54" width="4" height="1" fill="#000000"/>
  <rect x="24" y="54" width="2" height="1" fill="#000000"/>
  <rect x="26" y="54" width="10" height="1" fill="#f8f8f8"/>
  <rect x="36" y="54" width="2" height="1" fill="#000000"/>
  <rect x="4" y="55" width="2" height="1" fill="#000000"/>
  <rect x="6" y="55" width="10" height="1" fill="#f8f8f8"/>
  <rect x="16" y="55" width="4" height="1" fill="#000000"/>
  <rect x="24" y="55" width="2" height="1" fill="#000000"/>
  <rect x="26" y="55" width="10" height="1" fill="#f8f8f8"/>
  <rect x="36" y="55" width="2" height="1" fill="#000000"/>
  <rect x="4" y="56" width="2" height="1" fill="#000000"/>
  <rect x="6" y="56" width="6" height="1" fill="#f8f8f8"/>
  <rect x="12" y="56" width="4" height="1" fill="#000000"/>
  <rect x="24" y="56" width="2" height="1" fill="#000000"/>
  <rect x="26" y="56" width="10" height="1" fill="#f8f8f8"/>
  <rect x="36" y="56" width="2" height="1" fill="#000000"/>
  <rect x="4" y="57" width="2" height="1" fill="#000000"/>
  <rect x="6" y="57" width="6" height="1" fill="#f8f8f8"/>
  <rect x="12" y="57" width="4" height="1" fill="#000000"/>
  <rect x="24" y="57" width="2" height="1" fill="#000000"/>
  <rect x="26" y="57" width="10" height="1" fill="#f8f8f8"/>
  <rect x="36" y="57" width="2" height="1" fill="#000000"/>
  <rect x="4" y="58" width="2" height="1" fill="#000000"/>
  <rect x="6" y="58" width="10" height="1" fill="#f8f8f8"/>
  <rect x="16" y="58" width="2" height="1" fill="#000000"/>
  <rect x="24" y="58" width="2" height="1" fill="#000000"/>
  <rect x="26" y="58" width="8" height="1" fill="#f8f8f8"/>
  <rect x="34" y="58" width="2" height="1" fill="#000000"/>
  <rect x="36" y="58" width="2" height="1" fill="#f8f8f8"/>
  <rect x="38" y="58" width="2" height="1" fill="#000000"/>
  <rect x="4" y="59" width="2" height="1" fill="#000000"/>
  <rect x="6" y="59" width="10" height="1" fill="#f8f8f8"/>
  <rect x="16" y="59" width="2" height="1" fill="#000000"/>
  <rect x="24" y="59" width="2" height="1" fill="#000000"/>
  <rect x="26" y="59" width="8" height="1" fill="#f8f8f8"/>
  <rect x="34" y="59" width="2" height="1" fill="#000000"/>
  <rect x="36" y="59" width="2" height="1" fill="#f8f8f8"/>
  <rect x="38" y="59" width="2" height="1" fill="#000000"/>
  <rect x="4" y="60" width="2" height="1" fill="#000000"/>
  <rect x="6" y="60" width="10" height="1" fill="#f8f8f8"/>
  <rect x="16" y="60" width="2" height="1" fill="#000000"/>
  <rect x="24" y="60" width="2" height="1" fill="#000000"/>
  <rect x="26" y="60" width="4" height="1" fill="#f8f8f8"/>
  <rect x="30" y="60" width="4" height="1" fill="#000000"/>
  <rect x="34" y="60" width="2" height="1" fill="#f8f8f8"/>
  <rect x="36" y="60" width="2" height="1" fill="#000000"/>
  <rect x="4" y="61" width="2" height="1" fill="#000000"/>
  <rect x="6" y="61" width="10" height="1" fill="#f8f8f8"/>
  <rect x="16" y="61" width="2" height="1" fill="#000000"/>
  <rect x="24" y="61" width="2" height="1" fill="#000000"/>
  <rect x="26" y="61" width="4" height="1" fill="#f8f8f8"/>
  <rect x="30" y="61" width="4" height="1" fill="#000000"/>
  <rect x="34" y="61" width="2" height="1" fill="#f8f8f8"/>
  <rect x="36" y="61" width="2" height="1" fill="#000000"/>
  <rect x="6" y="62" width="6" height="1" fill="#000000"/>
  <rect x="12" y="62" width="4" height="1" fill="#f8f8f8"/>
  <rect x="16" y="62" width="2" height="1" fill="#000000"/>
  <rect x="26" y="62" width="2" height="1" fill="#000000"/>
  <rect x="28" y="62" width="6" height="1" fill="#f8f8f8"/>
  <rect x="34" y="62" width="2" height="1" fill="#000000"/>
  <rect x="36" y="62" width="2" height="1" fill="#f8f8f8"/>
  <rect x="38" y="62" width="2" height="1" fill="#000000"/>
  <rect x="6" y="63" width="6" height="1" fill="#000000"/>
  <rect x="12" y="63" width="4" height="1" fill="#f8f8f8"/>
  <rect x="16" y="63" width="2" height="1" fill="#000000"/>
  <rect x="26" y="63" width="2" height="1" fill="#000000"/>
  <rect x="28" y="63" width="6" height="1" fill="#f8f8f8"/>
  <rect x="34" y="63" width="2" height="1" fill="#000000"/>
  <rect x="36" y="63" width="2" height="1" fill="#f8f8f8"/>
  <rect x="38" y="63" width="2" height="1" fill="#000000"/>
  <rect x="6" y="64" width="2" height="1" fill="#000000"/>
  <rect x="8" y="64" width="8" height="1" fill="#f8f8f8"/>
  <rect x="16" y="64" width="2" height="1" fill="#000000"/>
  <rect x="26" y="64" width="2" height="1" fill="#000000"/>
  <rect x="28" y="64" width="12" height="1" fill="#f8f8f8"/>
  <rect x="40" y="64" width="2" height="1" fill="#000000"/>
  <rect x="6" y="65" width="2" height="1" fill="#000000"/>
  <rect x="8" y="65" width="8" height="1" fill="#f8f8f8"/>
  <rect x="16" y="65" width="2" height="1" fill="#000000"/>
  <rect x="26" y="65" width="2" height="1" fill="#000000"/>
  <rect x="28" y="65" width="12" height="1" fill="#f8f8f8"/>
  <rect x="40" y="65" width="2" height="1" fill="#000000"/>
  <rect x="4" y="66" width="2" height="1" fill="#000000"/>
  <rect x="6" y="66" width="2" height="1" fill="#f8f8f8"/>
  <rect x="8" y="66" width="4" height="1" fill="#000000"/>
  <rect x="12" y="66" width="4" height="1" fill="#f8f8f8"/>
  <rect x="16" y="66" width="2" height="1" fill="#000000"/>
  <rect x="28" y="66" width="2" height="1" fill="#000000"/>
  <rect x="30" y="66" width="10" height="1" fill="#f8f8f8"/>
  <rect x="40" y="66" width="2" height="1" fill="#000000"/>
  <rect x="4" y="67" width="2" height="1" fill="#000000"/>
  <rect x="6" y="67" width="2" height="1" fill="#f8f8f8"/>
  <rect x="8" y="67" width="4" height="1" fill="#000000"/>
  <rect x="12" y="67" width="4" height="1" fill="#f8f8f8"/>
  <rect x="16" y="67" width="2" height="1" fill="#000000"/>
  <rect x="28" y="67" width="2" height="1" fill="#000000"/>
  <rect x="30" y="67" width="10" height="1" fill="#f8f8f8"/>
  <rect x="40" y="67" width="2" height="1" fill="#000000"/>
  <rect x="4" y="68" width="2" height="1" fill="#000000"/>
  <rect x="6" y="68" width="10" height="1" fill="#f8f8f8"/>
  <rect x="16" y="68" width="2" height="1" fill="#000000"/>
  <rect x="28" y="68" width="2" height="1" fill="#000000"/>
  <rect x="30" y="68" width="10" height="1" fill="#f8f8f8"/>
  <rect x="40" y="68" width="4" height="1" fill="#000000"/>
  <rect x="4" y="69" width="2" height="1" fill="#000000"/>
  <rect x="6" y="69" width="10" height="1" fill="#f8f8f8"/>
  <rect x="16" y="69" width="2" height="1" fill="#000000"/>
  <rect x="28" y="69" width="2" height="1" fill="#000000"/>
  <rect x="30" y="69" width="10" height="1" fill="#f8f8f8"/>
  <rect x="40" y="69" width="4" height="1" fill="#000000"/>
  <rect x="4" y="70" width="2" height="1" fill="#000000"/>
  <rect x="6" y="70" width="8" height="1" fill="#f8f8f8"/>
  <rect x="14" y="70" width="4" height="1" fill="#000000"/>
  <rect x="30" y="70" width="2" height="1" fill="#000000"/>
  <rect x="32" y="70" width="6" height="1" fill="#f8f8f8"/>
  <rect x="38" y="70" width="4" height="1" fill="#000000"/>
  <rect x="42" y="70" width="2" height="1" fill="#f8f8f8"/>
  <rect x="44" y="70" width="2" height="1" fill="#000000"/>
  <rect x="4" y="71" width="2" height="1" fill="#000000"/>
  <rect x="6" y="71" width="8" height="1" fill="#f8f8f8"/>
  <rect x="14" y="71" width="4" height="1" fill="#000000"/>
  <rect x="30" y="71" width="2" height="1" fill="#000000"/>
  <rect x="32" y="71" width="6" height="1" fill="#f8f8f8"/>
  <rect x="38" y="71" width="4" height="1" fill="#000000"/>
  <rect x="42" y="71" width="2" height="1" fill="#f8f8f8"/>
  <rect x="44" y="71" width="2" height="1" fill="#000000"/>
  <rect x="4" y="72" width="14" height="1" fill="#000000"/>
  <rect x="30" y="72" width="12" height="1" fill="#000000"/>
  <rect x="42" y="72" width="2" height="1" fill="#f8f8f8"/>
  <rect x="44" y="72" width="2" height="1" fill="#000000"/>
  <rect x="4" y="73" width="14" height="1" fill="#000000"/>
  <rect x="30" y="73" width="12" height="1" fill="#000000"/>
  <rect x="42" y="73" width="2" height="1" fill="#f8f8f8"/>
  <rect x="44" y="73" width="2" height="1" fill="#000000"/>
  <rect x="4" y="74" width="10" height="1" fill="#000000"/>
  <rect x="14" y="74" width="2" height="1" fill="#f8f8f8"/>
  <rect x="16" y="74" width="2" height="1" fill="#000000"/>
  <rect x="30" y="74" width="12" height="1" fill="#000000"/>
  <rect x="42" y="74" width="2" height="1" fill="#f8f8f8"/>
  <rect x="44" y="74" width="2" height="1" fill="#000000"/>
  <rect x="4" y="75" width="10" height="1" fill="#000000"/>
  <rect x="14" y="75" width="2" height="1" fill="#f8f8f8"/>
  <rect x="16" y="75" width="2" height="1" fill="#000000"/>
  <rect x="30" y="75" width="12" height="1" fill="#000000"/>
  <rect x="42" y="75" width="2" height="1" fill="#f8f8f8"/>
  <rect x="44" y="75" width="2" height="1" fill="#000000"/>
  <rect x="2" y="76" width="2" height="1" fill="#000000"/>
  <rect x="4" y="76" width="2" height="1" fill="#f8f8f8"/>
  <rect x="6" y="76" width="8" height="1" fill="#000000"/>
  <rect x="14" y="76" width="2" height="1" fill="#f8f8f8"/>
  <rect x="16" y="76" width="2" height="1" fill="#000000"/>
  <rect x="30" y="76" width="2" height="1" fill="#000000"/>
  <rect x="32" y="76" width="2" height="1" fill="#f8f8f8"/>
  <rect x="34" y="76" width="6" height="1" fill="#000000"/>
  <rect x="40" y="76" width="2" height="1" fill="#f8f8f8"/>
  <rect x="42" y="76" width="2" height="1" fill="#000000"/>
  <rect x="2" y="77" width="2" height="1" fill="#000000"/>
  <rect x="4" y="77" width="2" height="1" fill="#f8f8f8"/>
  <rect x="6" y="77" width="8" height="1" fill="#000000"/>
  <rect x="14" y="77" width="2" height="1" fill="#f8f8f8"/>
  <rect x="16" y="77" width="2" height="1" fill="#000000"/>
  <rect x="30" y="77" width="2" height="1" fill="#000000"/>
  <rect x="32" y="77" width="2" height="1" fill="#f8f8f8"/>
  <rect x="34" y="77" width="6" height="1" fill="#000000"/>
  <rect x="40" y="77" width="2" height="1" fill="#f8f8f8"/>
  <rect x="42" y="77" width="2" height="1" fill="#000000"/>
  <rect x="0" y="78" width="2" height="1" fill="#000000"/>
  <rect x="2" y="78" width="14" height="1" fill="#f8f8f8"/>
  <rect x="16" y="78" width="2" height="1" fill="#000000"/>
  <rect x="28" y="78" width="2" height="1" fill="#000000"/>
  <rect x="30" y="78" width="10" height="1" fill="#f8f8f8"/>
  <rect x="40" y="78" width="2" height="1" fill="#000000"/>
  <rect x="0" y="79" width="2" height="1" fill="#000000"/>
  <rect x="2" y="79" width="14" height="1" fill="#f8f8f8"/>
  <rect x="16" y="79" width="2" height="1" fill="#000000"/>
  <rect x="28" y="79" width="2" height="1" fill="#000000"/>
  <rect x="30" y="79" width="10" height="1" fill="#f8f8f8"/>
  <rect x="40" y="79" width="2" height="1" fill="#000000"/>
</g>
</svg>
