<svg xmlns="http://www.w3.org/2000/svg" xmlns:xlink="http://www.w3.org/1999/xlink"
     viewBox="0 0 64 64" width="64" height="64"
     shape-rendering="crispEdges">
<g id="frame0" opacity="1">
  <rect x="36" y="4" width="8" height="1" fill="#881400"/>
  <rect x="36" y="5" width="8" height="1" fill="#881400"/>
  <rect x="34" y="6" width="12" height="1" fill="#881400"/>
  <rect x="34" y="7" width="12" height="1" fill="#881400"/>
  <rect x="34" y="8" width="2" height="1" fill="#881400"/>
  <rect x="36" y="8" width="2" height="1" fill="#fca044"/>
  <rect x="38" y="8" width="2" height="1" fill="#fce0a8"/>
  <rect x="40" y="8" width="8" height="1" fill="#881400"/>
  <rect x="34" y="9" width="2" height="1" fill="#881400"/>
  <rect x="36" y="9" width="2" height="1" fill="#fca044"/>
  <rect x="38" y="9" width="2" height="1" fill="#fce0a8"/>
  <rect x="40" y="9" width="8" height="1" fill="#881400"/>
  <rect x="34" y="10" width="2" height="1" fill="#881400"/>
  <rect x="36" y="10" width="6" height="1" fill="#fce0a8"/>
  <rect x="42" y="10" width="6" height="1" fill="#881400"/>
  <rect x="34" y="11" width="2" height="1" fill="#881400"/>
  <rect x="36" y="11" width="6" height="1" fill="#fce0a8"/>
  <rect x="42" y="11" width="6" height="1" fill="#881400"/>
  <rect x="34" y="12" width="2" height="1" fill="#881400"/>
  <rect x="36" y="12" width="4" height="1" fill="#fce0a8"/>
  <rect x="40" y="12" width="2" height="1" fill="#fca044"/>
  <rect x="42" y="12" width="6" height="1" fill="#881400"/>
  <rect x="34" y="13" width="2" height="1" fill="#881400"/>
  <rect x="36" y="13" width="4" height="1" fill="#fce0a8"/>
  <rect x="40" y="13" width="2" height="1" fill="#fca044"/>
  <rect x="42" y="13" width="6" height="1" fill="#881400"/>
  <rect x="32" y="14" width="4" height="1" fill="#881400"/>
  <rect x="36" y="14" width="6" height="1" fill="#fca044"/>
  <rect x="42" y="14" width="4" height="1" fill="#881400"/>
  <rect x="32" y="15" width="4" height="1" fill="#881400"/>
  <rect x="36" y="15" width="6" height="1" fill="#fca044"/>
  <rect x="42" y="15" width="4" height="1" fill="#881400"/>
  <rect x="30" y="16" width="2" height="1" fill="#881400"/>
  <rect x="32" y="16" width="2" height="1" fill="#fca044"/>
  <rect x="34" y="16" width="14" height="1" fill="#881400"/>
  <rect x="56" y="16" width="4" height="1" fill="#881400"/>
  <rect x="30" y="17" width="2" height="1" fill="#881400"/>
  <rect x="32" y="17" width="2" height="1" fill="#fca044"/>
  <rect x="34" y="17" width="14" height="1" fill="#881400"/>
  <rect x="56" y="17" width="4" height="1" fill="#881400"/>
  <rect x="30" y="18" width="12" height="1" fill="#881400"/>
  <rect x="42" y="18" width="6" height="1" fill="#fca044"/>
  <rect x="48" y="18" width="2" height="1" fill="#881400"/>
  <rect x="54" y="18" width="2" height="1" fill="#881400"/>
  <rect x="56" y="18" width="4" height="1" fill="#fce0a8"/>
  <rect x="60" y="18" width="2" height="1" fill="#881400"/>
  <rect x="30" y="19" width="12" height="1" fill="#881400"/>
  <rect x="42" y="19" width="6" height="1" fill="#fca044"/>
  <rect x="48" y="19" width="2" height="1" fill="#881400"/>
  <rect x="54" y="19" width="2" height="1" fill="#881400"/>
  <rect x="56" y="19" width="4" height="1" fill="#fce0a8"/>
  <rect x="60" y="19" width="2" height="1" fill="#881400"/>
  <rect x="30" y="20" width="2" height="1" fill="#fce0a8"/>
  <rect x="32" y="20" width="2" height="1" fill="#881400"/>
  <rect x="34" y="20" width="10" height="1" fill="#fca044"/>
  <rect x="44" y="20" width="4" height="1" fill="#881400"/>
  <rect x="48" y="20" width="2" height="1" fill="#fca044"/>
  <rect x="50" y="20" width="2" height="1" fill="#881400"/>
  <rect x="54" y="20" width="2" height="1" fill="#881400"/>
  <rect x="56" y="20" width="6" height="1" fill="#fce0a8"/>
  <rect x="30" y="21" width="2" height="1" fill="#fce0a8"/>
  <rect x="32" y="21" width="2" height="1" fill="#881400"/>
  <rect x="34" y="21" width="10" height="1" fill="#fca044"/>
  <rect x="44" y="21" width="4" height="1" fill="#881400"/>
  <rect x="48" y="21" width="2" height="1" fill="#fca044"/>
  <rect x="50" y="21" width="2" height="1" fill="#881400"/>
  <rect x="54" y="21" width="2" height="1" fill="#881400"/>
  <rect x="56" y="21" width="6" height="1" fill="#fce0a8"/>
  <rect x="30" y="22" width="4" height="1" fill="#881400"/>
  <rect x="34" y="22" width="8" height="1" fill="#fca044"/>
  <rect x="42" y="22" width="4" height="1" fill="#881400"/>
  <rect x="46" y="22" width="4" height="1" fill="#fce0a8"/>
  <rect x="50" y="22" width="8" height="1" fill="#881400"/>
  <rect x="58" y="22" width="2" height="1" fill="#fce0a8"/>
  <rect x="60" y="22" width="2" height="1" fill="#881400"/>
  <rect x="30" y="23" width="4" height="1" fill="#881400"/>
  <rect x="34" y="23" width="8" height="1" fill="#fca044"/>
  <rect x="42" y="23" width="4" height="1" fill="#881400"/>
  <rect x="46" y="23" width="4" height="1" fill="#fce0a8"/>
  <rect x="50" y="23" width="8" height="1" fill="#881400"/>
  <rect x="58" y="23" width="2" height="1" fill="#fce0a8"/>
  <rect x="60" y="23" width="2" height="1" fill="#881400"/>
  <rect x="30" y="24" width="14" height="1" fill="#881400"/>
  <rect x="44" y="24" width="6" height="1" fill="#fce0a8"/>
  <rect x="50" y="24" width="4" height="1" fill="#881400"/>
  <rect x="54" y="24" width="4" height="1" fill="#fca044"/>
  <rect x="58" y="24" width="2" height="1" fill="#881400"/>
  <rect x="30" y="25" width="14" height="1" fill="#881400"/>
  <rect x="44" y="25" width="6" height="1" fill="#fce0a8"/>
  <rect x="50" y="25" width="4" height="1" fill="#881400"/>
  <rect x="54" y="25" width="4" height="1" fill="#fca044"/>
  <rect x="58" y="25" width="2" height="1" fill="#881400"/>
  <rect x="30" y="26" width="18" height="1" fill="#881400"/>
  <rect x="48" y="26" width="2" height="1" fill="#fce0a8"/>
  <rect x="50" y="26" width="2" height="1" fill="#881400"/>
  <rect x="52" y="26" width="6" height="1" fill="#fca044"/>
  <rect x="58" y="26" width="2" height="1" fill="#881400"/>
  <rect x="30" y="27" width="18" height="1" fill="#881400"/>
  <rect x="48" y="27" width="2" height="1" fill="#fce0a8"/>
  <rect x="50" y="27" width="2" height="1" fill="#881400"/>
  <rect x="52" y="27" width="6" height="1" fill="#fca044"/>
  <rect x="58" y="27" width="2" height="1" fill="#881400"/>
  <rect x="30" y="28" width="12" height="1" fill="#881400"/>
  <rect x="42" y="28" width="2" height="1" fill="#fca044"/>
  <rect x="44" y="28" width="2" height="1" fill="#881400"/>
  <rect x="48" y="28" width="10" height="1" fill="#881400"/>
  <rect x="30" y="29" width="12" height="1" fill="#881400"/>
  <rect x="42" y="29" width="2" height="1" fill="#fca044"/>
  <rect x="44" y="29" width="2" height="1" fill="#881400"/>
  <rect x="48" y="29" width="10" height="1" fill="#881400"/>
  <rect x="30" y="30" width="8" height="1" fill="#fca044"/>
  <rect x="38" y="30" width="4" height="1" fill="#881400"/>
  <rect x="42" y="30" width="2" height="1" fill="#fca044"/>
  <rect x="44" y="30" width="2" height="1" fill="#881400"/>
  <rect x="30" y="31" width="8" height="1" fill="#fca044"/>
  <rect x="38" y="31" width="4" height="1" fill="#881400"/>
  <rect x="42" y="31" width="2" height="1" fill="#fca044"/>
  <rect x="44" y="31" width="2" height="1" fill="#881400"/>
  <rect x="30" y="32" width="10" height="1" fill="#fca044"/>
  <rect x="40" y="32" width="6" height="1" fill="#881400"/>
  <rect x="30" y="33" width="10" height="1" fill="#fca044"/>
  <rect x="40" y="33" width="6" height="1" fill="#881400"/>
  <rect x="28" y="34" width="4" height="1" fill="#881400"/>
  <rect x="32" y="34" width="2" height="1" fill="#fca044"/>
  <rect x="34" y="34" width="8" height="1" fill="#881400"/>
  <rect x="28" y="35" width="4" height="1" fill="#881400"/>
  <rect x="32" y="35" width="2" height="1" fill="#fca044"/>
  <rect x="34" y="35" width="8" height="1" fill="#881400"/>
  <rect x="26" y="36" width="2" height="1" fill="#fca044"/>
  <rect x="28" y="36" width="4" height="1" fill="#881400"/>
  <rect x="32" y="36" width="2" height="1" fill="#fca044"/>
  <rect x="34" y="36" width="8" height="1" fill="#881400"/>
  <rect x="26" y="37" width="2" height="1" fill="#fca044"/>
  <rect x="28" y="37" width="4" height="1" fill="#881400"/>
  <rect x="32" y="37" width="2" height="1" fill="#fca044"/>
  <rect x="34" y="37" width="8" height="1" fill="#881400"/>
  <rect x="24" y="38" width="2" height="1" fill="#fca044"/>
  <rect x="26" y="38" width="16" height="1" fill="#881400"/>
  <rect x="24" y="39" width="2" height="1" fill="#fca044"/>
  <rect x="26" y="39" width="16" height="1" fill="#881400"/>
  <rect x="22" y="40" width="2" height="1" fill="#881400"/>
  <rect x="24" y="40" width="4" height="1" fill="#fce0a8"/>
  <rect x="28" y="40" width="4" height="1" fill="#881400"/>
  <rect x="32" y="40" width="6" height="1" fill="#fce0a8"/>
  <rect x="38" y="40" width="2" height="1" fill="#881400"/>
  <rect x="22" y="41" width="2" height="1" fill="#881400"/>
  <rect x="24" y="41" width="4" height="1" fill="#fce0a8"/>
  <rect x="28" y="41" width="4" height="1" fill="#881400"/>
  <rect x="32" y="41" width="6" height="1" fill="#fce0a8"/>
  <rect x="38" y="41" width="2" height="1" fill="#881400"/>
  <rect x="20" y="42" width="2" height="1" fill="#881400"/>
  <rect x="22" y="42" width="6" height="1" fill="#fce0a8"/>
  <rect x="28" y="42" width="4" height="1" fill="#881400"/>
  <rect x="32" y="42" width="6" height="1" fill="#fce0a8"/>
  <rect x="38" y="42" width="2" height="1" fill="#881400"/>
  <rect x="20" y="43" width="2" height="1" fill="#881400"/>
  <rect x="22" y="43" width="6" height="1" fill="#fce0a8"/>
  <rect x="28" y="43" width="4" height="1" fill="#881400"/>
  <rect x="32" y="43" width="6" height="1" fill="#fce0a8"/>
  <rect x="38" y="43" width="2" height="1" fill="#881400"/>
  <rect x="18" y="44" width="4" height="1" fill="#881400"/>
  <rect x="22" y="44" width="4" height="1" fill="#fce0a8"/>
  <rect x="26" y="44" width="2" height="1" fill="#881400"/>
  <rect x="30" y="44" width="4" height="1" fill="#881400"/>
  <rect x="34" y="44" width="4" height="1" fill="#fce0a8"/>
  <rect x="38" y="44" width="2" height="1" fill="#881400"/>
  <rect x="18" y="45" width="4" height="1" fill="#881400"/>
  <rect x="22" y="45" width="4" height="1" fill="#fce0a8"/>
  <rect x="26" y="45" width="2" height="1" fill="#881400"/>
  <rect x="30" y="45" width="4" height="1" fill="#881400"/>
  <rect x="34" y="45" width="4" height="1" fill="#fce0a8"/>
  <rect x="38" y="45" width="2" height="1" fill="#881400"/>
  <rect x="18" y="46" width="2" height="1" fill="#881400"/>
  <rect x="20" y="46" width="2" height="1" fill="#fce0a8"/>
  <rect x="22" y="46" width="4" height="1" fill="#881400"/>
  <rect x="32" y="46" width="2" height="1" fill="#881400"/>
  <rect x="34" y="46" width="2" height="1" fill="#fce0a8"/>
  <rect x="36" y="46" width="4" height="1" fill="#881400"/>
  <rect x="18" y="47" width="2" height="1" fill="#881400"/>
  <rect x="20" y="47" width="2" height="1" fill="#fce0a8"/>
  <rect x="22" y="47" width="4" height="1" fill="#881400"/>
  <rect x="32" y="47" width="2" height="1" fill="#881400"/>
  <rect x="34" y="47" width="2" height="1" fill="#fce0a8"/>
  <rect x="36" y="47" width="4" height="1" fill="#881400"/>
  <rect x="18" y="48" width="8" height="1" fill="#881400"/>
  <rect x="32" y="48" width="6" height="1" fill="#881400"/>
  <rect x="38" y="48" width="2" height="1" fill="#fca044"/>
  <rect x="40" y="48" width="2" height="1" fill="#881400"/>
  <rect x="18" y="49" width="8" height="1" fill="#881400"/>
  <rect x="32" y="49" width="6" height="1" fill="#881400"/>
  <rect x="38" y="49" width="2" height="1" fill="#fca044"/>
  <rect x="40" y="49" width="2" height="1" fill="#881400"/>
  <rect x="18" y="50" width="2" height="1" fill="#881400"/>
  <rect x="20" y="50" width="4" height="1" fill="#fca044"/>
  <rect x="24" y="50" width="2" height="1" fill="#881400"/>
  <rect x="34" y="50" width="2" height="1" fill="#881400"/>
  <rect x="36" y="50" width="4" height="1" fill="#fca044"/>
  <rect x="40" y="50" width="4" height="1" fill="#881400"/>
  <rect x="18" y="51" width="2" height="1" fill="#881400"/>
  <rect x="20" y="51" width="4" height="1" fill="#fca044"/>
  <rect x="24" y="51" width="2" height="1" fill="#881400"/>
  <rect x="34" y="51" width="2" height="1" fill="#881400"/>
  <rect x="36" y="51" width="4" height="1" fill="#fca044"/>
  <rect x="40" y="51" width="4" height="1" fill="#881400"/>
  <rect x="18" y="52" width="2" height="1" fill="#881400"/>
  <rect x="20" y="52" width="4" height="1" fill="#fca044"/>
  <rect x="24" y="52" width="2" height="1" fill="#881400"/>
  <rect x="36" y="52" width="2" height="1" fill="#881400"/>
  <rect x="38" y="52" width="4" height="1" fill="#fca044"/>
  <rect x="42" y="52" width="4" height="1" fill="#881400"/>
  <rect x="18" y="53" width="2" height="1" fill="#881400"/>
  <rect x="20" y="53" width="4" height="1" fill="#fca044"/>
  <rect x="24" y="53" width="2" height="1" fill="#881400"/>
  <rect x="36" y="53" width="2" height="1" fill="#881400"/>
  <rect x="38" y="53" width="4" height="1" fill="#fca044"/>
  <rect x="42" y="53" width="4" height="1" fill="#881400"/>
  <rect x="18" y="54" width="2" height="1" fill="#881400"/>
  <rect x="20" y="54" width="4" height="1" fill="#fca044"/>
  <rect x="24" y="54" width="2" height="1" fill="#881400"/>
  <rect x="38" y="54" width="2" height="1" fill="#881400"/>
  <rect x="40" y="54" width="4" height="1" fill="#fca044"/>
  <rect x="44" y="54" width="2" height="1" fill="#881400"/>
  <rect x="18" y="55" width="2" height="1" fill="#881400"/>
  <rect x="20" y="55" width="4" height="1" fill="#fca044"/>
  <rect x="24" y="55" width="2" height="1" fill="#881400"/>
  <rect x="38" y="55" width="2" height="1" fill="#881400"/>
  <rect x="40" y="55" width="4" height="1" fill="#fca044"/>
  <rect x="44" y="55" width="2" height="1" fill="#881400"/>
  <rect x="18" y="56" width="2" height="1" fill="#881400"/>
  <rect x="20" y="56" width="2" height="1" fill="#fca044"/>
  <rect x="22" y="56" width="2" height="1" fill="#881400"/>
  <rect x="38" y="56" width="2" height="1" fill="#881400"/>
  <rect x="40" y="56" width="4" height="1" fill="#fca044"/>
  <rect x="44" y="56" width="2" height="1" fill="#881400"/>
  <rect x="18" y="57" width="2" height="1" fill="#881400"/>
  <rect x="20" y="57" width="2" height="1" fill="#fca044"/>
  <rect x="22" y="57" width="2" height="1" fill="#881400"/>
  <rect x="38" y="57" width="2" height="1" fill="#881400"/>
  <rect x="40" y="57" width="4" height="1" fill="#fca044"/>
  <rect x="44" y="57" width="2" height="1" fill="#881400"/>
  <rect x="14" y="58" width="4" height="1" fill="#881400"/>
  <rect x="18" y="58" width="6" height="1" fill="#fca044"/>
  <rect x="24" y="58" width="2" height="1" fill="#881400"/>
  <rect x="38" y="58" width="2" height="1" fill="#881400"/>
  <rect x="40" y="58" width="4" height="1" fill="#fca044"/>
  <rect x="44" y="58" width="2" height="1" fill="#881400"/>
  <rect x="14" y="59" width="4" height="1" fill="#881400"/>
  <rect x="18" y="59" width="6" height="1" fill="#fca044"/>
  <rect x="24" y="59" width="2" height="1" fill="#881400"/>
  <rect x="38" y="59" width="2" height="1" fill="#881400"/>
  <rect x="40" y="59" width="4" height="1" fill="#fca044"/>
  <rect x="44" y="59" width="2" height="1" fill="#881400"/>
  <rect x="14" y="60" width="2" height="1" fill="#881400"/>
  <rect x="16" y="60" width="8" height="1" fill="#fca044"/>
  <rect x="24" y="60" width="2" height="1" fill="#881400"/>
  <rect x="36" y="60" width="2" height="1" fill="#881400"/>
  <rect x="38" y="60" width="6" height="1" fill="#fca044"/>
  <rect x="44" y="60" width="2" height="1" fill="#881400"/>
  <rect x="14" y="61" width="2" height="1" fill="#881400"/>
  <rect x="16" y="61" width="8" height="1" fill="#fca044"/>
  <rect x="24" y="61" width="2" height="1" fill="#881400"/>
  <rect x="36" y="61" width="2" height="1" fill="#881400"/>
  <rect x="38" y="61" width="6" height="1" fill="#fca044"/>
  <rect x="44" y="61" width="2" height="1" fill="#881400"/>
  <rect x="14" y="62" width="12" height="1" fill="#881400"/>
  <rect x="36" y="62" width="10" height="1" fill="#881400"/>
  <rect x="14" y="63" width="12" height="1" fill="#881400"/>
  <rect x="36" y="63" width="10" height="1" fill="#881400"/>
</g>
<g id="frame1" opacity="0">
  <rect x="32" y="4" width="8" height="1" fill="#881400"/>
  <rect x="32" y="5" width="8" height="1" fill="#881400"/>
  <rect x="30" y="6" width="12" height="1" fill="#881400"/>
  <rect x="30" y="7" width="12" height="1" fill="#881400"/>
  <rect x="30" y="8" width="2" height="1" fill="#881400"/>
  <rect x="32" y="8" width="4" height="1" fill="#fca044"/>
  <rect x="36" y="8" width="8" height="1" fill="#881400"/>
  <rect x="30" y="9" width="2" height="1" fill="#881400"/>
  <rect x="32" y="9" width="4" height="1" fill="#fca044"/>
  <rect x="36" y="9" width="8" height="1" fill="#881400"/>
  <rect x="30" y="10" width="2" height="1" fill="#881400"/>
  <rect x="32" y="10" width="4" height="1" fill="#fce0a8"/>
  <rect x="36" y="10" width="10" height="1" fill="#881400"/>
  <rect x="30" y="11" width="2" height="1" fill="#881400"/>
  <rect x="32" y="11" width="4" height="1" fill="#fce0a8"/>
  <rect x="36" y="11" width="10" height="1" fill="#881400"/>
  <rect x="30" y="12" width="2" height="1" fill="#881400"/>
  <rect x="32" y="12" width="4" height="1" fill="#fce0a8"/>
  <rect x="36" y="12" width="4" height="1" fill="#fca044"/>
  <rect x="40" y="12" width="2" height="1" fill="#881400"/>
  <rect x="42" y="12" width="4" height="1" fill="#fce0a8"/>
  <rect x="30" y="13" width="2" height="1" fill="#881400"/>
  <rect x="32" y="13" width="4" height="1" fill="#fce0a8"/>
  <rect x="36" y="13" width="4" height="1" fill="#fca044"/>
  <rect x="40" y="13" width="2" height="1" fill="#881400"/>
  <rect x="42" y="13" width="4" height="1" fill="#fce0a8"/>
  <rect x="30" y="14" width="2" height="1" fill="#881400"/>
  <rect x="32" y="14" width="2" height="1" fill="#fce0a8"/>
  <rect x="34" y="14" width="4" height="1" fill="#fca044"/>
  <rect x="38" y="14" width="2" height="1" fill="#fce0a8"/>
  <rect x="40" y="14" width="6" height="1" fill="#881400"/>
  <rect x="30" y="15" width="2" height="1" fill="#881400"/>
  <rect x="32" y="15" width="2" height="1" fill="#fce0a8"/>
  <rect x="34" y="15" width="4" height="1" fill="#fca044"/>
  <rect x="38" y="15" width="2" height="1" fill="#fce0a8"/>
  <rect x="40" y="15" width="6" height="1" fill="#881400"/>
  <rect x="30" y="16" width="6" height="1" fill="#881400"/>
  <rect x="36" y="16" width="2" height="1" fill="#fca044"/>
  <rect x="38" y="16" width="4" height="1" fill="#fce0a8"/>
  <rect x="42" y="16" width="4" height="1" fill="#881400"/>
  <rect x="30" y="17" width="6" height="1" fill="#881400"/>
  <rect x="36" y="17" width="2" height="1" fill="#fca044"/>
  <rect x="38" y="17" width="4" height="1" fill="#fce0a8"/>
  <rect x="42" y="17" width="4" height="1" fill="#881400"/>
  <rect x="32" y="18" width="4" height="1" fill="#881400"/>
  <rect x="36" y="18" width="2" height="1" fill="#fca044"/>
  <rect x="38" y="18" width="6" height="1" fill="#fce0a8"/>
  <rect x="44" y="18" width="2" height="1" fill="#881400"/>
  <rect x="32" y="19" width="4" height="1" fill="#881400"/>
  <rect x="36" y="19" width="2" height="1" fill="#fca044"/>
  <rect x="38" y="19" width="6" height="1" fill="#fce0a8"/>
  <rect x="44" y="19" width="2" height="1" fill="#881400"/>
  <rect x="30" y="20" width="2" height="1" fill="#881400"/>
  <rect x="32" y="20" width="4" height="1" fill="#fca044"/>
  <rect x="36" y="20" width="2" height="1" fill="#881400"/>
  <rect x="38" y="20" width="6" height="1" fill="#fce0a8"/>
  <rect x="44" y="20" width="2" height="1" fill="#881400"/>
  <rect x="30" y="21" width="2" height="1" fill="#881400"/>
  <rect x="32" y="21" width="4" height="1" fill="#fca044"/>
  <rect x="36" y="21" width="2" height="1" fill="#881400"/>
  <rect x="38" y="21" width="6" height="1" fill="#fce0a8"/>
  <rect x="44" y="21" width="2" height="1" fill="#881400"/>
  <rect x="30" y="22" width="2" height="1" fill="#881400"/>
  <rect x="32" y="22" width="2" height="1" fill="#fca044"/>
  <rect x="34" y="22" width="4" height="1" fill="#881400"/>
  <rect x="38" y="22" width="6" height="1" fill="#fce0a8"/>
  <rect x="44" y="22" width="2" height="1" fill="#fca044"/>
  <rect x="30" y="23" width="2" height="1" fill="#881400"/>
  <rect x="32" y="23" width="2" height="1" fill="#fca044"/>
  <rect x="34" y="23" width="4" height="1" fill="#881400"/>
  <rect x="38" y="23" width="6" height="1" fill="#fce0a8"/>
  <rect x="44" y="23" width="2" height="1" fill="#fca044"/>
  <rect x="30" y="24" width="2" height="1" fill="#fca044"/>
  <rect x="32" y="24" width="8" height="1" fill="#881400"/>
  <rect x="40" y="24" width="2" height="1" fill="#fce0a8"/>
  <rect x="42" y="24" width="4" height="1" fill="#881400"/>
  <rect x="30" y="25" width="2" height="1" fill="#fca044"/>
  <rect x="32" y="25" width="8" height="1" fill="#881400"/>
  <rect x="40" y="25" width="2" height="1" fill="#fce0a8"/>
  <rect x="42" y="25" width="4" height="1" fill="#881400"/>
  <rect x="30" y="26" width="2" height="1" fill="#fca044"/>
  <rect x="32" y="26" width="12" height="1" fill="#881400"/>
  <rect x="30" y="27" width="2" height="1" fill="#fca044"/>
  <rect x="32" y="27" width="12" height="1" fill="#881400"/>
  <rect x="30" y="28" width="2" height="1" fill="#881400"/>
  <rect x="32" y="28" width="6" height="1" fill="#fca044"/>
  <rect x="38" y="28" width="2" height="1" fill="#881400"/>
  <rect x="40" y="28" width="2" height="1" fill="#fca044"/>
  <rect x="42" y="28" width="2" height="1" fill="#881400"/>
  <rect x="30" y="29" width="2" height="1" fill="#881400"/>
  <rect x="32" y="29" width="6" height="1" fill="#fca044"/>
  <rect x="38" y="29" width="2" height="1" fill="#881400"/>
  <rect x="40" y="29" width="2" height="1" fill="#fca044"/>
  <rect x="42" y="29" width="2" height="1" fill="#881400"/>
  <rect x="30" y="30" width="8" height="1" fill="#fca044"/>
  <rect x="38" y="30" width="2" height="1" fill="#881400"/>
  <rect x="40" y="30" width="2" height="1" fill="#fca044"/>
  <rect x="42" y="30" width="2" height="1" fill="#881400"/>
  <rect x="30" y="31" width="8" height="1" fill="#fca044"/>
  <rect x="38" y="31" width="2" height="1" fill="#881400"/>
  <rect x="40" y="31" width="2" height="1" fill="#fca044"/>
  <rect x="42" y="31" width="2" height="1" fill="#881400"/>
  <rect x="30" y="32" width="2" height="1" fill="#fca044"/>
  <rect x="32" y="32" width="12" height="1" fill="#881400"/>
  <rect x="30" y="33" width="2" height="1" fill="#fca044"/>
  <rect x="32" y="33" width="12" height="1" fill="#881400"/>
  <rect x="28" y="34" width="4" height="1" fill="#881400"/>
  <rect x="32" y="34" width="2" height="1" fill="#fca044"/>
  <rect x="34" y="34" width="8" height="1" fill="#881400"/>
  <rect x="28" y="35" width="4" height="1" fill="#881400"/>
  <rect x="32" y="35" width="2" height="1" fill="#fca044"/>
  <rect x="34" y="35" width="8" height="1" fill="#881400"/>
  <rect x="26" y="36" width="2" height="1" fill="#fca044"/>
  <rect x="28" y="36" width="4" height="1" fill="#881400"/>
  <rect x="32" y="36" width="2" height="1" fill="#fca044"/>
  <rect x="34" y="36" width="8" height="1" fill="#881400"/>
  <rect x="26" y="37" width="2" height="1" fill="#fca044"/>
  <rect x="28" y="37" width="4" height="1" fill="#881400"/>
  <rect x="32" y="37" width="2" height="1" fill="#fca044"/>
  <rect x="34" y="37" width="8" height="1" fill="#881400"/>
  <rect x="24" y="38" width="2" height="1" fill="#fca044"/>
  <rect x="26" y="38" width="16" height="1" fill="#881400"/>
  <rect x="24" y="39" width="2" height="1" fill="#fca044"/>
  <rect x="26" y="39" width="16" height="1" fill="#881400"/>
  <rect x="22" y="40" width="2" height="1" fill="#881400"/>
  <rect x="24" y="40" width="4" height="1" fill="#fce0a8"/>
  <rect x="28" y="40" width="4" height="1" fill="#881400"/>
  <rect x="32" y="40" width="6" height="1" fill="#fce0a8"/>
  <rect x="38" y="40" width="2" height="1" fill="#881400"/>
  <rect x="22" y="41" width="2" height="1" fill="#881400"/>
  <rect x="24" y="41" width="4" height="1" fill="#fce0a8"/>
  <rect x="28" y="41" width="4" height="1" fill="#881400"/>
  <rect x="32" y="41" width="6" height="1" fill="#fce0a8"/>
  <rect x="38" y="41" width="2" height="1" fill="#881400"/>
  <rect x="20" y="42" width="2" height="1" fill="#881400"/>
  <rect x="22" y="42" width="6" height="1" fill="#fce0a8"/>
  <rect x="28" y="42" width="4" height="1" fill="#881400"/>
  <rect x="32" y="42" width="6" height="1" fill="#fce0a8"/>
  <rect x="38" y="42" width="2" height="1" fill="#881400"/>
  <rect x="20" y="43" width="2" height="1" fill="#881400"/>
  <rect x="22" y="43" width="6" height="1" fill="#fce0a8"/>
  <rect x="28" y="43" width="4" height="1" fill="#881400"/>
  <rect x="32" y="43" width="6" height="1" fill="#fce0a8"/>
  <rect x="38" y="43" width="2" height="1" fill="#881400"/>
  <rect x="18" y="44" width="4" height="1" fill="#881400"/>
  <rect x="22" y="44" width="4" height="1" fill="#fce0a8"/>
  <rect x="26" y="44" width="2" height="1" fill="#881400"/>
  <rect x="30" y="44" width="4" height="1" fill="#881400"/>
  <rect x="34" y="44" width="4" height="1" fill="#fce0a8"/>
  <rect x="38" y="44" width="2" height="1" fill="#881400"/>
  <rect x="18" y="45" width="4" height="1" fill="#881400"/>
  <rect x="22" y="45" width="4" height="1" fill="#fce0a8"/>
  <rect x="26" y="45" width="2" height="1" fill="#881400"/>
  <rect x="30" y="45" width="4" height="1" fill="#881400"/>
  <rect x="34" y="45" width="4" height="1" fill="#fce0a8"/>
  <rect x="38" y="45" width="2" height="1" fill="#881400"/>
  <rect x="18" y="46" width="2" height="1" fill="#881400"/>
  <rect x="20" y="46" width="2" height="1" fill="#fce0a8"/>
  <rect x="22" y="46" width="4" height="1" fill="#881400"/>
  <rect x="32" y="46" width="2" height="1" fill="#881400"/>
  <rect x="34" y="46" width="2" height="1" fill="#fce0a8"/>
  <rect x="36" y="46" width="4" height="1" fill="#881400"/>
  <rect x="18" y="47" width="2" height="1" fill="#881400"/>
  <rect x="20" y="47" width="2" height="1" fill="#fce0a8"/>
  <rect x="22" y="47" width="4" height="1" fill="#881400"/>
  <rect x="32" y="47" width="2" height="1" fill="#881400"/>
  <rect x="34" y="47" width="2" height="1" fill="#fce0a8"/>
  <rect x="36" y="47" width="4" height="1" fill="#881400"/>
  <rect x="18" y="48" width="8" height="1" fill="#881400"/>
  <rect x="32" y="48" width="6" height="1" fill="#881400"/>
  <rect x="38" y="48" width="2" height="1" fill="#fca044"/>
  <rect x="40" y="48" width="2" height="1" fill="#881400"/>
  <rect x="18" y="49" width="8" height="1" fill="#881400"/>
  <rect x="32" y="49" width="6" height="1" fill="#881400"/>
  <rect x="38" y="49" width="2" height="1" fill="#fca044"/>
  <rect x="40" y="49" width="2" height="1" fill="#881400"/>
  <rect x="18" y="50" width="2" height="1" fill="#881400"/>
  <rect x="20" y="50" width="4" height="1" fill="#fca044"/>
  <rect x="24" y="50" width="2" height="1" fill="#881400"/>
  <rect x="34" y="50" width="2" height="1" fill="#881400"/>
  <rect x="36" y="50" width="4" height="1" fill="#fca044"/>
  <rect x="40" y="50" width="4" height="1" fill="#881400"/>
  <rect x="18" y="51" width="2" height="1" fill="#881400"/>
  <rect x="20" y="51" width="4" height="1" fill="#fca044"/>
  <rect x="24" y="51" width="2" height="1" fill="#881400"/>
  <rect x="34" y="51" width="2" height="1" fill="#881400"/>
  <rect x="36" y="51" width="4" height="1" fill="#fca044"/>
  <rect x="40" y="51" width="4" height="1" fill="#881400"/>
  <rect x="18" y="52" width="2" height="1" fill="#881400"/>
  <rect x="20" y="52" width="4" height="1" fill="#fca044"/>
  <rect x="24" y="52" width="2" height="1" fill="#881400"/>
  <rect x="36" y="52" width="2" height="1" fill="#881400"/>
  <rect x="38" y="52" width="4" height="1" fill="#fca044"/>
  <rect x="42" y="52" width="4" height="1" fill="#881400"/>
  <rect x="18" y="53" width="2" height="1" fill="#881400"/>
  <rect x="20" y="53" width="4" height="1" fill="#fca044"/>
  <rect x="24" y="53" width="2" height="1" fill="#881400"/>
  <rect x="36" y="53" width="2" height="1" fill="#881400"/>
  <rect x="38" y="53" width="4" height="1" fill="#fca044"/>
  <rect x="42" y="53" width="4" height="1" fill="#881400"/>
  <rect x="18" y="54" width="2" height="1" fill="#881400"/>
  <rect x="20" y="54" width="4" height="1" fill="#fca044"/>
  <rect x="24" y="54" width="2" height="1" fill="#881400"/>
  <rect x="38" y="54" width="2" height="1" fill="#881400"/>
  <rect x="40" y="54" width="4" height="1" fill="#fca044"/>
  <rect x="44" y="54" width="2" height="1" fill="#881400"/>
  <rect x="18" y="55" width="2" height="1" fill="#881400"/>
  <rect x="20" y="55" width="4" height="1" fill="#fca044"/>
  <rect x="24" y="55" width="2" height="1" fill="#881400"/>
  <rect x="38" y="55" width="2" height="1" fill="#881400"/>
  <rect x="40" y="55" width="4" height="1" fill="#fca044"/>
  <rect x="44" y="55" width="2" height="1" fill="#881400"/>
  <rect x="18" y="56" width="2" height="1" fill="#881400"/>
  <rect x="20" y="56" width="2" height="1" fill="#fca044"/>
  <rect x="22" y="56" width="2" height="1" fill="#881400"/>
  <rect x="38" y="56" width="2" height="1" fill="#881400"/>
  <rect x="40" y="56" width="4" height="1" fill="#fca044"/>
  <rect x="44" y="56" width="2" height="1" fill="#881400"/>
  <rect x="18" y="57" width="2" height="1" fill="#881400"/>
  <rect x="20" y="57" width="2" height="1" fill="#fca044"/>
  <rect x="22" y="57" width="2" height="1" fill="#881400"/>
  <rect x="38" y="57" width="2" height="1" fill="#881400"/>
  <rect x="40" y="57" width="4" height="1" fill="#fca044"/>
  <rect x="44" y="57" width="2" height="1" fill="#881400"/>
  <rect x="14" y="58" width="4" height="1" fill="#881400"/>
  <rect x="18" y="58" width="6" height="1" fill="#fca044"/>
  <rect x="24" y="58" width="2" height="1" fill="#881400"/>
  <rect x="38" y="58" width="2" height="1" fill="#881400"/>
  <rect x="40" y="58" width="4" height="1" fill="#fca044"/>
  <rect x="44" y="58" width="2" height="1" fill="#881400"/>
  <rect x="14" y="59" width="4" height="1" fill="#881400"/>
  <rect x="18" y="59" width="6" height="1" fill="#fca044"/>
  <rect x="24" y="59" width="2" height="1" fill="#881400"/>
  <rect x="38" y="59" width="2" height="1" fill="#881400"/>
  <rect x="40" y="59" width="4" height="1" fill="#fca044"/>
  <rect x="44" y="59" width="2" height="1" fill="#881400"/>
  <rect x="14" y="60" width="2" height="1" fill="#881400"/>
  <rect x="16" y="60" width="8" height="1" fill="#fca044"/>
  <rect x="24" y="60" width="2" height="1" fill="#881400"/>
  <rect x="36" y="60" width="2" height="1" fill="#881400"/>
  <rect x="38" y="60" width="6" height="1" fill="#fca044"/>
  <rect x="44" y="60" width="2" height="1" fill="#881400"/>
  <rect x="14" y="61" width="2" height="1" fill="#881400"/>
  <rect x="16" y="61" width="8" height="1" fill="#fca044"/>
  <rect x="24" y="61" width="2" height="1" fill="#881400"/>
  <rect x="36" y="61" width="2" height="1" fill="#881400"/>
  <rect x="38" y="61" width="6" height="1" fill="#fca044"/>
  <rect x="44" y="61" width="2" height="1" fill="#881400"/>
  <rect x="14" y="62" width="12" height="1" fill="#881400"/>
  <rect x="36" y="62" width="10" height="1" fill="#881400"/>
  <rect x="14" y="63" width="12" height="1" fill="#881400"/>
  <rect x="36" y="63" width="10" height="1" fill="#881400"/>
</g>
<g id="frame2" opacity="0">
  <rect x="22" y="6" width="10" height="1" fill="#881400"/>
  <rect x="22" y="7" width="10" height="1" fill="#881400"/>
  <rect x="20" y="8" width="14" height="1" fill="#881400"/>
  <rect x="20" y="9" width="14" height="1" fill="#881400"/>
  <rect x="20" y="10" width="2" height="1" fill="#881400"/>
  <rect x="22" y="10" width="2" height="1" fill="#fce0a8"/>
  <rect x="24" y="10" width="12" height="1" fill="#881400"/>
  <rect x="20" y="11" width="2" height="1" fill="#881400"/>
  <rect x="22" y="11" width="2" height="1" fill="#fce0a8"/>
  <rect x="24" y="11" width="12" height="1" fill="#881400"/>
  <rect x="20" y="12" width="2" height="1" fill="#881400"/>
  <rect x="22" y="12" width="2" height="1" fill="#fca044"/>
  <rect x="24" y="12" width="2" height="1" fill="#fce0a8"/>
  <rect x="26" y="12" width="8" height="1" fill="#881400"/>
  <rect x="20" y="13" width="2" height="1" fill="#881400"/>
  <rect x="22" y="13" width="2" height="1" fill="#fca044"/>
  <rect x="24" y="13" width="2" height="1" fill="#fce0a8"/>
  <rect x="26" y="13" width="8" height="1" fill="#881400"/>
  <rect x="20" y="14" width="22" height="1" fill="#881400"/>
  <rect x="20" y="15" width="22" height="1" fill="#881400"/>
  <rect x="20" y="16" width="4" height="1" fill="#881400"/>
  <rect x="24" y="16" width="18" height="1" fill="#fca044"/>
  <rect x="42" y="16" width="2" height="1" fill="#881400"/>
  <rect x="20" y="17" width="4" height="1" fill="#881400"/>
  <rect x="24" y="17" width="18" height="1" fill="#fca044"/>
  <rect x="42" y="17" width="2" height="1" fill="#881400"/>
  <rect x="20" y="18" width="10" height="1" fill="#881400"/>
  <rect x="30" y="18" width="10" height="1" fill="#fca044"/>
  <rect x="40" y="18" width="6" height="1" fill="#881400"/>
  <rect x="20" y="19" width="10" height="1" fill="#881400"/>
  <rect x="30" y="19" width="10" height="1" fill="#fca044"/>
  <rect x="40" y="19" width="6" height="1" fill="#881400"/>
  <rect x="18" y="20" width="2" height="1" fill="#881400"/>
  <rect x="20" y="20" width="6" height="1" fill="#fce0a8"/>
  <rect x="26" y="20" width="14" height="1" fill="#881400"/>
  <rect x="40" y="20" width="2" height="1" fill="#fca044"/>
  <rect x="42" y="20" width="2" height="1" fill="#fce0a8"/>
  <rect x="44" y="20" width="2" height="1" fill="#881400"/>
  <rect x="18" y="21" width="2" height="1" fill="#881400"/>
  <rect x="20" y="21" width="6" height="1" fill="#fce0a8"/>
  <rect x="26" y="21" width="14" height="1" fill="#881400"/>
  <rect x="40" y="21" width="2" height="1" fill="#fca044"/>
  <rect x="42" y="21" width="2" height="1" fill="#fce0a8"/>
  <rect x="44" y="21" width="2" height="1" fill="#881400"/>
  <rect x="12" y="22" width="6" height="1" fill="#881400"/>
  <rect x="18" y="22" width="8" height="1" fill="#fce0a8"/>
  <rect x="26" y="22" width="16" height="1" fill="#881400"/>
  <rect x="42" y="22" width="2" height="1" fill="#fce0a8"/>
  <rect x="44" y="22" width="2" height="1" fill="#881400"/>
  <rect x="12" y="23" width="6" height="1" fill="#881400"/>
  <rect x="18" y="23" width="8" height="1" fill="#fce0a8"/>
  <rect x="26" y="23" width="16" height="1" fill="#881400"/>
  <rect x="42" y="23" width="2" height="1" fill="#fce0a8"/>
  <rect x="44" y="23" width="2" height="1" fill="#881400"/>
  <rect x="4" y="24" width="8" height="1" fill="#881400"/>
  <rect x="12" y="24" width="4" height="1" fill="#fca044"/>
  <rect x="16" y="24" width="2" height="1" fill="#881400"/>
  <rect x="18" y="24" width="6" height="1" fill="#fce0a8"/>
  <rect x="24" y="24" width="14" height="1" fill="#881400"/>
  <rect x="38" y="24" width="2" height="1" fill="#fca044"/>
  <rect x="40" y="24" width="2" height="1" fill="#881400"/>
  <rect x="42" y="24" width="2" height="1" fill="#fca044"/>
  <rect x="44" y="24" width="2" height="1" fill="#fce0a8"/>
  <rect x="4" y="25" width="8" height="1" fill="#881400"/>
  <rect x="12" y="25" width="4" height="1" fill="#fca044"/>
  <rect x="16" y="25" width="2" height="1" fill="#881400"/>
  <rect x="18" y="25" width="6" height="1" fill="#fce0a8"/>
  <rect x="24" y="25" width="14" height="1" fill="#881400"/>
  <rect x="38" y="25" width="2" height="1" fill="#fca044"/>
  <rect x="40" y="25" width="2" height="1" fill="#881400"/>
  <rect x="42" y="25" width="2" height="1" fill="#fca044"/>
  <rect x="44" y="25" width="2" height="1" fill="#fce0a8"/>
  <rect x="2" y="26" width="4" height="1" fill="#881400"/>
  <rect x="6" y="26" width="2" height="1" fill="#fce0a8"/>
  <rect x="8" y="26" width="2" height="1" fill="#881400"/>
  <rect x="10" y="26" width="6" height="1" fill="#fca044"/>
  <rect x="16" y="26" width="2" height="1" fill="#881400"/>
  <rect x="18" y="26" width="2" height="1" fill="#fce0a8"/>
  <rect x="20" y="26" width="4" height="1" fill="#881400"/>
  <rect x="26" y="26" width="2" height="1" fill="#fca044"/>
  <rect x="28" y="26" width="10" height="1" fill="#881400"/>
  <rect x="38" y="26" width="2" height="1" fill="#fca044"/>
  <rect x="40" y="26" width="2" height="1" fill="#881400"/>
  <rect x="42" y="26" width="2" height="1" fill="#fca044"/>
  <rect x="44" y="26" width="2" height="1" fill="#881400"/>
  <rect x="2" y="27" width="4" height="1" fill="#881400"/>
  <rect x="6" y="27" width="2" height="1" fill="#fce0a8"/>
  <rect x="8" y="27" width="2" height="1" fill="#881400"/>
  <rect x="10" y="27" width="6" height="1" fill="#fca044"/>
  <rect x="16" y="27" width="2" height="1" fill="#881400"/>
  <rect x="18" y="27" width="2" height="1" fill="#fce0a8"/>
  <rect x="20" y="27" width="4" height="1" fill="#881400"/>
  <rect x="26" y="27" width="2" height="1" fill="#fca044"/>
  <rect x="28" y="27" width="10" height="1" fill="#881400"/>
  <rect x="38" y="27" width="2" height="1" fill="#fca044"/>
  <rect x="40" y="27" width="2" height="1" fill="#881400"/>
  <rect x="42" y="27" width="2" height="1" fill="#fca044"/>
  <rect x="44" y="27" width="2" height="1" fill="#881400"/>
  <rect x="2" y="28" width="2" height="1" fill="#881400"/>
  <rect x="4" y="28" width="4" height="1" fill="#fce0a8"/>
  <rect x="8" y="28" width="2" height="1" fill="#881400"/>
  <rect x="10" y="28" width="8" height="1" fill="#fca044"/>
  <rect x="18" y="28" width="4" height="1" fill="#881400"/>
  <rect x="26" y="28" width="18" height="1" fill="#881400"/>
  <rect x="2" y="29" width="2" height="1" fill="#881400"/>
  <rect x="4" y="29" width="4" height="1" fill="#fce0a8"/>
  <rect x="8" y="29" width="2" height="1" fill="#881400"/>
  <rect x="10" y="29" width="8" height="1" fill="#fca044"/>
  <rect x="18" y="29" width="4" height="1" fill="#881400"/>
  <rect x="26" y="29" width="18" height="1" fill="#881400"/>
  <rect x="4" y="30" width="2" height="1" fill="#881400"/>
  <rect x="6" y="30" width="4" height="1" fill="#fce0a8"/>
  <rect x="10" y="30" width="8" height="1" fill="#881400"/>
  <rect x="28" y="30" width="4" height="1" fill="#881400"/>
  <rect x="32" y="30" width="6" height="1" fill="#fca044"/>
  <rect x="38" y="30" width="2" height="1" fill="#881400"/>
  <rect x="40" y="30" width="2" height="1" fill="#fca044"/>
  <rect x="42" y="30" width="2" height="1" fill="#881400"/>
  <rect x="4" y="31" width="2" height="1" fill="#881400"/>
  <rect x="6" y="31" width="4" height="1" fill="#fce0a8"/>
  <rect x="10" y="31" width="8" height="1" fill="#881400"/>
  <rect x="28" y="31" width="4" height="1" fill="#881400"/>
  <rect x="32" y="31" width="6" height="1" fill="#fca044"/>
  <rect x="38" y="31" width="2" height="1" fill="#881400"/>
  <rect x="40" y="31" width="2" height="1" fill="#fca044"/>
  <rect x="42" y="31" width="2" height="1" fill="#881400"/>
  <rect x="6" y="32" width="6" height="1" fill="#881400"/>
  <rect x="28" y="32" width="2" height="1" fill="#881400"/>
  <rect x="30" y="32" width="4" height="1" fill="#fca044"/>
  <rect x="34" y="32" width="6" height="1" fill="#881400"/>
  <rect x="40" y="32" width="2" height="1" fill="#fca044"/>
  <rect x="42" y="32" width="2" height="1" fill="#881400"/>
  <rect x="6" y="33" width="6" height="1" fill="#881400"/>
  <rect x="28" y="33" width="2" height="1" fill="#881400"/>
  <rect x="30" y="33" width="4" height="1" fill="#fca044"/>
  <rect x="34" y="33" width="6" height="1" fill="#881400"/>
  <rect x="40" y="33" width="2" height="1" fill="#fca044"/>
  <rect x="42" y="33" width="2" height="1" fill="#881400"/>
  <rect x="28" y="34" width="4" height="1" fill="#881400"/>
  <rect x="32" y="34" width="2" height="1" fill="#fca044"/>
  <rect x="34" y="34" width="8" height="1" fill="#881400"/>
  <rect x="28" y="35" width="4" height="1" fill="#881400"/>
  <rect x="32" y="35" width="2" height="1" fill="#fca044"/>
  <rect x="34" y="35" width="8" height="1" fill="#881400"/>
  <rect x="26" y="36" width="2" height="1" fill="#fca044"/>
  <rect x="28" y="36" width="4" height="1" fill="#881400"/>
  <rect x="32" y="36" width="2" height="1" fill="#fca044"/>
  <rect x="34" y="36" width="8" height="1" fill="#881400"/>
  <rect x="26" y="37" width="2" height="1" fill="#fca044"/>
  <rect x="28" y="37" width="4" height="1" fill="#881400"/>
  <rect x="32" y="37" width="2" height="1" fill="#fca044"/>
  <rect x="34" y="37" width="8" height="1" fill="#881400"/>
  <rect x="24" y="38" width="2" height="1" fill="#fca044"/>
  <rect x="26" y="38" width="16" height="1" fill="#881400"/>
  <rect x="24" y="39" width="2" height="1" fill="#fca044"/>
  <rect x="26" y="39" width="16" height="1" fill="#881400"/>
  <rect x="22" y="40" width="2" height="1" fill="#881400"/>
  <rect x="24" y="40" width="4" height="1" fill="#fce0a8"/>
  <rect x="28" y="40" width="4" height="1" fill="#881400"/>
  <rect x="32" y="40" width="6" height="1" fill="#fce0a8"/>
  <rect x="38" y="40" width="2" height="1" fill="#881400"/>
  <rect x="22" y="41" width="2" height="1" fill="#881400"/>
  <rect x="24" y="41" width="4" height="1" fill="#fce0a8"/>
  <rect x="28" y="41" width="4" height="1" fill="#881400"/>
  <rect x="32" y="41" width="6" height="1" fill="#fce0a8"/>
  <rect x="38" y="41" width="2" height="1" fill="#881400"/>
  <rect x="20" y="42" width="2" height="1" fill="#881400"/>
  <rect x="22" y="42" width="6" height="1" fill="#fce0a8"/>
  <rect x="28" y="42" width="4" height="1" fill="#881400"/>
  <rect x="32" y="42" width="6" height="1" fill="#fce0a8"/>
  <rect x="38" y="42" width="2" height="1" fill="#881400"/>
  <rect x="20" y="43" width="2" height="1" fill="#881400"/>
  <rect x="22" y="43" width="6" height="1" fill="#fce0a8"/>
  <rect x="28" y="43" width="4" height="1" fill="#881400"/>
  <rect x="32" y="43" width="6" height="1" fill="#fce0a8"/>
  <rect x="38" y="43" width="2" height="1" fill="#881400"/>
  <rect x="18" y="44" width="4" height="1" fill="#881400"/>
  <rect x="22" y="44" width="4" height="1" fill="#fce0a8"/>
  <rect x="26" y="44" width="2" height="1" fill="#881400"/>
  <rect x="30" y="44" width="4" height="1" fill="#881400"/>
  <rect x="34" y="44" width="4" height="1" fill="#fce0a8"/>
  <rect x="38" y="44" width="2" height="1" fill="#881400"/>
  <rect x="18" y="45" width="4" height="1" fill="#881400"/>
  <rect x="22" y="45" width="4" height="1" fill="#fce0a8"/>
  <rect x="26" y="45" width="2" height="1" fill="#881400"/>
  <rect x="30" y="45" width="4" height="1" fill="#881400"/>
  <rect x="34" y="45" width="4" height="1" fill="#fce0a8"/>
  <rect x="38" y="45" width="2" height="1" fill="#881400"/>
  <rect x="18" y="46" width="2" height="1" fill="#881400"/>
  <rect x="20" y="46" width="2" height="1" fill="#fce0a8"/>
  <rect x="22" y="46" width="4" height="1" fill="#881400"/>
  <rect x="32" y="46" width="2" height="1" fill="#881400"/>
  <rect x="34" y="46" width="2" height="1" fill="#fce0a8"/>
  <rect x="36" y="46" width="4" height="1" fill="#881400"/>
  <rect x="18" y="47" width="2" height="1" fill="#881400"/>
  <rect x="20" y="47" width="2" height="1" fill="#fce0a8"/>
  <rect x="22" y="47" width="4" height="1" fill="#881400"/>
  <rect x="32" y="47" width="2" height="1" fill="#881400"/>
  <rect x="34" y="47" width="2" height="1" fill="#fce0a8"/>
  <rect x="36" y="47" width="4" height="1" fill="#881400"/>
  <rect x="18" y="48" width="8" height="1" fill="#881400"/>
  <rect x="32" y="48" width="6" height="1" fill="#881400"/>
  <rect x="38" y="48" width="2" height="1" fill="#fca044"/>
  <rect x="40" y="48" width="2" height="1" fill="#881400"/>
  <rect x="18" y="49" width="8" height="1" fill="#881400"/>
  <rect x="32" y="49" width="6" height="1" fill="#881400"/>
  <rect x="38" y="49" width="2" height="1" fill="#fca044"/>
  <rect x="40" y="49" width="2" height="1" fill="#881400"/>
  <rect x="18" y="50" width="2" height="1" fill="#881400"/>
  <rect x="20" y="50" width="4" height="1" fill="#fca044"/>
  <rect x="24" y="50" width="2" height="1" fill="#881400"/>
  <rect x="34" y="50" width="2" height="1" fill="#881400"/>
  <rect x="36" y="50" width="4" height="1" fill="#fca044"/>
  <rect x="40" y="50" width="4" height="1" fill="#881400"/>
  <rect x="18" y="51" width="2" height="1" fill="#881400"/>
  <rect x="20" y="51" width="4" height="1" fill="#fca044"/>
  <rect x="24" y="51" width="2" height="1" fill="#881400"/>
  <rect x="34" y="51" width="2" height="1" fill="#881400"/>
  <rect x="36" y="51" width="4" height="1" fill="#fca044"/>
  <rect x="40" y="51" width="4" height="1" fill="#881400"/>
  <rect x="18" y="52" width="2" height="1" fill="#881400"/>
  <rect x="20" y="52" width="4" height="1" fill="#fca044"/>
  <rect x="24" y="52" width="2" height="1" fill="#881400"/>
  <rect x="36" y="52" width="2" height="1" fill="#881400"/>
  <rect x="38" y="52" width="4" height="1" fill="#fca044"/>
  <rect x="42" y="52" width="4" height="1" fill="#881400"/>
  <rect x="18" y="53" width="2" height="1" fill="#881400"/>
  <rect x="20" y="53" width="4" height="1" fill="#fca044"/>
  <rect x="24" y="53" width="2" height="1" fill="#881400"/>
  <rect x="36" y="53" width="2" height="1" fill="#881400"/>
  <rect x="38" y="53" width="4" height="1" fill="#fca044"/>
  <rect x="42" y="53" width="4" height="1" fill="#881400"/>
  <rect x="18" y="54" width="2" height="1" fill="#881400"/>
  <rect x="20" y="54" width="4" height="1" fill="#fca044"/>
  <rect x="24" y="54" width="2" height="1" fill="#881400"/>
  <rect x="38" y="54" width="2" height="1" fill="#881400"/>
  <rect x="40" y="54" width="4" height="1" fill="#fca044"/>
  <rect x="44" y="54" width="2" height="1" fill="#881400"/>
  <rect x="18" y="55" width="2" height="1" fill="#881400"/>
  <rect x="20" y="55" width="4" height="1" fill="#fca044"/>
  <rect x="24" y="55" width="2" height="1" fill="#881400"/>
  <rect x="38" y="55" width="2" height="1" fill="#881400"/>
  <rect x="40" y="55" width="4" height="1" fill="#fca044"/>
  <rect x="44" y="55" width="2" height="1" fill="#881400"/>
  <rect x="18" y="56" width="2" height="1" fill="#881400"/>
  <rect x="20" y="56" width="2" height="1" fill="#fca044"/>
  <rect x="22" y="56" width="2" height="1" fill="#881400"/>
  <rect x="38" y="56" width="2" height="1" fill="#881400"/>
  <rect x="40" y="56" width="4" height="1" fill="#fca044"/>
  <rect x="44" y="56" width="2" height="1" fill="#881400"/>
  <rect x="18" y="57" width="2" height="1" fill="#881400"/>
  <rect x="20" y="57" width="2" height="1" fill="#fca044"/>
  <rect x="22" y="57" width="2" height="1" fill="#881400"/>
  <rect x="38" y="57" width="2" height="1" fill="#881400"/>
  <rect x="40" y="57" width="4" height="1" fill="#fca044"/>
  <rect x="44" y="57" width="2" height="1" fill="#881400"/>
  <rect x="14" y="58" width="4" height="1" fill="#881400"/>
  <rect x="18" y="58" width="6" height="1" fill="#fca044"/>
  <rect x="24" y="58" width="2" height="1" fill="#881400"/>
  <rect x="38" y="58" width="2" height="1" fill="#881400"/>
  <rect x="40" y="58" width="4" height="1" fill="#fca044"/>
  <rect x="44" y="58" width="2" height="1" fill="#881400"/>
  <rect x="14" y="59" width="4" height="1" fill="#881400"/>
  <rect x="18" y="59" width="6" height="1" fill="#fca044"/>
  <rect x="24" y="59" width="2" height="1" fill="#881400"/>
  <rect x="38" y="59" width="2" height="1" fill="#881400"/>
  <rect x="40" y="59" width="4" height="1" fill="#fca044"/>
  <rect x="44" y="59" width="2" height="1" fill="#881400"/>
  <rect x="14" y="60" width="2" height="1" fill="#881400"/>
  <rect x="16" y="60" width="8" height="1" fill="#fca044"/>
  <rect x="24" y="60" width="2" height="1" fill="#881400"/>
  <rect x="36" y="60" width="2" height="1" fill="#881400"/>
  <rect x="38" y="60" width="6" height="1" fill="#fca044"/>
  <rect x="44" y="60" width="2" height="1" fill="#881400"/>
  <rect x="14" y="61" width="2" height="1" fill="#881400"/>
  <rect x="16" y="61" width="8" height="1" fill="#fca044"/>
  <rect x="24" y="61" width="2" height="1" fill="#881400"/>
  <rect x="36" y="61" width="2" height="1" fill="#881400"/>
  <rect x="38" y="61" width="6" height="1" fill="#fca044"/>
  <rect x="44" y="61" width="2" height="1" fill="#881400"/>
  <rect x="14" y="62" width="12" height="1" fill="#881400"/>
  <rect x="36" y="62" width="10" height="1" fill="#881400"/>
  <rect x="14" y="63" width="12" height="1" fill="#881400"/>
  <rect x="36" y="63" width="10" height="1" fill="#881400"/>
</g>
  <animate xlink:href="#frame0" attributeName="opacity" values="1;0;0;0" keyTimes="0.0;0.333333;0.666667;1.0" dur="0.3s" calcMode="discrete" repeatCount="1" fill="freeze"/>
  <animate xlink:href="#frame1" attributeName="opacity" values="0;1;0;0" keyTimes="0.0;0.333333;0.666667;1.0" dur="0.3s" calcMode="discrete" repeatCount="1" fill="freeze"/>
  <animate xlink:href="#frame2" attributeName="opacity" values="0;0;1;1" keyTimes="0.0;0.333333;0.666667;1.0" dur="0.3s" calcMode="discrete" repeatCount="1" fill="freeze"/>
</svg>
