<svg xmlns="http://www.w3.org/2000/svg" xmlns:xlink="http://www.w3.org/1999/xlink"
     viewBox="0 0 64 32" width="64" height="32"
     shape-rendering="crispEdges">
<g id="frame0" opacity="1">
  <rect x="0" y="0" width="64" height="1" fill="#fca044"/>
  <rect x="0" y="1" width="64" height="1" fill="#fca044"/>
  <rect x="0" y="2" width="64" height="1" fill="#fca044"/>
  <rect x="0" y="3" width="64" height="1" fill="#fca044"/>
  <rect x="0" y="4" width="64" height="1" fill="#e40058"/>
  <rect x="0" y="5" width="64" height="1" fill="#e40058"/>
  <rect x="0" y="6" width="64" height="1" fill="#a80020"/>
  <rect x="0" y="7" width="64" height="1" fill="#a80020"/>
  <rect x="0" y="8" width="64" height="1" fill="#000000"/>
  <rect x="0" y="9" width="64" height="1" fill="#000000"/>
  <rect x="0" y="10" width="2" height="1" fill="#000000"/>
  <rect x="2" y="10" width="2" height="1" fill="#a80020"/>
  <rect x="4" y="10" width="4" height="1" fill="#000000"/>
  <rect x="8" y="10" width="6" height="1" fill="#a80020"/>
  <rect x="14" y="10" width="4" height="1" fill="#000000"/>
  <rect x="18" y="10" width="6" height="1" fill="#a80020"/>
  <rect x="24" y="10" width="4" height="1" fill="#000000"/>
  <rect x="28" y="10" width="2" height="1" fill="#a80020"/>
  <rect x="30" y="10" width="4" height="1" fill="#000000"/>
  <rect x="34" y="10" width="2" height="1" fill="#a80020"/>
  <rect x="36" y="10" width="4" height="1" fill="#000000"/>
  <rect x="40" y="10" width="6" height="1" fill="#a80020"/>
  <rect x="46" y="10" width="4" height="1" fill="#000000"/>
  <rect x="50" y="10" width="6" height="1" fill="#a80020"/>
  <rect x="56" y="10" width="4" height="1" fill="#000000"/>
  <rect x="60" y="10" width="2" height="1" fill="#a80020"/>
  <rect x="62" y="10" width="2" height="1" fill="#000000"/>
  <rect x="0" y="11" width="2" height="1" fill="#000000"/>
  <rect x="2" y="11" width="2" height="1" fill="#a80020"/>
  <rect x="4" y="11" width="4" height="1" fill="#000000"/>
  <rect x="8" y="11" width="6" height="1" fill="#a80020"/>
  <rect x="14" y="11" width="4" height="1" fill="#000000"/>
  <rect x="18" y="11" width="6" height="1" fill="#a80020"/>
  <rect x="24" y="11" width="4" height="1" fill="#000000"/>
  <rect x="28" y="11" width="2" height="1" fill="#a80020"/>
  <rect x="30" y="11" width="4" height="1" fill="#000000"/>
  <rect x="34" y="11" width="2" height="1" fill="#a80020"/>
  <rect x="36" y="11" width="4" height="1" fill="#000000"/>
  <rect x="40" y="11" width="6" height="1" fill="#a80020"/>
  <rect x="46" y="11" width="4" height="1" fill="#000000"/>
  <rect x="50" y="11" width="6" height="1" fill="#a80020"/>
  <rect x="56" y="11" width="4" height="1" fill="#000000"/>
  <rect x="60" y="11" width="2" height="1" fill="#a80020"/>
  <rect x="62" y="11" width="2" height="1" fill="#000000"/>
  <rect x="0" y="12" width="4" height="1" fill="#a80020"/>
  <rect x="4" y="12" width="6" height="1" fill="#000000"/>
  <rect x="10" y="12" width="2" height="1" fill="#a80020"/>
  <rect x="12" y="12" width="2" height="1" fill="#000000"/>
  <rect x="14" y="12" width="4" height="1" fill="#a80020"/>
  <rect x="18" y="12" width="2" height="1" fill="#000000"/>
  <rect x="20" y="12" width="2" height="1" fill="#a80020"/>
  <rect x="22" y="12" width="6" height="1" fill="#000000"/>
  <rect x="28" y="12" width="8" height="1" fill="#a80020"/>
  <rect x="36" y="12" width="6" height="1" fill="#000000"/>
  <rect x="42" y="12" width="2" height="1" fill="#a80020"/>
  <rect x="44" y="12" width="2" height="1" fill="#000000"/>
  <rect x="46" y="12" width="4" height="1" fill="#a80020"/>
  <rect x="50" y="12" width="2" height="1" fill="#000000"/>
  <rect x="52" y="12" width="2" height="1" fill="#a80020"/>
  <rect x="54" y="12" width="6" height="1" fill="#000000"/>
  <rect x="60" y="12" width="4" height="1" fill="#a80020"/>
  <rect x="0" y="13" width="4" height="1" fill="#a80020"/>
  <rect x="4" y="13" width="6" height="1" fill="#000000"/>
  <rect x="10" y="13" width="2" height="1" fill="#a80020"/>
  <rect x="12" y="13" width="2" height="1" fill="#000000"/>
  <rect x="14" y="13" width="4" height="1" fill="#a80020"/>
  <rect x="18" y="13" width="2" height="1" fill="#000000"/>
  <rect x="20" y="13" width="2" height="1" fill="#a80020"/>
  <rect x="22" y="13" width="6" height="1" fill="#000000"/>
  <rect x="28" y="13" width="8" height="1" fill="#a80020"/>
  <rect x="36" y="13" width="6" height="1" fill="#000000"/>
  <rect x="42" y="13" width="2" height="1" fill="#a80020"/>
  <rect x="44" y="13" width="2" height="1" fill="#000000"/>
  <rect x="46" y="13" width="4" height="1" fill="#a80020"/>
  <rect x="50" y="13" width="2" height="1" fill="#000000"/>
  <rect x="52" y="13" width="2" height="1" fill="#a80020"/>
  <rect x="54" y="13" width="6" height="1" fill="#000000"/>
  <rect x="60" y="13" width="4" height="1" fill="#a80020"/>
  <rect x="0" y="14" width="4" height="1" fill="#e40058"/>
  <rect x="4" y="14" width="8" height="1" fill="#000000"/>
  <rect x="12" y="14" width="2" height="1" fill="#a80020"/>
  <rect x="14" y="14" width="2" height="1" fill="#fca044"/>
  <rect x="16" y="14" width="2" height="1" fill="#000000"/>
  <rect x="18" y="14" width="2" height="1" fill="#a80020"/>
  <rect x="20" y="14" width="8" height="1" fill="#000000"/>
  <rect x="28" y="14" width="8" height="1" fill="#e40058"/>
  <rect x="36" y="14" width="8" height="1" fill="#000000"/>
  <rect x="44" y="14" width="2" height="1" fill="#a80020"/>
  <rect x="46" y="14" width="2" height="1" fill="#fca044"/>
  <rect x="48" y="14" width="2" height="1" fill="#000000"/>
  <rect x="50" y="14" width="2" height="1" fill="#a80020"/>
  <rect x="52" y="14" width="8" height="1" fill="#000000"/>
  <rect x="60" y="14" width="4" height="1" fill="#e40058"/>
  <rect x="0" y="15" width="4" height="1" fill="#e40058"/>
  <rect x="4" y="15" width="8" height="1" fill="#000000"/>
  <rect x="12" y="15" width="2" height="1" fill="#a80020"/>
  <rect x="14" y="15" width="2" height="1" fill="#fca044"/>
  <rect x="16" y="15" width="2" height="1" fill="#000000"/>
  <rect x="18" y="15" width="2" height="1" fill="#a80020"/>
  <rect x="20" y="15" width="8" height="1" fill="#000000"/>
  <rect x="28" y="15" width="8" height="1" fill="#e40058"/>
  <rect x="36" y="15" width="8" height="1" fill="#000000"/>
  <rect x="44" y="15" width="2" height="1" fill="#a80020"/>
  <rect x="46" y="15" width="2" height="1" fill="#fca044"/>
  <rect x="48" y="15" width="2" height="1" fill="#000000"/>
  <rect x="50" y="15" width="2" height="1" fill="#a80020"/>
  <rect x="52" y="15" width="8" height="1" fill="#000000"/>
  <rect x="60" y="15" width="4" height="1" fill="#e40058"/>
  <rect x="0" y="16" width="2" height="1" fill="#000000"/>
  <rect x="2" y="16" width="2" height="1" fill="#e40058"/>
  <rect x="4" y="16" width="8" height="1" fill="#000000"/>
  <rect x="12" y="16" width="2" height="1" fill="#a80020"/>
  <rect x="14" y="16" width="4" height="1" fill="#000000"/>
  <rect x="18" y="16" width="2" height="1" fill="#a80020"/>
  <rect x="20" y="16" width="8" height="1" fill="#000000"/>
  <rect x="28" y="16" width="2" height="1" fill="#e40058"/>
  <rect x="30" y="16" width="4" height="1" fill="#000000"/>
  <rect x="34" y="16" width="2" height="1" fill="#e40058"/>
  <rect x="36" y="16" width="8" height="1" fill="#000000"/>
  <rect x="44" y="16" width="2" height="1" fill="#a80020"/>
  <rect x="46" y="16" width="4" height="1" fill="#000000"/>
  <rect x="50" y="16" width="2" height="1" fill="#a80020"/>
  <rect x="52" y="16" width="8" height="1" fill="#000000"/>
  <rect x="60" y="16" width="2" height="1" fill="#e40058"/>
  <rect x="62" y="16" width="2" height="1" fill="#000000"/>
  <rect x="0" y="17" width="2" height="1" fill="#000000"/>
  <rect x="2" y="17" width="2" height="1" fill="#e40058"/>
  <rect x="4" y="17" width="8" height="1" fill="#000000"/>
  <rect x="12" y="17" width="2" height="1" fill="#a80020"/>
  <rect x="14" y="17" width="4" height="1" fill="#000000"/>
  <rect x="18" y="17" width="2" height="1" fill="#a80020"/>
  <rect x="20" y="17" width="8" height="1" fill="#000000"/>
  <rect x="28" y="17" width="2" height="1" fill="#e40058"/>
  <rect x="30" y="17" width="4" height="1" fill="#000000"/>
  <rect x="34" y="17" width="2" height="1" fill="#e40058"/>
  <rect x="36" y="17" width="8" height="1" fill="#000000"/>
  <rect x="44" y="17" width="2" height="1" fill="#a80020"/>
  <rect x="46" y="17" width="4" height="1" fill="#000000"/>
  <rect x="50" y="17" width="2" height="1" fill="#a80020"/>
  <rect x="52" y="17" width="8" height="1" fill="#000000"/>
  <rect x="60" y="17" width="2" height="1" fill="#e40058"/>
  <rect x="62" y="17" width="2" height="1" fill="#000000"/>
  <rect x="0" y="18" width="2" height="1" fill="#000000"/>
  <rect x="2" y="18" width="2" height="1" fill="#e40058"/>
  <rect x="4" y="18" width="6" height="1" fill="#000000"/>
  <rect x="10" y="18" width="2" height="1" fill="#e40058"/>
  <rect x="12" y="18" width="2" height="1" fill="#000000"/>
  <rect x="14" y="18" width="4" height="1" fill="#a80020"/>
  <rect x="18" y="18" width="2" height="1" fill="#000000"/>
  <rect x="20" y="18" width="2" height="1" fill="#e40058"/>
  <rect x="22" y="18" width="6" height="1" fill="#000000"/>
  <rect x="28" y="18" width="2" height="1" fill="#e40058"/>
  <rect x="30" y="18" width="4" height="1" fill="#000000"/>
  <rect x="34" y="18" width="2" height="1" fill="#e40058"/>
  <rect x="36" y="18" width="6" height="1" fill="#000000"/>
  <rect x="42" y="18" width="2" height="1" fill="#e40058"/>
  <rect x="44" y="18" width="2" height="1" fill="#000000"/>
  <rect x="46" y="18" width="4" height="1" fill="#a80020"/>
  <rect x="50" y="18" width="2" height="1" fill="#000000"/>
  <rect x="52" y="18" width="2" height="1" fill="#e40058"/>
  <rect x="54" y="18" width="6" height="1" fill="#000000"/>
  <rect x="60" y="18" width="2" height="1" fill="#e40058"/>
  <rect x="62" y="18" width="2" height="1" fill="#000000"/>
  <rect x="0" y="19" width="2" height="1" fill="#000000"/>
  <rect x="2" y="19" width="2" height="1" fill="#e40058"/>
  <rect x="4" y="19" width="6" height="1" fill="#000000"/>
  <rect x="10" y="19" width="2" height="1" fill="#e40058"/>
  <rect x="12" y="19" width="2" height="1" fill="#000000"/>
  <rect x="14" y="19" width="4" height="1" fill="#a80020"/>
  <rect x="18" y="19" width="2" height="1" fill="#000000"/>
  <rect x="20" y="19" width="2" height="1" fill="#e40058"/>
  <rect x="22" y="19" width="6" height="1" fill="#000000"/>
  <rect x="28" y="19" width="2" height="1" fill="#e40058"/>
  <rect x="30" y="19" width="4" height="1" fill="#000000"/>
  <rect x="34" y="19" width="2" height="1" fill="#e40058"/>
  <rect x="36" y="19" width="6" height="1" fill="#000000"/>
  <rect x="42" y="19" width="2" height="1" fill="#e40058"/>
  <rect x="44" y="19" width="2" height="1" fill="#000000"/>
  <rect x="46" y="19" width="4" height="1" fill="#a80020"/>
  <rect x="50" y="19" width="2" height="1" fill="#000000"/>
  <rect x="52" y="19" width="2" height="1" fill="#e40058"/>
  <rect x="54" y="19" width="6" height="1" fill="#000000"/>
  <rect x="60" y="19" width="2" height="1" fill="#e40058"/>
  <rect x="62" y="19" width="2" height="1" fill="#000000"/>
  <rect x="0" y="20" width="2" height="1" fill="#000000"/>
  <rect x="2" y="20" width="2" height="1" fill="#e40058"/>
  <rect x="4" y="20" width="4" height="1" fill="#000000"/>
  <rect x="8" y="20" width="6" height="1" fill="#e40058"/>
  <rect x="14" y="20" width="4" height="1" fill="#000000"/>
  <rect x="18" y="20" width="6" height="1" fill="#e40058"/>
  <rect x="24" y="20" width="4" height="1" fill="#000000"/>
  <rect x="28" y="20" width="2" height="1" fill="#e40058"/>
  <rect x="30" y="20" width="4" height="1" fill="#000000"/>
  <rect x="34" y="20" width="2" height="1" fill="#e40058"/>
  <rect x="36" y="20" width="4" height="1" fill="#000000"/>
  <rect x="40" y="20" width="6" height="1" fill="#e40058"/>
  <rect x="46" y="20" width="4" height="1" fill="#000000"/>
  <rect x="50" y="20" width="6" height="1" fill="#e40058"/>
  <rect x="56" y="20" width="4" height="1" fill="#000000"/>
  <rect x="60" y="20" width="2" height="1" fill="#e40058"/>
  <rect x="62" y="20" width="2" height="1" fill="#000000"/>
  <rect x="0" y="21" width="2" height="1" fill="#000000"/>
  <rect x="2" y="21" width="2" height="1" fill="#e40058"/>
  <rect x="4" y="21" width="4" height="1" fill="#000000"/>
  <rect x="8" y="21" width="6" height="1" fill="#e40058"/>
  <rect x="14" y="21" width="4" height="1" fill="#000000"/>
  <rect x="18" y="21" width="6" height="1" fill="#e40058"/>
  <rect x="24" y="21" width="4" height="1" fill="#000000"/>
  <rect x="28" y="21" width="2" height="1" fill="#e40058"/>
  <rect x="30" y="21" width="4" height="1" fill="#000000"/>
  <rect x="34" y="21" width="2" height="1" fill="#e40058"/>
  <rect x="36" y="21" width="4" height="1" fill="#000000"/>
  <rect x="40" y="21" width="6" height="1" fill="#e40058"/>
  <rect x="46" y="21" width="4" height="1" fill="#000000"/>
  <rect x="50" y="21" width="6" height="1" fill="#e40058"/>
  <rect x="56" y="21" width="4" height="1" fill="#000000"/>
  <rect x="60" y="21" width="2" height="1" fill="#e40058"/>
  <rect x="62" y="21" width="2" height="1" fill="#000000"/>
  <rect x="0" y="22" width="4" height="1" fill="#e40058"/>
  <rect x="4" y="22" width="2" height="1" fill="#000000"/>
  <rect x="6" y="22" width="6" height="1" fill="#e40058"/>
  <rect x="12" y="22" width="8" height="1" fill="#000000"/>
  <rect x="20" y="22" width="6" height="1" fill="#e40058"/>
  <rect x="26" y="22" width="2" height="1" fill="#000000"/>
  <rect x="28" y="22" width="8" height="1" fill="#e40058"/>
  <rect x="36" y="22" width="2" height="1" fill="#000000"/>
  <rect x="38" y="22" width="6" height="1" fill="#e40058"/>
  <rect x="44" y="22" width="8" height="1" fill="#000000"/>
  <rect x="52" y="22" width="6" height="1" fill="#e40058"/>
  <rect x="58" y="22" width="2" height="1" fill="#000000"/>
  <rect x="60" y="22" width="4" height="1" fill="#e40058"/>
  <rect x="0" y="23" width="4" height="1" fill="#e40058"/>
  <rect x="4" y="23" width="2" height="1" fill="#000000"/>
  <rect x="6" y="23" width="6" height="1" fill="#e40058"/>
  <rect x="12" y="23" width="8" height="1" fill="#000000"/>
  <rect x="20" y="23" width="6" height="1" fill="#e40058"/>
  <rect x="26" y="23" width="2" height="1" fill="#000000"/>
  <rect x="28" y="23" width="8" height="1" fill="#e40058"/>
  <rect x="36" y="23" width="2" height="1" fill="#000000"/>
  <rect x="38" y="23" width="6" height="1" fill="#e40058"/>
  <rect x="44" y="23" width="8" height="1" fill="#000000"/>
  <rect x="52" y="23" width="6" height="1" fill="#e40058"/>
  <rect x="58" y="23" width="2" height="1" fill="#000000"/>
  <rect x="60" y="23" width="4" height="1" fill="#e40058"/>
  <rect x="0" y="24" width="64" height="1" fill="#000000"/>
  <rect x="0" y="25" width="64" height="1" fill="#000000"/>
  <rect x="0" y="26" width="64" height="1" fill="#fca044"/>
  <rect x="0" y="27" width="64" height="1" fill="#fca044"/>
  <rect x="0" y="28" width="64" height="1" fill="#e40058"/>
  <rect x="0" y="29" width="64" height="1" fill="#e40058"/>
  <rect x="0" y="30" width="64" height="1" fill="#a80020"/>
  <rect x="0" y="31" width="64" height="1" fill="#a80020"/>
</g>
</svg>
