<svg xmlns="http://www.w3.org/2000/svg" xmlns:xlink="http://www.w3.org/1999/xlink"
     viewBox="0 0 44 48" width="44" height="48"
     shape-rendering="crispEdges">
<g id="frame0" opacity="1">
  <rect x="16" y="6" width="10" height="1" fill="#ac7c00"/>
  <rect x="16" y="7" width="10" height="1" fill="#ac7c00"/>
  <rect x="14" y="8" width="14" height="1" fill="#ac7c00"/>
  <rect x="14" y="9" width="14" height="1" fill="#ac7c00"/>
  <rect x="14" y="10" width="2" height="1" fill="#ac7c00"/>
  <rect x="16" y="10" width="2" height="1" fill="#f0d0b0"/>
  <rect x="24" y="10" width="2" height="1" fill="#f0d0b0"/>
  <rect x="26" y="10" width="4" height="1" fill="#ac7c00"/>
  <rect x="14" y="11" width="2" height="1" fill="#ac7c00"/>
  <rect x="16" y="11" width="2" height="1" fill="#f0d0b0"/>
  <rect x="24" y="11" width="2" height="1" fill="#f0d0b0"/>
  <rect x="26" y="11" width="4" height="1" fill="#ac7c00"/>
  <rect x="16" y="12" width="4" height="1" fill="#f0d0b0"/>
  <rect x="22" y="12" width="4" height="1" fill="#f0d0b0"/>
  <rect x="26" y="12" width="4" height="1" fill="#ac7c00"/>
  <rect x="16" y="13" width="4" height="1" fill="#f0d0b0"/>
  <rect x="22" y="13" width="4" height="1" fill="#f0d0b0"/>
  <rect x="26" y="13" width="4" height="1" fill="#ac7c00"/>
  <rect x="16" y="14" width="8" height="1" fill="#f0d0b0"/>
  <rect x="24" y="14" width="2" height="1" fill="#ac7c00"/>
  <rect x="26" y="14" width="2" height="1" fill="#f0d0b0"/>
  <rect x="16" y="15" width="8" height="1" fill="#f0d0b0"/>
  <rect x="24" y="15" width="2" height="1" fill="#ac7c00"/>
  <rect x="26" y="15" width="2" height="1" fill="#f0d0b0"/>
  <rect x="16" y="16" width="8" height="1" fill="#ac7c00"/>
  <rect x="30" y="16" width="4" height="1" fill="#ac7c00"/>
  <rect x="16" y="17" width="8" height="1" fill="#ac7c00"/>
  <rect x="30" y="17" width="4" height="1" fill="#ac7c00"/>
  <rect x="6" y="18" width="4" height="1" fill="#f0d0b0"/>
  <rect x="14" y="18" width="8" height="1" fill="#ac7c00"/>
  <rect x="24" y="18" width="10" height="1" fill="#f0d0b0"/>
  <rect x="34" y="18" width="2" height="1" fill="#ac7c00"/>
  <rect x="6" y="19" width="4" height="1" fill="#f0d0b0"/>
  <rect x="14" y="19" width="8" height="1" fill="#ac7c00"/>
  <rect x="24" y="19" width="10" height="1" fill="#f0d0b0"/>
  <rect x="34" y="19" width="2" height="1" fill="#ac7c00"/>
  <rect x="6" y="20" width="2" height="1" fill="#f0d0b0"/>
  <rect x="8" y="20" width="2" height="1" fill="#ac7c00"/>
  <rect x="12" y="20" width="10" height="1" fill="#ac7c00"/>
  <rect x="22" y="20" width="14" height="1" fill="#f0d0b0"/>
  <rect x="36" y="20" width="2" height="1" fill="#ac7c00"/>
  <rect x="6" y="21" width="2" height="1" fill="#f0d0b0"/>
  <rect x="8" y="21" width="2" height="1" fill="#ac7c00"/>
  <rect x="12" y="21" width="10" height="1" fill="#ac7c00"/>
  <rect x="22" y="21" width="14" height="1" fill="#f0d0b0"/>
  <rect x="36" y="21" width="2" height="1" fill="#ac7c00"/>
  <rect x="8" y="22" width="4" height="1" fill="#f0d0b0"/>
  <rect x="12" y="22" width="2" height="1" fill="#ac7c00"/>
  <rect x="14" y="22" width="4" height="1" fill="#f0d0b0"/>
  <rect x="18" y="22" width="2" height="1" fill="#ac7c00"/>
  <rect x="20" y="22" width="8" height="1" fill="#f0d0b0"/>
  <rect x="34" y="22" width="2" height="1" fill="#ac7c00"/>
  <rect x="36" y="22" width="2" height="1" fill="#f0d0b0"/>
  <rect x="8" y="23" width="4" height="1" fill="#f0d0b0"/>
  <rect x="12" y="23" width="2" height="1" fill="#ac7c00"/>
  <rect x="14" y="23" width="4" height="1" fill="#f0d0b0"/>
  <rect x="18" y="23" width="2" height="1" fill="#ac7c00"/>
  <rect x="20" y="23" width="8" height="1" fill="#f0d0b0"/>
  <rect x="34" y="23" width="2" height="1" fill="#ac7c00"/>
  <rect x="36" y="23" width="2" height="1" fill="#f0d0b0"/>
  <rect x="8" y="24" width="2" height="1" fill="#f0d0b0"/>
  <rect x="10" y="24" width="2" height="1" fill="#ac7c00"/>
  <rect x="14" y="24" width="12" height="1" fill="#f0d0b0"/>
  <rect x="26" y="24" width="2" height="1" fill="#ac7c00"/>
  <rect x="32" y="24" width="2" height="1" fill="#ac7c00"/>
  <rect x="34" y="24" width="4" height="1" fill="#f0d0b0"/>
  <rect x="8" y="25" width="2" height="1" fill="#f0d0b0"/>
  <rect x="10" y="25" width="2" height="1" fill="#ac7c00"/>
  <rect x="14" y="25" width="12" height="1" fill="#f0d0b0"/>
  <rect x="26" y="25" width="2" height="1" fill="#ac7c00"/>
  <rect x="32" y="25" width="2" height="1" fill="#ac7c00"/>
  <rect x="34" y="25" width="4" height="1" fill="#f0d0b0"/>
  <rect x="14" y="26" width="2" height="1" fill="#ac7c00"/>
  <rect x="16" y="26" width="2" height="1" fill="#f0d0b0"/>
  <rect x="18" y="26" width="2" height="1" fill="#ac7c00"/>
  <rect x="20" y="26" width="6" height="1" fill="#f0d0b0"/>
  <rect x="26" y="26" width="2" height="1" fill="#ac7c00"/>
  <rect x="30" y="26" width="2" height="1" fill="#ac7c00"/>
  <rect x="32" y="26" width="4" height="1" fill="#f0d0b0"/>
  <rect x="14" y="27" width="2" height="1" fill="#ac7c00"/>
  <rect x="16" y="27" width="2" height="1" fill="#f0d0b0"/>
  <rect x="18" y="27" width="2" height="1" fill="#ac7c00"/>
  <rect x="20" y="27" width="6" height="1" fill="#f0d0b0"/>
  <rect x="26" y="27" width="2" height="1" fill="#ac7c00"/>
  <rect x="30" y="27" width="2" height="1" fill="#ac7c00"/>
  <rect x="32" y="27" width="4" height="1" fill="#f0d0b0"/>
  <rect x="16" y="28" width="2" height="1" fill="#ac7c00"/>
  <rect x="18" y="28" width="2" height="1" fill="#f0d0b0"/>
  <rect x="20" y="28" width="2" height="1" fill="#ac7c00"/>
  <rect x="22" y="28" width="4" height="1" fill="#f0d0b0"/>
  <rect x="26" y="28" width="2" height="1" fill="#ac7c00"/>
  <rect x="30" y="28" width="4" height="1" fill="#f0d0b0"/>
  <rect x="16" y="29" width="2" height="1" fill="#ac7c00"/>
  <rect x="18" y="29" width="2" height="1" fill="#f0d0b0"/>
  <rect x="20" y="29" width="2" height="1" fill="#ac7c00"/>
  <rect x="22" y="29" width="4" height="1" fill="#f0d0b0"/>
  <rect x="26" y="29" width="2" height="1" fill="#ac7c00"/>
  <rect x="30" y="29" width="4" height="1" fill="#f0d0b0"/>
  <rect x="16" y="30" width="12" height="1" fill="#f83800"/>
  <rect x="16" y="31" width="12" height="1" fill="#f83800"/>
  <rect x="18" y="32" width="2" height="1" fill="#f83800"/>
  <rect x="20" y="32" width="4" height="1" fill="#f0d0b0"/>
  <rect x="24" y="32" width="2" height="1" fill="#ac7c00"/>
  <rect x="18" y="33" width="2" height="1" fill="#f83800"/>
  <rect x="20" y="33" width="4" height="1" fill="#f0d0b0"/>
  <rect x="24" y="33" width="2" height="1" fill="#ac7c00"/>
  <rect x="18" y="34" width="4" height="1" fill="#f0d0b0"/>
  <rect x="22" y="34" width="2" height="1" fill="#ac7c00"/>
  <rect x="26" y="34" width="2" height="1" fill="#f0d0b0"/>
  <rect x="18" y="35" width="4" height="1" fill="#f0d0b0"/>
  <rect x="22" y="35" width="2" height="1" fill="#ac7c00"/>
  <rect x="26" y="35" width="2" height="1" fill="#f0d0b0"/>
  <rect x="18" y="36" width="2" height="1" fill="#f0d0b0"/>
  <rect x="20" y="36" width="2" height="1" fill="#ac7c00"/>
  <rect x="24" y="36" width="6" height="1" fill="#f0d0b0"/>
  <rect x="18" y="37" width="2" height="1" fill="#f0d0b0"/>
  <rect x="20" y="37" width="2" height="1" fill="#ac7c00"/>
  <rect x="24" y="37" width="6" height="1" fill="#f0d0b0"/>
  <rect x="18" y="38" width="4" height="1" fill="#f0d0b0"/>
  <rect x="28" y="38" width="2" height="1" fill="#f0d0b0"/>
  <rect x="18" y="39" width="4" height="1" fill="#f0d0b0"/>
  <rect x="28" y="39" width="2" height="1" fill="#f0d0b0"/>
  <rect x="14" y="40" width="2" height="1" fill="#ac7c00"/>
  <rect x="16" y="40" width="6" height="1" fill="#f0d0b0"/>
  <rect x="14" y="41" width="2" height="1" fill="#ac7c00"/>
  <rect x="16" y="41" width="6" height="1" fill="#f0d0b0"/>
  <rect x="18" y="42" width="4" height="1" fill="#ac7c00"/>
  <rect x="18" y="43" width="4" height="1" fill="#ac7c00"/>
</g>
<g id="frame1" opacity="0">
  <rect x="16" y="4" width="10" height="1" fill="#ac7c00"/>
  <rect x="16" y="5" width="10" height="1" fill="#ac7c00"/>
  <rect x="14" y="6" width="14" height="1" fill="#ac7c00"/>
  <rect x="14" y="7" width="14" height="1" fill="#ac7c00"/>
  <rect x="14" y="8" width="2" height="1" fill="#ac7c00"/>
  <rect x="16" y="8" width="2" height="1" fill="#f0d0b0"/>
  <rect x="24" y="8" width="2" height="1" fill="#f0d0b0"/>
  <rect x="26" y="8" width="4" height="1" fill="#ac7c00"/>
  <rect x="14" y="9" width="2" height="1" fill="#ac7c00"/>
  <rect x="16" y="9" width="2" height="1" fill="#f0d0b0"/>
  <rect x="24" y="9" width="2" height="1" fill="#f0d0b0"/>
  <rect x="26" y="9" width="4" height="1" fill="#ac7c00"/>
  <rect x="16" y="10" width="4" height="1" fill="#f0d0b0"/>
  <rect x="22" y="10" width="4" height="1" fill="#f0d0b0"/>
  <rect x="26" y="10" width="4" height="1" fill="#ac7c00"/>
  <rect x="16" y="11" width="4" height="1" fill="#f0d0b0"/>
  <rect x="22" y="11" width="4" height="1" fill="#f0d0b0"/>
  <rect x="26" y="11" width="4" height="1" fill="#ac7c00"/>
  <rect x="16" y="12" width="8" height="1" fill="#f0d0b0"/>
  <rect x="24" y="12" width="2" height="1" fill="#ac7c00"/>
  <rect x="26" y="12" width="2" height="1" fill="#f0d0b0"/>
  <rect x="16" y="13" width="8" height="1" fill="#f0d0b0"/>
  <rect x="24" y="13" width="2" height="1" fill="#ac7c00"/>
  <rect x="26" y="13" width="2" height="1" fill="#f0d0b0"/>
  <rect x="16" y="14" width="8" height="1" fill="#ac7c00"/>
  <rect x="16" y="15" width="8" height="1" fill="#ac7c00"/>
  <rect x="14" y="16" width="8" height="1" fill="#ac7c00"/>
  <rect x="24" y="16" width="2" height="1" fill="#ac7c00"/>
  <rect x="26" y="16" width="6" height="1" fill="#f0d0b0"/>
  <rect x="14" y="17" width="8" height="1" fill="#ac7c00"/>
  <rect x="24" y="17" width="2" height="1" fill="#ac7c00"/>
  <rect x="26" y="17" width="6" height="1" fill="#f0d0b0"/>
  <rect x="14" y="18" width="6" height="1" fill="#ac7c00"/>
  <rect x="22" y="18" width="12" height="1" fill="#f0d0b0"/>
  <rect x="14" y="19" width="6" height="1" fill="#ac7c00"/>
  <rect x="22" y="19" width="12" height="1" fill="#f0d0b0"/>
  <rect x="14" y="20" width="4" height="1" fill="#ac7c00"/>
  <rect x="18" y="20" width="8" height="1" fill="#f0d0b0"/>
  <rect x="26" y="20" width="2" height="1" fill="#ac7c00"/>
  <rect x="30" y="20" width="4" height="1" fill="#f0d0b0"/>
  <rect x="14" y="21" width="4" height="1" fill="#ac7c00"/>
  <rect x="18" y="21" width="8" height="1" fill="#f0d0b0"/>
  <rect x="26" y="21" width="2" height="1" fill="#ac7c00"/>
  <rect x="30" y="21" width="4" height="1" fill="#f0d0b0"/>
  <rect x="14" y="22" width="2" height="1" fill="#f0d0b0"/>
  <rect x="16" y="22" width="2" height="1" fill="#ac7c00"/>
  <rect x="18" y="22" width="8" height="1" fill="#f0d0b0"/>
  <rect x="26" y="22" width="2" height="1" fill="#ac7c00"/>
  <rect x="32" y="22" width="4" height="1" fill="#f0d0b0"/>
  <rect x="14" y="23" width="2" height="1" fill="#f0d0b0"/>
  <rect x="16" y="23" width="2" height="1" fill="#ac7c00"/>
  <rect x="18" y="23" width="8" height="1" fill="#f0d0b0"/>
  <rect x="26" y="23" width="2" height="1" fill="#ac7c00"/>
  <rect x="32" y="23" width="4" height="1" fill="#f0d0b0"/>
  <rect x="14" y="24" width="2" height="1" fill="#f0d0b0"/>
  <rect x="16" y="24" width="2" height="1" fill="#ac7c00"/>
  <rect x="18" y="24" width="8" height="1" fill="#f0d0b0"/>
  <rect x="32" y="24" width="4" height="1" fill="#f0d0b0"/>
  <rect x="14" y="25" width="2" height="1" fill="#f0d0b0"/>
  <rect x="16" y="25" width="2" height="1" fill="#ac7c00"/>
  <rect x="18" y="25" width="8" height="1" fill="#f0d0b0"/>
  <rect x="32" y="25" width="4" height="1" fill="#f0d0b0"/>
  <rect x="14" y="26" width="2" height="1" fill="#ac7c00"/>
  <rect x="16" y="26" width="2" height="1" fill="#f0d0b0"/>
  <rect x="18" y="26" width="2" height="1" fill="#ac7c00"/>
  <rect x="20" y="26" width="2" height="1" fill="#f0d0b0"/>
  <rect x="22" y="26" width="4" height="1" fill="#ac7c00"/>
  <rect x="30" y="26" width="2" height="1" fill="#ac7c00"/>
  <rect x="32" y="26" width="2" height="1" fill="#f0d0b0"/>
  <rect x="14" y="27" width="2" height="1" fill="#ac7c00"/>
  <rect x="16" y="27" width="2" height="1" fill="#f0d0b0"/>
  <rect x="18" y="27" width="2" height="1" fill="#ac7c00"/>
  <rect x="20" y="27" width="2" height="1" fill="#f0d0b0"/>
  <rect x="22" y="27" width="4" height="1" fill="#ac7c00"/>
  <rect x="30" y="27" width="2" height="1" fill="#ac7c00"/>
  <rect x="32" y="27" width="2" height="1" fill="#f0d0b0"/>
  <rect x="16" y="28" width="10" height="1" fill="#f0d0b0"/>
  <rect x="28" y="28" width="2" height="1" fill="#ac7c00"/>
  <rect x="30" y="28" width="4" height="1" fill="#f0d0b0"/>
  <rect x="16" y="29" width="10" height="1" fill="#f0d0b0"/>
  <rect x="28" y="29" width="2" height="1" fill="#ac7c00"/>
  <rect x="30" y="29" width="4" height="1" fill="#f0d0b0"/>
  <rect x="14" y="30" width="12" height="1" fill="#f83800"/>
  <rect x="26" y="30" width="4" height="1" fill="#f0d0b0"/>
  <rect x="30" y="30" width="2" height="1" fill="#ac7c00"/>
  <rect x="14" y="31" width="12" height="1" fill="#f83800"/>
  <rect x="26" y="31" width="4" height="1" fill="#f0d0b0"/>
  <rect x="30" y="31" width="2" height="1" fill="#ac7c00"/>
  <rect x="14" y="32" width="12" height="1" fill="#f83800"/>
  <rect x="14" y="33" width="12" height="1" fill="#f83800"/>
  <rect x="14" y="34" width="2" height="1" fill="#ac7c00"/>
  <rect x="16" y="34" width="4" height="1" fill="#f83800"/>
  <rect x="20" y="34" width="2" height="1" fill="#ac7c00"/>
  <rect x="22" y="34" width="2" height="1" fill="#f0d0b0"/>
  <rect x="24" y="34" width="2" height="1" fill="#ac7c00"/>
  <rect x="14" y="35" width="2" height="1" fill="#ac7c00"/>
  <rect x="16" y="35" width="4" height="1" fill="#f83800"/>
  <rect x="20" y="35" width="2" height="1" fill="#ac7c00"/>
  <rect x="22" y="35" width="2" height="1" fill="#f0d0b0"/>
  <rect x="24" y="35" width="2" height="1" fill="#ac7c00"/>
  <rect x="12" y="36" width="2" height="1" fill="#ac7c00"/>
  <rect x="14" y="36" width="2" height="1" fill="#f0d0b0"/>
  <rect x="22" y="36" width="4" height="1" fill="#f0d0b0"/>
  <rect x="12" y="37" width="2" height="1" fill="#ac7c00"/>
  <rect x="14" y="37" width="2" height="1" fill="#f0d0b0"/>
  <rect x="22" y="37" width="4" height="1" fill="#f0d0b0"/>
  <rect x="12" y="38" width="2" height="1" fill="#f0d0b0"/>
  <rect x="22" y="38" width="2" height="1" fill="#ac7c00"/>
  <rect x="24" y="38" width="2" height="1" fill="#f0d0b0"/>
  <rect x="26" y="38" width="2" height="1" fill="#ac7c00"/>
  <rect x="12" y="39" width="2" height="1" fill="#f0d0b0"/>
  <rect x="22" y="39" width="2" height="1" fill="#ac7c00"/>
  <rect x="24" y="39" width="2" height="1" fill="#f0d0b0"/>
  <rect x="26" y="39" width="2" height="1" fill="#ac7c00"/>
  <rect x="12" y="40" width="2" height="1" fill="#f0d0b0"/>
  <rect x="14" y="40" width="2" height="1" fill="#ac7c00"/>
  <rect x="24" y="40" width="4" height="1" fill="#f0d0b0"/>
  <rect x="28" y="40" width="2" height="1" fill="#ac7c00"/>
  <rect x="12" y="41" width="2" height="1" fill="#f0d0b0"/>
  <rect x="14" y="41" width="2" height="1" fill="#ac7c00"/>
  <rect x="24" y="41" width="4" height="1" fill="#f0d0b0"/>
  <rect x="28" y="41" width="2" height="1" fill="#ac7c00"/>
  <rect x="12" y="42" width="4" height="1" fill="#f0d0b0"/>
  <rect x="26" y="42" width="6" height="1" fill="#f0d0b0"/>
  <rect x="12" y="43" width="4" height="1" fill="#f0d0b0"/>
  <rect x="26" y="43" width="6" height="1" fill="#f0d0b0"/>
  <rect x="10" y="44" width="2" height="1" fill="#ac7c00"/>
  <rect x="12" y="44" width="4" height="1" fill="#f0d0b0"/>
  <rect x="26" y="44" width="2" height="1" fill="#ac7c00"/>
  <rect x="28" y="44" width="2" height="1" fill="#f0d0b0"/>
  <rect x="30" y="44" width="2" height="1" fill="#ac7c00"/>
  <rect x="10" y="45" width="2" height="1" fill="#ac7c00"/>
  <rect x="12" y="45" width="4" height="1" fill="#f0d0b0"/>
  <rect x="26" y="45" width="2" height="1" fill="#ac7c00"/>
  <rect x="28" y="45" width="2" height="1" fill="#f0d0b0"/>
  <rect x="30" y="45" width="2" height="1" fill="#ac7c00"/>
  <rect x="8" y="46" width="2" height="1" fill="#ac7c00"/>
  <rect x="10" y="46" width="4" height="1" fill="#f0d0b0"/>
  <rect x="14" y="46" width="2" height="1" fill="#ac7c00"/>
  <rect x="24" y="46" width="2" height="1" fill="#ac7c00"/>
  <rect x="26" y="46" width="4" height="1" fill="#f0d0b0"/>
  <rect x="8" y="47" width="2" height="1" fill="#ac7c00"/>
  <rect x="10" y="47" width="4" height="1" fill="#f0d0b0"/>
  <rect x="14" y="47" width="2" height="1" fill="#ac7c00"/>
  <rect x="24" y="47" width="2" height="1" fill="#ac7c00"/>
  <rect x="26" y="47" width="4" height="1" fill="#f0d0b0"/>
</g>
<g id="frame2" opacity="0">
  <rect x="16" y="8" width="10" height="1" fill="#ac7c00"/>
  <rect x="16" y="9" width="10" height="1" fill="#ac7c00"/>
  <rect x="14" y="10" width="14" height="1" fill="#ac7c00"/>
  <rect x="14" y="11" width="14" height="1" fill="#ac7c00"/>
  <rect x="14" y="12" width="2" height="1" fill="#ac7c00"/>
  <rect x="16" y="12" width="2" height="1" fill="#f0d0b0"/>
  <rect x="24" y="12" width="2" height="1" fill="#f0d0b0"/>
  <rect x="26" y="12" width="4" height="1" fill="#ac7c00"/>
  <rect x="14" y="13" width="2" height="1" fill="#ac7c00"/>
  <rect x="16" y="13" width="2" height="1" fill="#f0d0b0"/>
  <rect x="24" y="13" width="2" height="1" fill="#f0d0b0"/>
  <rect x="26" y="13" width="4" height="1" fill="#ac7c00"/>
  <rect x="16" y="14" width="4" height="1" fill="#f0d0b0"/>
  <rect x="22" y="14" width="4" height="1" fill="#f0d0b0"/>
  <rect x="26" y="14" width="4" height="1" fill="#ac7c00"/>
  <rect x="16" y="15" width="4" height="1" fill="#f0d0b0"/>
  <rect x="22" y="15" width="4" height="1" fill="#f0d0b0"/>
  <rect x="26" y="15" width="4" height="1" fill="#ac7c00"/>
  <rect x="16" y="16" width="8" height="1" fill="#f0d0b0"/>
  <rect x="24" y="16" width="2" height="1" fill="#ac7c00"/>
  <rect x="26" y="16" width="2" height="1" fill="#f0d0b0"/>
  <rect x="16" y="17" width="8" height="1" fill="#f0d0b0"/>
  <rect x="24" y="17" width="2" height="1" fill="#ac7c00"/>
  <rect x="26" y="17" width="2" height="1" fill="#f0d0b0"/>
  <rect x="16" y="18" width="8" height="1" fill="#ac7c00"/>
  <rect x="16" y="19" width="8" height="1" fill="#ac7c00"/>
  <rect x="14" y="20" width="8" height="1" fill="#ac7c00"/>
  <rect x="26" y="20" width="2" height="1" fill="#f0d0b0"/>
  <rect x="28" y="20" width="2" height="1" fill="#ac7c00"/>
  <rect x="14" y="21" width="8" height="1" fill="#ac7c00"/>
  <rect x="26" y="21" width="2" height="1" fill="#f0d0b0"/>
  <rect x="28" y="21" width="2" height="1" fill="#ac7c00"/>
  <rect x="14" y="22" width="4" height="1" fill="#f0d0b0"/>
  <rect x="18" y="22" width="4" height="1" fill="#ac7c00"/>
  <rect x="24" y="22" width="2" height="1" fill="#ac7c00"/>
  <rect x="26" y="22" width="4" height="1" fill="#f0d0b0"/>
  <rect x="14" y="23" width="4" height="1" fill="#f0d0b0"/>
  <rect x="18" y="23" width="4" height="1" fill="#ac7c00"/>
  <rect x="24" y="23" width="2" height="1" fill="#ac7c00"/>
  <rect x="26" y="23" width="4" height="1" fill="#f0d0b0"/>
  <rect x="14" y="24" width="4" height="1" fill="#f0d0b0"/>
  <rect x="18" y="24" width="2" height="1" fill="#ac7c00"/>
  <rect x="24" y="24" width="4" height="1" fill="#f0d0b0"/>
  <rect x="28" y="24" width="2" height="1" fill="#ac7c00"/>
  <rect x="14" y="25" width="4" height="1" fill="#f0d0b0"/>
  <rect x="18" y="25" width="2" height="1" fill="#ac7c00"/>
  <rect x="24" y="25" width="4" height="1" fill="#f0d0b0"/>
  <rect x="28" y="25" width="2" height="1" fill="#ac7c00"/>
  <rect x="16" y="26" width="4" height="1" fill="#f0d0b0"/>
  <rect x="20" y="26" width="2" height="1" fill="#ac7c00"/>
  <rect x="22" y="26" width="6" height="1" fill="#f0d0b0"/>
  <rect x="16" y="27" width="4" height="1" fill="#f0d0b0"/>
  <rect x="20" y="27" width="2" height="1" fill="#ac7c00"/>
  <rect x="22" y="27" width="6" height="1" fill="#f0d0b0"/>
  <rect x="14" y="28" width="2" height="1" fill="#ac7c00"/>
  <rect x="18" y="28" width="8" height="1" fill="#f0d0b0"/>
  <rect x="26" y="28" width="2" height="1" fill="#ac7c00"/>
  <rect x="14" y="29" width="2" height="1" fill="#ac7c00"/>
  <rect x="18" y="29" width="8" height="1" fill="#f0d0b0"/>
  <rect x="26" y="29" width="2" height="1" fill="#ac7c00"/>
  <rect x="16" y="30" width="2" height="1" fill="#ac7c00"/>
  <rect x="20" y="30" width="2" height="1" fill="#ac7c00"/>
  <rect x="22" y="30" width="2" height="1" fill="#f0d0b0"/>
  <rect x="24" y="30" width="2" height="1" fill="#ac7c00"/>
  <rect x="16" y="31" width="2" height="1" fill="#ac7c00"/>
  <rect x="20" y="31" width="2" height="1" fill="#ac7c00"/>
  <rect x="22" y="31" width="2" height="1" fill="#f0d0b0"/>
  <rect x="24" y="31" width="2" height="1" fill="#ac7c00"/>
  <rect x="16" y="32" width="12" height="1" fill="#f83800"/>
  <rect x="16" y="33" width="12" height="1" fill="#f83800"/>
  <rect x="12" y="34" width="4" height="1" fill="#f0d0b0"/>
  <rect x="16" y="34" width="10" height="1" fill="#f83800"/>
  <rect x="32" y="34" width="2" height="1" fill="#ac7c00"/>
  <rect x="34" y="34" width="2" height="1" fill="#f0d0b0"/>
  <rect x="12" y="35" width="4" height="1" fill="#f0d0b0"/>
  <rect x="16" y="35" width="10" height="1" fill="#f83800"/>
  <rect x="32" y="35" width="2" height="1" fill="#ac7c00"/>
  <rect x="34" y="35" width="2" height="1" fill="#f0d0b0"/>
  <rect x="10" y="36" width="8" height="1" fill="#f0d0b0"/>
  <rect x="18" y="36" width="4" height="1" fill="#f83800"/>
  <rect x="22" y="36" width="4" height="1" fill="#f0d0b0"/>
  <rect x="30" y="36" width="2" height="1" fill="#ac7c00"/>
  <rect x="32" y="36" width="4" height="1" fill="#f0d0b0"/>
  <rect x="10" y="37" width="8" height="1" fill="#f0d0b0"/>
  <rect x="18" y="37" width="4" height="1" fill="#f83800"/>
  <rect x="22" y="37" width="4" height="1" fill="#f0d0b0"/>
  <rect x="30" y="37" width="2" height="1" fill="#ac7c00"/>
  <rect x="32" y="37" width="4" height="1" fill="#f0d0b0"/>
  <rect x="10" y="38" width="2" height="1" fill="#f0d0b0"/>
  <rect x="12" y="38" width="2" height="1" fill="#ac7c00"/>
  <rect x="22" y="38" width="16" height="1" fill="#f0d0b0"/>
  <rect x="10" y="39" width="2" height="1" fill="#f0d0b0"/>
  <rect x="12" y="39" width="2" height="1" fill="#ac7c00"/>
  <rect x="22" y="39" width="16" height="1" fill="#f0d0b0"/>
  <rect x="6" y="40" width="8" height="1" fill="#f0d0b0"/>
  <rect x="24" y="40" width="2" height="1" fill="#ac7c00"/>
  <rect x="26" y="40" width="4" height="1" fill="#f0d0b0"/>
  <rect x="36" y="40" width="2" height="1" fill="#f0d0b0"/>
  <rect x="6" y="41" width="8" height="1" fill="#f0d0b0"/>
  <rect x="24" y="41" width="2" height="1" fill="#ac7c00"/>
  <rect x="26" y="41" width="4" height="1" fill="#f0d0b0"/>
  <rect x="36" y="41" width="2" height="1" fill="#f0d0b0"/>
  <rect x="10" y="42" width="4" height="1" fill="#f0d0b0"/>
  <rect x="10" y="43" width="4" height="1" fill="#f0d0b0"/>
</g>
<g id="frame3" opacity="0">
  <rect x="16" y="4" width="10" height="1" fill="#ac7c00"/>
  <rect x="16" y="5" width="10" height="1" fill="#ac7c00"/>
  <rect x="14" y="6" width="14" height="1" fill="#ac7c00"/>
  <rect x="14" y="7" width="14" height="1" fill="#ac7c00"/>
  <rect x="14" y="8" width="2" height="1" fill="#ac7c00"/>
  <rect x="16" y="8" width="2" height="1" fill="#f0d0b0"/>
  <rect x="24" y="8" width="2" height="1" fill="#f0d0b0"/>
  <rect x="26" y="8" width="4" height="1" fill="#ac7c00"/>
  <rect x="14" y="9" width="2" height="1" fill="#ac7c00"/>
  <rect x="16" y="9" width="2" height="1" fill="#f0d0b0"/>
  <rect x="24" y="9" width="2" height="1" fill="#f0d0b0"/>
  <rect x="26" y="9" width="4" height="1" fill="#ac7c00"/>
  <rect x="16" y="10" width="4" height="1" fill="#f0d0b0"/>
  <rect x="22" y="10" width="4" height="1" fill="#f0d0b0"/>
  <rect x="26" y="10" width="4" height="1" fill="#ac7c00"/>
  <rect x="16" y="11" width="4" height="1" fill="#f0d0b0"/>
  <rect x="22" y="11" width="4" height="1" fill="#f0d0b0"/>
  <rect x="26" y="11" width="4" height="1" fill="#ac7c00"/>
  <rect x="16" y="12" width="8" height="1" fill="#f0d0b0"/>
  <rect x="24" y="12" width="2" height="1" fill="#ac7c00"/>
  <rect x="26" y="12" width="2" height="1" fill="#f0d0b0"/>
  <rect x="16" y="13" width="8" height="1" fill="#f0d0b0"/>
  <rect x="24" y="13" width="2" height="1" fill="#ac7c00"/>
  <rect x="26" y="13" width="2" height="1" fill="#f0d0b0"/>
  <rect x="16" y="14" width="8" height="1" fill="#ac7c00"/>
  <rect x="16" y="15" width="8" height="1" fill="#ac7c00"/>
  <rect x="14" y="16" width="8" height="1" fill="#ac7c00"/>
  <rect x="24" y="16" width="2" height="1" fill="#ac7c00"/>
  <rect x="26" y="16" width="6" height="1" fill="#f0d0b0"/>
  <rect x="14" y="17" width="8" height="1" fill="#ac7c00"/>
  <rect x="24" y="17" width="2" height="1" fill="#ac7c00"/>
  <rect x="26" y="17" width="6" height="1" fill="#f0d0b0"/>
  <rect x="14" y="18" width="6" height="1" fill="#ac7c00"/>
  <rect x="22" y="18" width="12" height="1" fill="#f0d0b0"/>
  <rect x="14" y="19" width="6" height="1" fill="#ac7c00"/>
  <rect x="22" y="19" width="12" height="1" fill="#f0d0b0"/>
  <rect x="14" y="20" width="4" height="1" fill="#ac7c00"/>
  <rect x="18" y="20" width="8" height="1" fill="#f0d0b0"/>
  <rect x="26" y="20" width="2" height="1" fill="#ac7c00"/>
  <rect x="30" y="20" width="4" height="1" fill="#f0d0b0"/>
  <rect x="14" y="21" width="4" height="1" fill="#ac7c00"/>
  <rect x="18" y="21" width="8" height="1" fill="#f0d0b0"/>
  <rect x="26" y="21" width="2" height="1" fill="#ac7c00"/>
  <rect x="30" y="21" width="4" height="1" fill="#f0d0b0"/>
  <rect x="14" y="22" width="2" height="1" fill="#f0d0b0"/>
  <rect x="16" y="22" width="2" height="1" fill="#ac7c00"/>
  <rect x="18" y="22" width="8" height="1" fill="#f0d0b0"/>
  <rect x="26" y="22" width="2" height="1" fill="#ac7c00"/>
  <rect x="32" y="22" width="4" height="1" fill="#f0d0b0"/>
  <rect x="14" y="23" width="2" height="1" fill="#f0d0b0"/>
  <rect x="16" y="23" width="2" height="1" fill="#ac7c00"/>
  <rect x="18" y="23" width="8" height="1" fill="#f0d0b0"/>
  <rect x="26" y="23" width="2" height="1" fill="#ac7c00"/>
  <rect x="32" y="23" width="4" height="1" fill="#f0d0b0"/>
  <rect x="14" y="24" width="2" height="1" fill="#f0d0b0"/>
  <rect x="16" y="24" width="2" height="1" fill="#ac7c00"/>
  <rect x="18" y="24" width="8" height="1" fill="#f0d0b0"/>
  <rect x="32" y="24" width="4" height="1" fill="#f0d0b0"/>
  <rect x="14" y="25" width="2" height="1" fill="#f0d0b0"/>
  <rect x="16" y="25" width="2" height="1" fill="#ac7c00"/>
  <rect x="18" y="25" width="8" height="1" fill="#f0d0b0"/>
  <rect x="32" y="25" width="4" height="1" fill="#f0d0b0"/>
  <rect x="14" y="26" width="2" height="1" fill="#ac7c00"/>
  <rect x="16" y="26" width="2" height="1" fill="#f0d0b0"/>
  <rect x="18" y="26" width="2" height="1" fill="#ac7c00"/>
  <rect x="20" y="26" width="2" height="1" fill="#f0d0b0"/>
  <rect x="22" y="26" width="4" height="1" fill="#ac7c00"/>
  <rect x="30" y="26" width="2" height="1" fill="#ac7c00"/>
  <rect x="32" y="26" width="2" height="1" fill="#f0d0b0"/>
  <rect x="14" y="27" width="2" height="1" fill="#ac7c00"/>
  <rect x="16" y="27" width="2" height="1" fill="#f0d0b0"/>
  <rect x="18" y="27" width="2" height="1" fill="#ac7c00"/>
  <rect x="20" y="27" width="2" height="1" fill="#f0d0b0"/>
  <rect x="22" y="27" width="4" height="1" fill="#ac7c00"/>
  <rect x="30" y="27" width="2" height="1" fill="#ac7c00"/>
  <rect x="32" y="27" width="2" height="1" fill="#f0d0b0"/>
  <rect x="16" y="28" width="10" height="1" fill="#f0d0b0"/>
  <rect x="28" y="28" width="2" height="1" fill="#ac7c00"/>
  <rect x="30" y="28" width="4" height="1" fill="#f0d0b0"/>
  <rect x="16" y="29" width="10" height="1" fill="#f0d0b0"/>
  <rect x="28" y="29" width="2" height="1" fill="#ac7c00"/>
  <rect x="30" y="29" width="4" height="1" fill="#f0d0b0"/>
  <rect x="14" y="30" width="12" height="1" fill="#f83800"/>
  <rect x="26" y="30" width="4" height="1" fill="#f0d0b0"/>
  <rect x="30" y="30" width="2" height="1" fill="#ac7c00"/>
  <rect x="14" y="31" width="12" height="1" fill="#f83800"/>
  <rect x="26" y="31" width="4" height="1" fill="#f0d0b0"/>
  <rect x="30" y="31" width="2" height="1" fill="#ac7c00"/>
  <rect x="14" y="32" width="12" height="1" fill="#f83800"/>
  <rect x="14" y="33" width="12" height="1" fill="#f83800"/>
  <rect x="14" y="34" width="2" height="1" fill="#ac7c00"/>
  <rect x="16" y="34" width="4" height="1" fill="#f83800"/>
  <rect x="20" y="34" width="2" height="1" fill="#ac7c00"/>
  <rect x="22" y="34" width="2" height="1" fill="#f0d0b0"/>
  <rect x="24" y="34" width="2" height="1" fill="#ac7c00"/>
  <rect x="14" y="35" width="2" height="1" fill="#ac7c00"/>
  <rect x="16" y="35" width="4" height="1" fill="#f83800"/>
  <rect x="20" y="35" width="2" height="1" fill="#ac7c00"/>
  <rect x="22" y="35" width="2" height="1" fill="#f0d0b0"/>
  <rect x="24" y="35" width="2" height="1" fill="#ac7c00"/>
  <rect x="12" y="36" width="2" height="1" fill="#ac7c00"/>
  <rect x="14" y="36" width="2" height="1" fill="#f0d0b0"/>
  <rect x="22" y="36" width="4" height="1" fill="#f0d0b0"/>
  <rect x="12" y="37" width="2" height="1" fill="#ac7c00"/>
  <rect x="14" y="37" width="2" height="1" fill="#f0d0b0"/>
  <rect x="22" y="37" width="4" height="1" fill="#f0d0b0"/>
  <rect x="12" y="38" width="2" height="1" fill="#f0d0b0"/>
  <rect x="22" y="38" width="2" height="1" fill="#ac7c00"/>
  <rect x="24" y="38" width="2" height="1" fill="#f0d0b0"/>
  <rect x="26" y="38" width="2" height="1" fill="#ac7c00"/>
  <rect x="12" y="39" width="2" height="1" fill="#f0d0b0"/>
  <rect x="22" y="39" width="2" height="1" fill="#ac7c00"/>
  <rect x="24" y="39" width="2" height="1" fill="#f0d0b0"/>
  <rect x="26" y="39" width="2" height="1" fill="#ac7c00"/>
  <rect x="12" y="40" width="2" height="1" fill="#f0d0b0"/>
  <rect x="14" y="40" width="2" height="1" fill="#ac7c00"/>
  <rect x="24" y="40" width="4" height="1" fill="#f0d0b0"/>
  <rect x="28" y="40" width="2" height="1" fill="#ac7c00"/>
  <rect x="12" y="41" width="2" height="1" fill="#f0d0b0"/>
  <rect x="14" y="41" width="2" height="1" fill="#ac7c00"/>
  <rect x="24" y="41" width="4" height="1" fill="#f0d0b0"/>
  <rect x="28" y="41" width="2" height="1" fill="#ac7c00"/>
  <rect x="12" y="42" width="4" height="1" fill="#f0d0b0"/>
  <rect x="26" y="42" width="6" height="1" fill="#f0d0b0"/>
  <rect x="12" y="43" width="4" height="1" fill="#f0d0b0"/>
  <rect x="26" y="43" width="6" height="1" fill="#f0d0b0"/>
  <rect x="10" y="44" width="2" height="1" fill="#ac7c00"/>
  <rect x="12" y="44" width="4" height="1" fill="#f0d0b0"/>
  <rect x="26" y="44" width="2" height="1" fill="#ac7c00"/>
  <rect x="28" y="44" width="2" height="1" fill="#f0d0b0"/>
  <rect x="30" y="44" width="2" height="1" fill="#ac7c00"/>
  <rect x="10" y="45" width="2" height="1" fill="#ac7c00"/>
  <rect x="12" y="45" width="4" height="1" fill="#f0d0b0"/>
  <rect x="26" y="45" width="2" height="1" fill="#ac7c00"/>
  <rect x="28" y="45" width="2" height="1" fill="#f0d0b0"/>
  <rect x="30" y="45" width="2" height="1" fill="#ac7c00"/>
  <rect x="8" y="46" width="2" height="1" fill="#ac7c00"/>
  <rect x="10" y="46" width="4" height="1" fill="#f0d0b0"/>
  <rect x="14" y="46" width="2" height="1" fill="#ac7c00"/>
  <rect x="24" y="46" width="2" height="1" fill="#ac7c00"/>
  <rect x="26" y="46" width="4" height="1" fill="#f0d0b0"/>
  <rect x="8" y="47" width="2" height="1" fill="#ac7c00"/>
  <rect x="10" y="47" width="4" height="1" fill="#f0d0b0"/>
  <rect x="14" y="47" width="2" height="1" fill="#ac7c00"/>
  <rect x="24" y="47" width="2" height="1" fill="#ac7c00"/>
  <rect x="26" y="47" width="4" height="1" fill="#f0d0b0"/>
</g>
  <animate xlink:href="#frame0" attributeName="opacity" values="1;0;0;0;1" keyTimes="0.0;0.25;0.5;0.75;1.0" dur="0.4s" calcMode="discrete" repeatCount="indefinite"/>
  <animate xlink:href="#frame1" attributeName="opacity" values="0;1;0;0;0" keyTimes="0.0;0.25;0.5;0.75;1.0" dur="0.4s" calcMode="discrete" repeatCount="indefinite"/>
  <animate xlink:href="#frame2" attributeName="opacity" values="0;0;1;0;0" keyTimes="0.0;0.25;0.5;0.75;1.0" dur="0.4s" calcMode="discrete" repeatCount="indefinite"/>
  <animate xlink:href="#frame3" attributeName="opacity" values="0;0;0;1;0" keyTimes="0.0;0.25;0.5;0.75;1.0" dur="0.4s" calcMode="discrete" repeatCount="indefinite"/>
</svg>
