<svg xmlns="http://www.w3.org/2000/svg" xmlns:xlink="http://www.w3.org/1999/xlink"
     viewBox="0 0 12 12" width="12" height="12"
     shape-rendering="crispEdges">
<g id="frame0" opacity="1">
  <rect x="4" y="0" width="4" height="1" fill="#000000"/>
  <rect x="4" y="1" width="4" height="1" fill="#000000"/>
  <rect x="2" y="2" width="2" height="1" fill="#000000"/>
  <rect x="4" y="2" width="4" height="1" fill="#f8f8f8"/>
  <rect x="8" y="2" width="2" height="1" fill="#000000"/>
  <rect x="2" y="3" width="2" height="1" fill="#000000"/>
  <rect x="4" y="3" width="4" height="1" fill="#f8f8f8"/>
  <rect x="8" y="3" width="2" height="1" fill="#000000"/>
  <rect x="0" y="4" width="2" height="1" fill="#000000"/>
  <rect x="2" y="4" width="8" height="1" fill="#f8f8f8"/>
  <rect x="10" y="4" width="2" height="1" fill="#000000"/>
  <rect x="0" y="5" width="2" height="1" fill="#000000"/>
  <rect x="2" y="5" width="8" height="1" fill="#f8f8f8"/>
  <rect x="10" y="5" width="2" height="1" fill="#000000"/>
  <rect x="0" y="6" width="2" height="1" fill="#000000"/>
  <rect x="2" y="6" width="8" height="1" fill="#f8f8f8"/>
  <rect x="10" y="6" width="2" height="1" fill="#000000"/>
  <rect x="0" y="7" width="2" height="1" fill="#000000"/>
  <rect x="2" y="7" width="8" height="1" fill="#f8f8f8"/>
  <rect x="10" y="7" width="2" height="1" fill="#000000"/>
  <rect x="2" y="8" width="2" height="1" fill="#000000"/>
  <rect x="4" y="8" width="4" height="1" fill="#f8f8f8"/>
  <rect x="8" y="8" width="2" height="1" fill="#000000"/>
  <rect x="2" y="9" width="2" height="1" fill="#000000"/>
  <rect x="4" y="9" width="4" height="1" fill="#f8f8f8"/>
  <rect x="8" y="9" width="2" height="1" fill="#000000"/>
  <rect x="4" y="10" width="4" height="1" fill="#000000"/>
  <rect x="4" y="11" width="4" height="1" fill="#000000"/>
</g>
</svg>
