<svg xmlns="http://www.w3.org/2000/svg" xmlns:xlink="http://www.w3.org/1999/xlink"
     viewBox="0 0 50 32" width="50" height="32"
     shape-rendering="crispEdges">
<g id="frame0" opacity="1">
  <rect x="12" y="0" width="12" height="1" fill="#881400"/>
  <rect x="12" y="1" width="12" height="1" fill="#881400"/>
  <rect x="14" y="2" width="8" height="1" fill="#f0d0b0"/>
  <rect x="22" y="2" width="6" height="1" fill="#881400"/>
  <rect x="14" y="3" width="8" height="1" fill="#f0d0b0"/>
  <rect x="22" y="3" width="6" height="1" fill="#881400"/>
  <rect x="12" y="4" width="2" height="1" fill="#f0d0b0"/>
  <rect x="14" y="4" width="2" height="1" fill="#000000"/>
  <rect x="16" y="4" width="8" height="1" fill="#f0d0b0"/>
  <rect x="24" y="4" width="6" height="1" fill="#881400"/>
  <rect x="12" y="5" width="2" height="1" fill="#f0d0b0"/>
  <rect x="14" y="5" width="2" height="1" fill="#000000"/>
  <rect x="16" y="5" width="8" height="1" fill="#f0d0b0"/>
  <rect x="24" y="5" width="6" height="1" fill="#881400"/>
  <rect x="8" y="6" width="4" height="1" fill="#881400"/>
  <rect x="12" y="6" width="2" height="1" fill="#f0d0b0"/>
  <rect x="14" y="6" width="2" height="1" fill="#fcfcfc"/>
  <rect x="16" y="6" width="4" height="1" fill="#f0d0b0"/>
  <rect x="20" y="6" width="6" height="1" fill="#881400"/>
  <rect x="26" y="6" width="4" height="1" fill="#f0d0b0"/>
  <rect x="30" y="6" width="2" height="1" fill="#881400"/>
  <rect x="8" y="7" width="4" height="1" fill="#881400"/>
  <rect x="12" y="7" width="2" height="1" fill="#f0d0b0"/>
  <rect x="14" y="7" width="2" height="1" fill="#fcfcfc"/>
  <rect x="16" y="7" width="4" height="1" fill="#f0d0b0"/>
  <rect x="20" y="7" width="6" height="1" fill="#881400"/>
  <rect x="26" y="7" width="4" height="1" fill="#f0d0b0"/>
  <rect x="30" y="7" width="2" height="1" fill="#881400"/>
  <rect x="6" y="8" width="16" height="1" fill="#f0d0b0"/>
  <rect x="22" y="8" width="2" height="1" fill="#881400"/>
  <rect x="24" y="8" width="6" height="1" fill="#f0d0b0"/>
  <rect x="30" y="8" width="4" height="1" fill="#881400"/>
  <rect x="6" y="9" width="16" height="1" fill="#f0d0b0"/>
  <rect x="22" y="9" width="2" height="1" fill="#881400"/>
  <rect x="24" y="9" width="6" height="1" fill="#f0d0b0"/>
  <rect x="30" y="9" width="4" height="1" fill="#881400"/>
  <rect x="6" y="10" width="20" height="1" fill="#f0d0b0"/>
  <rect x="26" y="10" width="8" height="1" fill="#881400"/>
  <rect x="34" y="10" width="2" height="1" fill="#fcfcfc"/>
  <rect x="6" y="11" width="20" height="1" fill="#f0d0b0"/>
  <rect x="26" y="11" width="8" height="1" fill="#881400"/>
  <rect x="34" y="11" width="2" height="1" fill="#fcfcfc"/>
  <rect x="8" y="12" width="4" height="1" fill="#f0d0b0"/>
  <rect x="12" y="12" width="6" height="1" fill="#881400"/>
  <rect x="18" y="12" width="6" height="1" fill="#f0d0b0"/>
  <rect x="24" y="12" width="10" height="1" fill="#881400"/>
  <rect x="34" y="12" width="2" height="1" fill="#fcfcfc"/>
  <rect x="8" y="13" width="4" height="1" fill="#f0d0b0"/>
  <rect x="12" y="13" width="6" height="1" fill="#881400"/>
  <rect x="18" y="13" width="6" height="1" fill="#f0d0b0"/>
  <rect x="24" y="13" width="10" height="1" fill="#881400"/>
  <rect x="34" y="13" width="2" height="1" fill="#fcfcfc"/>
  <rect x="12" y="14" width="12" height="1" fill="#f0d0b0"/>
  <rect x="24" y="14" width="10" height="1" fill="#881400"/>
  <rect x="34" y="14" width="4" height="1" fill="#fcfcfc"/>
  <rect x="12" y="15" width="12" height="1" fill="#f0d0b0"/>
  <rect x="24" y="15" width="10" height="1" fill="#881400"/>
  <rect x="34" y="15" width="4" height="1" fill="#fcfcfc"/>
  <rect x="12" y="16" width="2" height="1" fill="#881400"/>
  <rect x="14" y="16" width="2" height="1" fill="#fcfcfc"/>
  <rect x="16" y="16" width="4" height="1" fill="#881400"/>
  <rect x="20" y="16" width="2" height="1" fill="#fcfcfc"/>
  <rect x="22" y="16" width="10" height="1" fill="#881400"/>
  <rect x="32" y="16" width="8" height="1" fill="#fcfcfc"/>
  <rect x="12" y="17" width="2" height="1" fill="#881400"/>
  <rect x="14" y="17" width="2" height="1" fill="#fcfcfc"/>
  <rect x="16" y="17" width="4" height="1" fill="#881400"/>
  <rect x="20" y="17" width="2" height="1" fill="#fcfcfc"/>
  <rect x="22" y="17" width="10" height="1" fill="#881400"/>
  <rect x="32" y="17" width="8" height="1" fill="#fcfcfc"/>
  <rect x="12" y="18" width="2" height="1" fill="#881400"/>
  <rect x="14" y="18" width="2" height="1" fill="#fcfcfc"/>
  <rect x="16" y="18" width="2" height="1" fill="#881400"/>
  <rect x="18" y="18" width="4" height="1" fill="#fcfcfc"/>
  <rect x="22" y="18" width="8" height="1" fill="#881400"/>
  <rect x="30" y="18" width="10" height="1" fill="#fcfcfc"/>
  <rect x="12" y="19" width="2" height="1" fill="#881400"/>
  <rect x="14" y="19" width="2" height="1" fill="#fcfcfc"/>
  <rect x="16" y="19" width="2" height="1" fill="#881400"/>
  <rect x="18" y="19" width="4" height="1" fill="#fcfcfc"/>
  <rect x="22" y="19" width="8" height="1" fill="#881400"/>
  <rect x="30" y="19" width="10" height="1" fill="#fcfcfc"/>
  <rect x="12" y="20" width="4" height="1" fill="#881400"/>
  <rect x="16" y="20" width="4" height="1" fill="#fcfcfc"/>
  <rect x="20" y="20" width="10" height="1" fill="#881400"/>
  <rect x="30" y="20" width="2" height="1" fill="#fcfcfc"/>
  <rect x="32" y="20" width="8" height="1" fill="#881400"/>
  <rect x="40" y="20" width="2" height="1" fill="#fcfcfc"/>
  <rect x="12" y="21" width="4" height="1" fill="#881400"/>
  <rect x="16" y="21" width="4" height="1" fill="#fcfcfc"/>
  <rect x="20" y="21" width="10" height="1" fill="#881400"/>
  <rect x="30" y="21" width="2" height="1" fill="#fcfcfc"/>
  <rect x="32" y="21" width="8" height="1" fill="#881400"/>
  <rect x="40" y="21" width="2" height="1" fill="#fcfcfc"/>
  <rect x="12" y="22" width="2" height="1" fill="#881400"/>
  <rect x="16" y="22" width="2" height="1" fill="#881400"/>
  <rect x="18" y="22" width="2" height="1" fill="#fcfcfc"/>
  <rect x="20" y="22" width="22" height="1" fill="#881400"/>
  <rect x="12" y="23" width="2" height="1" fill="#881400"/>
  <rect x="16" y="23" width="2" height="1" fill="#881400"/>
  <rect x="18" y="23" width="2" height="1" fill="#fcfcfc"/>
  <rect x="20" y="23" width="22" height="1" fill="#881400"/>
  <rect x="14" y="24" width="12" height="1" fill="#881400"/>
  <rect x="26" y="24" width="2" height="1" fill="#fcfcfc"/>
  <rect x="28" y="24" width="14" height="1" fill="#881400"/>
  <rect x="14" y="25" width="12" height="1" fill="#881400"/>
  <rect x="26" y="25" width="2" height="1" fill="#fcfcfc"/>
  <rect x="28" y="25" width="14" height="1" fill="#881400"/>
  <rect x="14" y="26" width="4" height="1" fill="#881400"/>
  <rect x="18" y="26" width="2" height="1" fill="#f0d0b0"/>
  <rect x="20" y="26" width="4" height="1" fill="#881400"/>
  <rect x="26" y="26" width="2" height="1" fill="#fcfcfc"/>
  <rect x="28" y="26" width="10" height="1" fill="#881400"/>
  <rect x="14" y="27" width="4" height="1" fill="#881400"/>
  <rect x="18" y="27" width="2" height="1" fill="#f0d0b0"/>
  <rect x="20" y="27" width="4" height="1" fill="#881400"/>
  <rect x="26" y="27" width="2" height="1" fill="#fcfcfc"/>
  <rect x="28" y="27" width="10" height="1" fill="#881400"/>
  <rect x="16" y="28" width="2" height="1" fill="#881400"/>
  <rect x="18" y="28" width="2" height="1" fill="#f0d0b0"/>
  <rect x="20" y="28" width="2" height="1" fill="#881400"/>
  <rect x="22" y="28" width="2" height="1" fill="#f0d0b0"/>
  <rect x="30" y="28" width="10" height="1" fill="#881400"/>
  <rect x="16" y="29" width="2" height="1" fill="#881400"/>
  <rect x="18" y="29" width="2" height="1" fill="#f0d0b0"/>
  <rect x="20" y="29" width="2" height="1" fill="#881400"/>
  <rect x="22" y="29" width="2" height="1" fill="#f0d0b0"/>
  <rect x="30" y="29" width="10" height="1" fill="#881400"/>
  <rect x="14" y="30" width="6" height="1" fill="#881400"/>
  <rect x="20" y="30" width="6" height="1" fill="#f0d0b0"/>
  <rect x="28" y="30" width="6" height="1" fill="#f0d0b0"/>
  <rect x="34" y="30" width="4" height="1" fill="#881400"/>
  <rect x="38" y="30" width="2" height="1" fill="#f0d0b0"/>
  <rect x="14" y="31" width="6" height="1" fill="#881400"/>
  <rect x="20" y="31" width="6" height="1" fill="#f0d0b0"/>
  <rect x="28" y="31" width="6" height="1" fill="#f0d0b0"/>
  <rect x="34" y="31" width="4" height="1" fill="#881400"/>
  <rect x="38" y="31" width="2" height="1" fill="#f0d0b0"/>
</g>
</svg>
