<svg xmlns="http://www.w3.org/2000/svg" xmlns:xlink="http://www.w3.org/1999/xlink"
     viewBox="0 0 52 68" width="52" height="68"
     shape-rendering="crispEdges">
<g id="frame0" opacity="1">
  <rect x="46" y="2" width="2" height="1" fill="#000000"/>
  <rect x="46" y="3" width="2" height="1" fill="#000000"/>
  <rect x="32" y="4" width="6" height="1" fill="#000000"/>
  <rect x="44" y="4" width="2" height="1" fill="#000000"/>
  <rect x="46" y="4" width="2" height="1" fill="#f0d0b0"/>
  <rect x="48" y="4" width="2" height="1" fill="#000000"/>
  <rect x="32" y="5" width="6" height="1" fill="#000000"/>
  <rect x="44" y="5" width="2" height="1" fill="#000000"/>
  <rect x="46" y="5" width="2" height="1" fill="#f0d0b0"/>
  <rect x="48" y="5" width="2" height="1" fill="#000000"/>
  <rect x="20" y="6" width="12" height="1" fill="#000000"/>
  <rect x="32" y="6" width="6" height="1" fill="#9878f8"/>
  <rect x="38" y="6" width="2" height="1" fill="#000000"/>
  <rect x="44" y="6" width="2" height="1" fill="#000000"/>
  <rect x="46" y="6" width="2" height="1" fill="#f0d0b0"/>
  <rect x="48" y="6" width="2" height="1" fill="#000000"/>
  <rect x="20" y="7" width="12" height="1" fill="#000000"/>
  <rect x="32" y="7" width="6" height="1" fill="#9878f8"/>
  <rect x="38" y="7" width="2" height="1" fill="#000000"/>
  <rect x="44" y="7" width="2" height="1" fill="#000000"/>
  <rect x="46" y="7" width="2" height="1" fill="#f0d0b0"/>
  <rect x="48" y="7" width="2" height="1" fill="#000000"/>
  <rect x="18" y="8" width="4" height="1" fill="#000000"/>
  <rect x="22" y="8" width="8" height="1" fill="#9878f8"/>
  <rect x="30" y="8" width="8" height="1" fill="#000000"/>
  <rect x="38" y="8" width="2" height="1" fill="#9878f8"/>
  <rect x="40" y="8" width="8" height="1" fill="#000000"/>
  <rect x="18" y="9" width="4" height="1" fill="#000000"/>
  <rect x="22" y="9" width="8" height="1" fill="#9878f8"/>
  <rect x="30" y="9" width="8" height="1" fill="#000000"/>
  <rect x="38" y="9" width="2" height="1" fill="#9878f8"/>
  <rect x="40" y="9" width="8" height="1" fill="#000000"/>
  <rect x="20" y="10" width="14" height="1" fill="#000000"/>
  <rect x="36" y="10" width="4" height="1" fill="#000000"/>
  <rect x="40" y="10" width="6" height="1" fill="#f0d0b0"/>
  <rect x="46" y="10" width="2" height="1" fill="#000000"/>
  <rect x="20" y="11" width="14" height="1" fill="#000000"/>
  <rect x="36" y="11" width="4" height="1" fill="#000000"/>
  <rect x="40" y="11" width="6" height="1" fill="#f0d0b0"/>
  <rect x="46" y="11" width="2" height="1" fill="#000000"/>
  <rect x="20" y="12" width="2" height="1" fill="#000000"/>
  <rect x="22" y="12" width="4" height="1" fill="#f0d0b0"/>
  <rect x="26" y="12" width="2" height="1" fill="#000000"/>
  <rect x="28" y="12" width="2" height="1" fill="#f0d0b0"/>
  <rect x="30" y="12" width="2" height="1" fill="#000000"/>
  <rect x="32" y="12" width="2" height="1" fill="#9878f8"/>
  <rect x="34" y="12" width="2" height="1" fill="#000000"/>
  <rect x="36" y="12" width="12" height="1" fill="#f0d0b0"/>
  <rect x="48" y="12" width="2" height="1" fill="#000000"/>
  <rect x="20" y="13" width="2" height="1" fill="#000000"/>
  <rect x="22" y="13" width="4" height="1" fill="#f0d0b0"/>
  <rect x="26" y="13" width="2" height="1" fill="#000000"/>
  <rect x="28" y="13" width="2" height="1" fill="#f0d0b0"/>
  <rect x="30" y="13" width="2" height="1" fill="#000000"/>
  <rect x="32" y="13" width="2" height="1" fill="#9878f8"/>
  <rect x="34" y="13" width="2" height="1" fill="#000000"/>
  <rect x="36" y="13" width="12" height="1" fill="#f0d0b0"/>
  <rect x="48" y="13" width="2" height="1" fill="#000000"/>
  <rect x="20" y="14" width="2" height="1" fill="#000000"/>
  <rect x="22" y="14" width="8" height="1" fill="#f0d0b0"/>
  <rect x="30" y="14" width="2" height="1" fill="#000000"/>
  <rect x="32" y="14" width="2" height="1" fill="#9878f8"/>
  <rect x="34" y="14" width="2" height="1" fill="#000000"/>
  <rect x="36" y="14" width="6" height="1" fill="#f0d0b0"/>
  <rect x="42" y="14" width="4" height="1" fill="#000000"/>
  <rect x="46" y="14" width="2" height="1" fill="#f0d0b0"/>
  <rect x="48" y="14" width="2" height="1" fill="#000000"/>
  <rect x="20" y="15" width="2" height="1" fill="#000000"/>
  <rect x="22" y="15" width="8" height="1" fill="#f0d0b0"/>
  <rect x="30" y="15" width="2" height="1" fill="#000000"/>
  <rect x="32" y="15" width="2" height="1" fill="#9878f8"/>
  <rect x="34" y="15" width="2" height="1" fill="#000000"/>
  <rect x="36" y="15" width="6" height="1" fill="#f0d0b0"/>
  <rect x="42" y="15" width="4" height="1" fill="#000000"/>
  <rect x="46" y="15" width="2" height="1" fill="#f0d0b0"/>
  <rect x="48" y="15" width="2" height="1" fill="#000000"/>
  <rect x="20" y="16" width="2" height="1" fill="#000000"/>
  <rect x="22" y="16" width="6" height="1" fill="#f0d0b0"/>
  <rect x="28" y="16" width="2" height="1" fill="#000000"/>
  <rect x="30" y="16" width="6" height="1" fill="#9878f8"/>
  <rect x="36" y="16" width="2" height="1" fill="#000000"/>
  <rect x="38" y="16" width="2" height="1" fill="#f0d0b0"/>
  <rect x="40" y="16" width="2" height="1" fill="#000000"/>
  <rect x="42" y="16" width="4" height="1" fill="#9878f8"/>
  <rect x="46" y="16" width="2" height="1" fill="#000000"/>
  <rect x="20" y="17" width="2" height="1" fill="#000000"/>
  <rect x="22" y="17" width="6" height="1" fill="#f0d0b0"/>
  <rect x="28" y="17" width="2" height="1" fill="#000000"/>
  <rect x="30" y="17" width="6" height="1" fill="#9878f8"/>
  <rect x="36" y="17" width="2" height="1" fill="#000000"/>
  <rect x="38" y="17" width="2" height="1" fill="#f0d0b0"/>
  <rect x="40" y="17" width="2" height="1" fill="#000000"/>
  <rect x="42" y="17" width="4" height="1" fill="#9878f8"/>
  <rect x="46" y="17" width="2" height="1" fill="#000000"/>
  <rect x="20" y="18" width="8" height="1" fill="#000000"/>
  <rect x="28" y="18" width="2" height="1" fill="#9878f8"/>
  <rect x="30" y="18" width="2" height="1" fill="#000000"/>
  <rect x="32" y="18" width="6" height="1" fill="#9878f8"/>
  <rect x="38" y="18" width="4" height="1" fill="#000000"/>
  <rect x="42" y="18" width="4" height="1" fill="#9878f8"/>
  <rect x="46" y="18" width="2" height="1" fill="#000000"/>
  <rect x="20" y="19" width="8" height="1" fill="#000000"/>
  <rect x="28" y="19" width="2" height="1" fill="#9878f8"/>
  <rect x="30" y="19" width="2" height="1" fill="#000000"/>
  <rect x="32" y="19" width="6" height="1" fill="#9878f8"/>
  <rect x="38" y="19" width="4" height="1" fill="#000000"/>
  <rect x="42" y="19" width="4" height="1" fill="#9878f8"/>
  <rect x="46" y="19" width="2" height="1" fill="#000000"/>
  <rect x="18" y="20" width="2" height="1" fill="#000000"/>
  <rect x="20" y="20" width="2" height="1" fill="#f0d0b0"/>
  <rect x="22" y="20" width="4" height="1" fill="#000000"/>
  <rect x="26" y="20" width="2" height="1" fill="#9878f8"/>
  <rect x="28" y="20" width="2" height="1" fill="#000000"/>
  <rect x="30" y="20" width="8" height="1" fill="#9878f8"/>
  <rect x="38" y="20" width="2" height="1" fill="#000000"/>
  <rect x="40" y="20" width="4" height="1" fill="#9878f8"/>
  <rect x="44" y="20" width="2" height="1" fill="#000000"/>
  <rect x="18" y="21" width="2" height="1" fill="#000000"/>
  <rect x="20" y="21" width="2" height="1" fill="#f0d0b0"/>
  <rect x="22" y="21" width="4" height="1" fill="#000000"/>
  <rect x="26" y="21" width="2" height="1" fill="#9878f8"/>
  <rect x="28" y="21" width="2" height="1" fill="#000000"/>
  <rect x="30" y="21" width="8" height="1" fill="#9878f8"/>
  <rect x="38" y="21" width="2" height="1" fill="#000000"/>
  <rect x="40" y="21" width="4" height="1" fill="#9878f8"/>
  <rect x="44" y="21" width="2" height="1" fill="#000000"/>
  <rect x="16" y="22" width="2" height="1" fill="#000000"/>
  <rect x="18" y="22" width="4" height="1" fill="#f0d0b0"/>
  <rect x="22" y="22" width="2" height="1" fill="#000000"/>
  <rect x="24" y="22" width="2" height="1" fill="#9878f8"/>
  <rect x="26" y="22" width="2" height="1" fill="#000000"/>
  <rect x="28" y="22" width="2" height="1" fill="#9878f8"/>
  <rect x="30" y="22" width="2" height="1" fill="#000000"/>
  <rect x="32" y="22" width="4" height="1" fill="#9878f8"/>
  <rect x="36" y="22" width="8" height="1" fill="#000000"/>
  <rect x="16" y="23" width="2" height="1" fill="#000000"/>
  <rect x="18" y="23" width="4" height="1" fill="#f0d0b0"/>
  <rect x="22" y="23" width="2" height="1" fill="#000000"/>
  <rect x="24" y="23" width="2" height="1" fill="#9878f8"/>
  <rect x="26" y="23" width="2" height="1" fill="#000000"/>
  <rect x="28" y="23" width="2" height="1" fill="#9878f8"/>
  <rect x="30" y="23" width="2" height="1" fill="#000000"/>
  <rect x="32" y="23" width="4" height="1" fill="#9878f8"/>
  <rect x="36" y="23" width="8" height="1" fill="#000000"/>
  <rect x="14" y="24" width="2" height="1" fill="#000000"/>
  <rect x="16" y="24" width="8" height="1" fill="#f0d0b0"/>
  <rect x="24" y="24" width="2" height="1" fill="#000000"/>
  <rect x="26" y="24" width="2" height="1" fill="#9878f8"/>
  <rect x="28" y="24" width="2" height="1" fill="#000000"/>
  <rect x="30" y="24" width="4" height="1" fill="#9878f8"/>
  <rect x="34" y="24" width="2" height="1" fill="#000000"/>
  <rect x="36" y="24" width="4" height="1" fill="#f0d0b0"/>
  <rect x="40" y="24" width="2" height="1" fill="#000000"/>
  <rect x="14" y="25" width="2" height="1" fill="#000000"/>
  <rect x="16" y="25" width="8" height="1" fill="#f0d0b0"/>
  <rect x="24" y="25" width="2" height="1" fill="#000000"/>
  <rect x="26" y="25" width="2" height="1" fill="#9878f8"/>
  <rect x="28" y="25" width="2" height="1" fill="#000000"/>
  <rect x="30" y="25" width="4" height="1" fill="#9878f8"/>
  <rect x="34" y="25" width="2" height="1" fill="#000000"/>
  <rect x="36" y="25" width="4" height="1" fill="#f0d0b0"/>
  <rect x="40" y="25" width="2" height="1" fill="#000000"/>
  <rect x="12" y="26" width="4" height="1" fill="#000000"/>
  <rect x="16" y="26" width="6" height="1" fill="#f0d0b0"/>
  <rect x="22" y="26" width="2" height="1" fill="#000000"/>
  <rect x="24" y="26" width="2" height="1" fill="#9878f8"/>
  <rect x="26" y="26" width="2" height="1" fill="#000000"/>
  <rect x="28" y="26" width="2" height="1" fill="#9878f8"/>
  <rect x="30" y="26" width="2" height="1" fill="#000000"/>
  <rect x="32" y="26" width="2" height="1" fill="#9878f8"/>
  <rect x="34" y="26" width="4" height="1" fill="#000000"/>
  <rect x="38" y="26" width="2" height="1" fill="#f0d0b0"/>
  <rect x="40" y="26" width="2" height="1" fill="#000000"/>
  <rect x="12" y="27" width="4" height="1" fill="#000000"/>
  <rect x="16" y="27" width="6" height="1" fill="#f0d0b0"/>
  <rect x="22" y="27" width="2" height="1" fill="#000000"/>
  <rect x="24" y="27" width="2" height="1" fill="#9878f8"/>
  <rect x="26" y="27" width="2" height="1" fill="#000000"/>
  <rect x="28" y="27" width="2" height="1" fill="#9878f8"/>
  <rect x="30" y="27" width="2" height="1" fill="#000000"/>
  <rect x="32" y="27" width="2" height="1" fill="#9878f8"/>
  <rect x="34" y="27" width="4" height="1" fill="#000000"/>
  <rect x="38" y="27" width="2" height="1" fill="#f0d0b0"/>
  <rect x="40" y="27" width="2" height="1" fill="#000000"/>
  <rect x="10" y="28" width="2" height="1" fill="#000000"/>
  <rect x="12" y="28" width="4" height="1" fill="#9878f8"/>
  <rect x="16" y="28" width="6" height="1" fill="#000000"/>
  <rect x="24" y="28" width="2" height="1" fill="#000000"/>
  <rect x="26" y="28" width="2" height="1" fill="#9878f8"/>
  <rect x="28" y="28" width="2" height="1" fill="#000000"/>
  <rect x="30" y="28" width="2" height="1" fill="#9878f8"/>
  <rect x="32" y="28" width="2" height="1" fill="#000000"/>
  <rect x="34" y="28" width="2" height="1" fill="#f0d0b0"/>
  <rect x="36" y="28" width="2" height="1" fill="#000000"/>
  <rect x="38" y="28" width="2" height="1" fill="#f0d0b0"/>
  <rect x="40" y="28" width="2" height="1" fill="#000000"/>
  <rect x="10" y="29" width="2" height="1" fill="#000000"/>
  <rect x="12" y="29" width="4" height="1" fill="#9878f8"/>
  <rect x="16" y="29" width="6" height="1" fill="#000000"/>
  <rect x="24" y="29" width="2" height="1" fill="#000000"/>
  <rect x="26" y="29" width="2" height="1" fill="#9878f8"/>
  <rect x="28" y="29" width="2" height="1" fill="#000000"/>
  <rect x="30" y="29" width="2" height="1" fill="#9878f8"/>
  <rect x="32" y="29" width="2" height="1" fill="#000000"/>
  <rect x="34" y="29" width="2" height="1" fill="#f0d0b0"/>
  <rect x="36" y="29" width="2" height="1" fill="#000000"/>
  <rect x="38" y="29" width="2" height="1" fill="#f0d0b0"/>
  <rect x="40" y="29" width="2" height="1" fill="#000000"/>
  <rect x="4" y="30" width="6" height="1" fill="#000000"/>
  <rect x="10" y="30" width="4" height="1" fill="#9878f8"/>
  <rect x="14" y="30" width="4" height="1" fill="#000000"/>
  <rect x="26" y="30" width="2" height="1" fill="#000000"/>
  <rect x="28" y="30" width="2" height="1" fill="#9878f8"/>
  <rect x="30" y="30" width="2" height="1" fill="#000000"/>
  <rect x="32" y="30" width="4" height="1" fill="#f0d0b0"/>
  <rect x="36" y="30" width="4" height="1" fill="#000000"/>
  <rect x="4" y="31" width="6" height="1" fill="#000000"/>
  <rect x="10" y="31" width="4" height="1" fill="#9878f8"/>
  <rect x="14" y="31" width="4" height="1" fill="#000000"/>
  <rect x="26" y="31" width="2" height="1" fill="#000000"/>
  <rect x="28" y="31" width="2" height="1" fill="#9878f8"/>
  <rect x="30" y="31" width="2" height="1" fill="#000000"/>
  <rect x="32" y="31" width="4" height="1" fill="#f0d0b0"/>
  <rect x="36" y="31" width="4" height="1" fill="#000000"/>
  <rect x="2" y="32" width="2" height="1" fill="#000000"/>
  <rect x="4" y="32" width="4" height="1" fill="#f0d0b0"/>
  <rect x="8" y="32" width="6" height="1" fill="#000000"/>
  <rect x="28" y="32" width="4" height="1" fill="#000000"/>
  <rect x="32" y="32" width="2" height="1" fill="#f0d0b0"/>
  <rect x="34" y="32" width="2" height="1" fill="#000000"/>
  <rect x="36" y="32" width="4" height="1" fill="#9878f8"/>
  <rect x="40" y="32" width="2" height="1" fill="#000000"/>
  <rect x="2" y="33" width="2" height="1" fill="#000000"/>
  <rect x="4" y="33" width="4" height="1" fill="#f0d0b0"/>
  <rect x="8" y="33" width="6" height="1" fill="#000000"/>
  <rect x="28" y="33" width="4" height="1" fill="#000000"/>
  <rect x="32" y="33" width="2" height="1" fill="#f0d0b0"/>
  <rect x="34" y="33" width="2" height="1" fill="#000000"/>
  <rect x="36" y="33" width="4" height="1" fill="#9878f8"/>
  <rect x="40" y="33" width="2" height="1" fill="#000000"/>
  <rect x="4" y="34" width="4" height="1" fill="#000000"/>
  <rect x="28" y="34" width="2" height="1" fill="#000000"/>
  <rect x="30" y="34" width="2" height="1" fill="#9878f8"/>
  <rect x="32" y="34" width="2" height="1" fill="#000000"/>
  <rect x="34" y="34" width="8" height="1" fill="#9878f8"/>
  <rect x="42" y="34" width="2" height="1" fill="#000000"/>
  <rect x="4" y="35" width="4" height="1" fill="#000000"/>
  <rect x="28" y="35" width="2" height="1" fill="#000000"/>
  <rect x="30" y="35" width="2" height="1" fill="#9878f8"/>
  <rect x="32" y="35" width="2" height="1" fill="#000000"/>
  <rect x="34" y="35" width="8" height="1" fill="#9878f8"/>
  <rect x="42" y="35" width="2" height="1" fill="#000000"/>
  <rect x="26" y="36" width="2" height="1" fill="#000000"/>
  <rect x="28" y="36" width="14" height="1" fill="#9878f8"/>
  <rect x="42" y="36" width="2" height="1" fill="#000000"/>
  <rect x="26" y="37" width="2" height="1" fill="#000000"/>
  <rect x="28" y="37" width="14" height="1" fill="#9878f8"/>
  <rect x="42" y="37" width="2" height="1" fill="#000000"/>
  <rect x="24" y="38" width="2" height="1" fill="#000000"/>
  <rect x="26" y="38" width="8" height="1" fill="#9878f8"/>
  <rect x="34" y="38" width="2" height="1" fill="#000000"/>
  <rect x="36" y="38" width="6" height="1" fill="#9878f8"/>
  <rect x="42" y="38" width="2" height="1" fill="#000000"/>
  <rect x="24" y="39" width="2" height="1" fill="#000000"/>
  <rect x="26" y="39" width="8" height="1" fill="#9878f8"/>
  <rect x="34" y="39" width="2" height="1" fill="#000000"/>
  <rect x="36" y="39" width="6" height="1" fill="#9878f8"/>
  <rect x="42" y="39" width="2" height="1" fill="#000000"/>
  <rect x="22" y="40" width="2" height="1" fill="#000000"/>
  <rect x="24" y="40" width="8" height="1" fill="#9878f8"/>
  <rect x="32" y="40" width="2" height="1" fill="#000000"/>
  <rect x="34" y="40" width="8" height="1" fill="#9878f8"/>
  <rect x="42" y="40" width="2" height="1" fill="#000000"/>
  <rect x="22" y="41" width="2" height="1" fill="#000000"/>
  <rect x="24" y="41" width="8" height="1" fill="#9878f8"/>
  <rect x="32" y="41" width="2" height="1" fill="#000000"/>
  <rect x="34" y="41" width="8" height="1" fill="#9878f8"/>
  <rect x="42" y="41" width="2" height="1" fill="#000000"/>
  <rect x="20" y="42" width="2" height="1" fill="#000000"/>
  <rect x="22" y="42" width="10" height="1" fill="#9878f8"/>
  <rect x="32" y="42" width="2" height="1" fill="#000000"/>
  <rect x="34" y="42" width="8" height="1" fill="#9878f8"/>
  <rect x="42" y="42" width="2" height="1" fill="#000000"/>
  <rect x="20" y="43" width="2" height="1" fill="#000000"/>
  <rect x="22" y="43" width="10" height="1" fill="#9878f8"/>
  <rect x="32" y="43" width="2" height="1" fill="#000000"/>
  <rect x="34" y="43" width="8" height="1" fill="#9878f8"/>
  <rect x="42" y="43" width="2" height="1" fill="#000000"/>
  <rect x="18" y="44" width="2" height="1" fill="#000000"/>
  <rect x="20" y="44" width="10" height="1" fill="#9878f8"/>
  <rect x="30" y="44" width="4" height="1" fill="#000000"/>
  <rect x="34" y="44" width="8" height="1" fill="#9878f8"/>
  <rect x="42" y="44" width="2" height="1" fill="#000000"/>
  <rect x="18" y="45" width="2" height="1" fill="#000000"/>
  <rect x="20" y="45" width="10" height="1" fill="#9878f8"/>
  <rect x="30" y="45" width="4" height="1" fill="#000000"/>
  <rect x="34" y="45" width="8" height="1" fill="#9878f8"/>
  <rect x="42" y="45" width="2" height="1" fill="#000000"/>
  <rect x="18" y="46" width="2" height="1" fill="#000000"/>
  <rect x="20" y="46" width="8" height="1" fill="#9878f8"/>
  <rect x="28" y="46" width="2" height="1" fill="#000000"/>
  <rect x="32" y="46" width="2" height="1" fill="#000000"/>
  <rect x="34" y="46" width="6" height="1" fill="#9878f8"/>
  <rect x="40" y="46" width="2" height="1" fill="#000000"/>
  <rect x="18" y="47" width="2" height="1" fill="#000000"/>
  <rect x="20" y="47" width="8" height="1" fill="#9878f8"/>
  <rect x="28" y="47" width="2" height="1" fill="#000000"/>
  <rect x="32" y="47" width="2" height="1" fill="#000000"/>
  <rect x="34" y="47" width="6" height="1" fill="#9878f8"/>
  <rect x="40" y="47" width="2" height="1" fill="#000000"/>
  <rect x="18" y="48" width="2" height="1" fill="#000000"/>
  <rect x="20" y="48" width="4" height="1" fill="#9878f8"/>
  <rect x="24" y="48" width="4" height="1" fill="#000000"/>
  <rect x="32" y="48" width="2" height="1" fill="#000000"/>
  <rect x="34" y="48" width="4" height="1" fill="#9878f8"/>
  <rect x="38" y="48" width="2" height="1" fill="#000000"/>
  <rect x="40" y="48" width="2" height="1" fill="#9878f8"/>
  <rect x="42" y="48" width="2" height="1" fill="#000000"/>
  <rect x="18" y="49" width="2" height="1" fill="#000000"/>
  <rect x="20" y="49" width="4" height="1" fill="#9878f8"/>
  <rect x="24" y="49" width="4" height="1" fill="#000000"/>
  <rect x="32" y="49" width="2" height="1" fill="#000000"/>
  <rect x="34" y="49" width="4" height="1" fill="#9878f8"/>
  <rect x="38" y="49" width="2" height="1" fill="#000000"/>
  <rect x="40" y="49" width="2" height="1" fill="#9878f8"/>
  <rect x="42" y="49" width="2" height="1" fill="#000000"/>
  <rect x="20" y="50" width="2" height="1" fill="#000000"/>
  <rect x="22" y="50" width="4" height="1" fill="#9878f8"/>
  <rect x="26" y="50" width="2" height="1" fill="#000000"/>
  <rect x="34" y="50" width="2" height="1" fill="#000000"/>
  <rect x="36" y="50" width="6" height="1" fill="#9878f8"/>
  <rect x="42" y="50" width="2" height="1" fill="#000000"/>
  <rect x="20" y="51" width="2" height="1" fill="#000000"/>
  <rect x="22" y="51" width="4" height="1" fill="#9878f8"/>
  <rect x="26" y="51" width="2" height="1" fill="#000000"/>
  <rect x="34" y="51" width="2" height="1" fill="#000000"/>
  <rect x="36" y="51" width="6" height="1" fill="#9878f8"/>
  <rect x="42" y="51" width="2" height="1" fill="#000000"/>
  <rect x="22" y="52" width="6" height="1" fill="#000000"/>
  <rect x="34" y="52" width="2" height="1" fill="#000000"/>
  <rect x="36" y="52" width="4" height="1" fill="#9878f8"/>
  <rect x="40" y="52" width="2" height="1" fill="#000000"/>
  <rect x="22" y="53" width="6" height="1" fill="#000000"/>
  <rect x="34" y="53" width="2" height="1" fill="#000000"/>
  <rect x="36" y="53" width="4" height="1" fill="#9878f8"/>
  <rect x="40" y="53" width="2" height="1" fill="#000000"/>
  <rect x="22" y="54" width="2" height="1" fill="#000000"/>
  <rect x="24" y="54" width="4" height="1" fill="#9878f8"/>
  <rect x="28" y="54" width="2" height="1" fill="#000000"/>
  <rect x="36" y="54" width="4" height="1" fill="#000000"/>
  <rect x="40" y="54" width="2" height="1" fill="#9878f8"/>
  <rect x="42" y="54" width="2" height="1" fill="#000000"/>
  <rect x="22" y="55" width="2" height="1" fill="#000000"/>
  <rect x="24" y="55" width="4" height="1" fill="#9878f8"/>
  <rect x="28" y="55" width="2" height="1" fill="#000000"/>
  <rect x="36" y="55" width="4" height="1" fill="#000000"/>
  <rect x="40" y="55" width="2" height="1" fill="#9878f8"/>
  <rect x="42" y="55" width="2" height="1" fill="#000000"/>
  <rect x="22" y="56" width="2" height="1" fill="#000000"/>
  <rect x="24" y="56" width="4" height="1" fill="#9878f8"/>
  <rect x="28" y="56" width="2" height="1" fill="#000000"/>
  <rect x="38" y="56" width="2" height="1" fill="#000000"/>
  <rect x="40" y="56" width="2" height="1" fill="#9878f8"/>
  <rect x="42" y="56" width="2" height="1" fill="#000000"/>
  <rect x="22" y="57" width="2" height="1" fill="#000000"/>
  <rect x="24" y="57" width="4" height="1" fill="#9878f8"/>
  <rect x="28" y="57" width="2" height="1" fill="#000000"/>
  <rect x="38" y="57" width="2" height="1" fill="#000000"/>
  <rect x="40" y="57" width="2" height="1" fill="#9878f8"/>
  <rect x="42" y="57" width="2" height="1" fill="#000000"/>
  <rect x="24" y="58" width="2" height="1" fill="#000000"/>
  <rect x="26" y="58" width="2" height="1" fill="#9878f8"/>
  <rect x="28" y="58" width="2" height="1" fill="#000000"/>
  <rect x="38" y="58" width="2" height="1" fill="#000000"/>
  <rect x="40" y="58" width="4" height="1" fill="#9878f8"/>
  <rect x="44" y="58" width="2" height="1" fill="#000000"/>
  <rect x="24" y="59" width="2" height="1" fill="#000000"/>
  <rect x="26" y="59" width="2" height="1" fill="#9878f8"/>
  <rect x="28" y="59" width="2" height="1" fill="#000000"/>
  <rect x="38" y="59" width="2" height="1" fill="#000000"/>
  <rect x="40" y="59" width="4" height="1" fill="#9878f8"/>
  <rect x="44" y="59" width="2" height="1" fill="#000000"/>
  <rect x="24" y="60" width="6" height="1" fill="#000000"/>
  <rect x="40" y="60" width="6" height="1" fill="#000000"/>
  <rect x="24" y="61" width="6" height="1" fill="#000000"/>
  <rect x="40" y="61" width="6" height="1" fill="#000000"/>
  <rect x="20" y="62" width="4" height="1" fill="#000000"/>
  <rect x="24" y="62" width="6" height="1" fill="#f0d0b0"/>
  <rect x="30" y="62" width="2" height="1" fill="#000000"/>
  <rect x="40" y="62" width="2" height="1" fill="#000000"/>
  <rect x="42" y="62" width="4" height="1" fill="#f0d0b0"/>
  <rect x="46" y="62" width="2" height="1" fill="#000000"/>
  <rect x="20" y="63" width="4" height="1" fill="#000000"/>
  <rect x="24" y="63" width="6" height="1" fill="#f0d0b0"/>
  <rect x="30" y="63" width="2" height="1" fill="#000000"/>
  <rect x="40" y="63" width="2" height="1" fill="#000000"/>
  <rect x="42" y="63" width="4" height="1" fill="#f0d0b0"/>
  <rect x="46" y="63" width="2" height="1" fill="#000000"/>
  <rect x="18" y="64" width="2" height="1" fill="#000000"/>
  <rect x="20" y="64" width="4" height="1" fill="#f0d0b0"/>
  <rect x="24" y="64" width="2" height="1" fill="#000000"/>
  <rect x="26" y="64" width="4" height="1" fill="#f0d0b0"/>
  <rect x="30" y="64" width="2" height="1" fill="#000000"/>
  <rect x="40" y="64" width="2" height="1" fill="#000000"/>
  <rect x="42" y="64" width="6" height="1" fill="#f0d0b0"/>
  <rect x="48" y="64" width="2" height="1" fill="#000000"/>
  <rect x="18" y="65" width="2" height="1" fill="#000000"/>
  <rect x="20" y="65" width="4" height="1" fill="#f0d0b0"/>
  <rect x="24" y="65" width="2" height="1" fill="#000000"/>
  <rect x="26" y="65" width="4" height="1" fill="#f0d0b0"/>
  <rect x="30" y="65" width="2" height="1" fill="#000000"/>
  <rect x="40" y="65" width="2" height="1" fill="#000000"/>
  <rect x="42" y="65" width="6" height="1" fill="#f0d0b0"/>
  <rect x="48" y="65" width="2" height="1" fill="#000000"/>
  <rect x="18" y="66" width="14" height="1" fill="#000000"/>
  <rect x="40" y="66" width="10" height="1" fill="#000000"/>
  <rect x="18" y="67" width="14" height="1" fill="#000000"/>
  <rect x="40" y="67" width="10" height="1" fill="#000000"/>
</g>
</svg>
