<svg xmlns="http://www.w3.org/2000/svg" xmlns:xlink="http://www.w3.org/1999/xlink"
     viewBox="0 0 30 32" width="30" height="32"
     shape-rendering="crispEdges">
<g id="frame0" style="display:inline">
  <rect x="12" y="0" width="10" height="1" fill="#b53120"/>
  <rect x="12" y="1" width="10" height="1" fill="#b53120"/>
  <rect x="6" y="2" width="18" height="1" fill="#b53120"/>
  <rect x="6" y="3" width="18" height="1" fill="#b53120"/>
  <rect x="10" y="4" width="2" height="1" fill="#ea9e22"/>
  <rect x="12" y="4" width="2" height="1" fill="#6b6d00"/>
  <rect x="14" y="4" width="4" height="1" fill="#ea9e22"/>
  <rect x="18" y="4" width="6" height="1" fill="#6b6d00"/>
  <rect x="10" y="5" width="2" height="1" fill="#ea9e22"/>
  <rect x="12" y="5" width="2" height="1" fill="#6b6d00"/>
  <rect x="14" y="5" width="4" height="1" fill="#ea9e22"/>
  <rect x="18" y="5" width="6" height="1" fill="#6b6d00"/>
  <rect x="6" y="6" width="6" height="1" fill="#ea9e22"/>
  <rect x="12" y="6" width="2" height="1" fill="#6b6d00"/>
  <rect x="14" y="6" width="6" height="1" fill="#ea9e22"/>
  <rect x="20" y="6" width="2" height="1" fill="#6b6d00"/>
  <rect x="22" y="6" width="2" height="1" fill="#ea9e22"/>
  <rect x="24" y="6" width="2" height="1" fill="#6b6d00"/>
  <rect x="6" y="7" width="6" height="1" fill="#ea9e22"/>
  <rect x="12" y="7" width="2" height="1" fill="#6b6d00"/>
  <rect x="14" y="7" width="6" height="1" fill="#ea9e22"/>
  <rect x="20" y="7" width="2" height="1" fill="#6b6d00"/>
  <rect x="22" y="7" width="2" height="1" fill="#ea9e22"/>
  <rect x="24" y="7" width="2" height="1" fill="#6b6d00"/>
  <rect x="4" y="8" width="6" height="1" fill="#ea9e22"/>
  <rect x="10" y="8" width="2" height="1" fill="#6b6d00"/>
  <rect x="12" y="8" width="6" height="1" fill="#ea9e22"/>
  <rect x="18" y="8" width="4" height="1" fill="#6b6d00"/>
  <rect x="22" y="8" width="2" height="1" fill="#ea9e22"/>
  <rect x="24" y="8" width="2" height="1" fill="#6b6d00"/>
  <rect x="4" y="9" width="6" height="1" fill="#ea9e22"/>
  <rect x="10" y="9" width="2" height="1" fill="#6b6d00"/>
  <rect x="12" y="9" width="6" height="1" fill="#ea9e22"/>
  <rect x="18" y="9" width="4" height="1" fill="#6b6d00"/>
  <rect x="22" y="9" width="2" height="1" fill="#ea9e22"/>
  <rect x="24" y="9" width="2" height="1" fill="#6b6d00"/>
  <rect x="6" y="10" width="8" height="1" fill="#6b6d00"/>
  <rect x="14" y="10" width="8" height="1" fill="#ea9e22"/>
  <rect x="22" y="10" width="4" height="1" fill="#6b6d00"/>
  <rect x="6" y="11" width="8" height="1" fill="#6b6d00"/>
  <rect x="14" y="11" width="8" height="1" fill="#ea9e22"/>
  <rect x="22" y="11" width="4" height="1" fill="#6b6d00"/>
  <rect x="8" y="12" width="14" height="1" fill="#ea9e22"/>
  <rect x="8" y="13" width="14" height="1" fill="#ea9e22"/>
  <rect x="12" y="14" width="6" height="1" fill="#6b6d00"/>
  <rect x="18" y="14" width="2" height="1" fill="#b53120"/>
  <rect x="20" y="14" width="4" height="1" fill="#6b6d00"/>
  <rect x="12" y="15" width="6" height="1" fill="#6b6d00"/>
  <rect x="18" y="15" width="2" height="1" fill="#b53120"/>
  <rect x="20" y="15" width="4" height="1" fill="#6b6d00"/>
  <rect x="6" y="16" width="6" height="1" fill="#6b6d00"/>
  <rect x="12" y="16" width="2" height="1" fill="#b53120"/>
  <rect x="14" y="16" width="4" height="1" fill="#6b6d00"/>
  <rect x="18" y="16" width="2" height="1" fill="#b53120"/>
  <rect x="20" y="16" width="6" height="1" fill="#6b6d00"/>
  <rect x="6" y="17" width="6" height="1" fill="#6b6d00"/>
  <rect x="12" y="17" width="2" height="1" fill="#b53120"/>
  <rect x="14" y="17" width="4" height="1" fill="#6b6d00"/>
  <rect x="18" y="17" width="2" height="1" fill="#b53120"/>
  <rect x="20" y="17" width="6" height="1" fill="#6b6d00"/>
  <rect x="4" y="18" width="8" height="1" fill="#6b6d00"/>
  <rect x="12" y="18" width="8" height="1" fill="#b53120"/>
  <rect x="20" y="18" width="8" height="1" fill="#6b6d00"/>
  <rect x="4" y="19" width="8" height="1" fill="#6b6d00"/>
  <rect x="12" y="19" width="8" height="1" fill="#b53120"/>
  <rect x="20" y="19" width="8" height="1" fill="#6b6d00"/>
  <rect x="4" y="20" width="4" height="1" fill="#ea9e22"/>
  <rect x="8" y="20" width="2" height="1" fill="#6b6d00"/>
  <rect x="10" y="20" width="2" height="1" fill="#b53120"/>
  <rect x="12" y="20" width="2" height="1" fill="#ea9e22"/>
  <rect x="14" y="20" width="4" height="1" fill="#b53120"/>
  <rect x="18" y="20" width="2" height="1" fill="#ea9e22"/>
  <rect x="20" y="20" width="2" height="1" fill="#b53120"/>
  <rect x="22" y="20" width="2" height="1" fill="#6b6d00"/>
  <rect x="24" y="20" width="4" height="1" fill="#ea9e22"/>
  <rect x="4" y="21" width="4" height="1" fill="#ea9e22"/>
  <rect x="8" y="21" width="2" height="1" fill="#6b6d00"/>
  <rect x="10" y="21" width="2" height="1" fill="#b53120"/>
  <rect x="12" y="21" width="2" height="1" fill="#ea9e22"/>
  <rect x="14" y="21" width="4" height="1" fill="#b53120"/>
  <rect x="18" y="21" width="2" height="1" fill="#ea9e22"/>
  <rect x="20" y="21" width="2" height="1" fill="#b53120"/>
  <rect x="22" y="21" width="2" height="1" fill="#6b6d00"/>
  <rect x="24" y="21" width="4" height="1" fill="#ea9e22"/>
  <rect x="4" y="22" width="6" height="1" fill="#ea9e22"/>
  <rect x="10" y="22" width="12" height="1" fill="#b53120"/>
  <rect x="22" y="22" width="6" height="1" fill="#ea9e22"/>
  <rect x="4" y="23" width="6" height="1" fill="#ea9e22"/>
  <rect x="10" y="23" width="12" height="1" fill="#b53120"/>
  <rect x="22" y="23" width="6" height="1" fill="#ea9e22"/>
  <rect x="4" y="24" width="4" height="1" fill="#ea9e22"/>
  <rect x="8" y="24" width="16" height="1" fill="#b53120"/>
  <rect x="24" y="24" width="4" height="1" fill="#ea9e22"/>
  <rect x="4" y="25" width="4" height="1" fill="#ea9e22"/>
  <rect x="8" y="25" width="16" height="1" fill="#b53120"/>
  <rect x="24" y="25" width="4" height="1" fill="#ea9e22"/>
  <rect x="8" y="26" width="6" height="1" fill="#b53120"/>
  <rect x="18" y="26" width="6" height="1" fill="#b53120"/>
  <rect x="8" y="27" width="6" height="1" fill="#b53120"/>
  <rect x="18" y="27" width="6" height="1" fill="#b53120"/>
  <rect x="6" y="28" width="6" height="1" fill="#6b6d00"/>
  <rect x="20" y="28" width="6" height="1" fill="#6b6d00"/>
  <rect x="6" y="29" width="6" height="1" fill="#6b6d00"/>
  <rect x="20" y="29" width="6" height="1" fill="#6b6d00"/>
  <rect x="4" y="30" width="8" height="1" fill="#6b6d00"/>
  <rect x="20" y="30" width="8" height="1" fill="#6b6d00"/>
  <rect x="4" y="31" width="8" height="1" fill="#6b6d00"/>
  <rect x="20" y="31" width="8" height="1" fill="#6b6d00"/>
</g>
</svg>
