<svg xmlns="http://www.w3.org/2000/svg" xmlns:xlink="http://www.w3.org/1999/xlink"
     viewBox="0 0 36 34" width="36" height="34"
     shape-rendering="crispEdges">
<g id="frame0" opacity="1">
  <rect x="14" y="0" width="6" height="1" fill="#f8b8f8"/>
  <rect x="20" y="0" width="2" height="1" fill="#f878f8"/>
  <rect x="14" y="1" width="6" height="1" fill="#f8b8f8"/>
  <rect x="20" y="1" width="2" height="1" fill="#f878f8"/>
  <rect x="12" y="2" width="2" height="1" fill="#f8b8f8"/>
  <rect x="14" y="2" width="4" height="1" fill="#d800cc"/>
  <rect x="18" y="2" width="4" height="1" fill="#f8b8f8"/>
  <rect x="22" y="2" width="2" height="1" fill="#f878f8"/>
  <rect x="24" y="2" width="2" height="1" fill="#d800cc"/>
  <rect x="26" y="2" width="2" height="1" fill="#f878f8"/>
  <rect x="12" y="3" width="2" height="1" fill="#f8b8f8"/>
  <rect x="14" y="3" width="4" height="1" fill="#d800cc"/>
  <rect x="18" y="3" width="4" height="1" fill="#f8b8f8"/>
  <rect x="22" y="3" width="2" height="1" fill="#f878f8"/>
  <rect x="24" y="3" width="2" height="1" fill="#d800cc"/>
  <rect x="26" y="3" width="2" height="1" fill="#f878f8"/>
  <rect x="12" y="4" width="2" height="1" fill="#f8b8f8"/>
  <rect x="14" y="4" width="4" height="1" fill="#d800cc"/>
  <rect x="18" y="4" width="4" height="1" fill="#f8b8f8"/>
  <rect x="22" y="4" width="2" height="1" fill="#f878f8"/>
  <rect x="24" y="4" width="2" height="1" fill="#d800cc"/>
  <rect x="26" y="4" width="4" height="1" fill="#f8b8f8"/>
  <rect x="12" y="5" width="2" height="1" fill="#f8b8f8"/>
  <rect x="14" y="5" width="4" height="1" fill="#d800cc"/>
  <rect x="18" y="5" width="4" height="1" fill="#f8b8f8"/>
  <rect x="22" y="5" width="2" height="1" fill="#f878f8"/>
  <rect x="24" y="5" width="2" height="1" fill="#d800cc"/>
  <rect x="26" y="5" width="4" height="1" fill="#f8b8f8"/>
  <rect x="14" y="6" width="6" height="1" fill="#f8b8f8"/>
  <rect x="20" y="6" width="2" height="1" fill="#f878f8"/>
  <rect x="22" y="6" width="4" height="1" fill="#d800cc"/>
  <rect x="26" y="6" width="2" height="1" fill="#f878f8"/>
  <rect x="28" y="6" width="4" height="1" fill="#f8b8f8"/>
  <rect x="14" y="7" width="6" height="1" fill="#f8b8f8"/>
  <rect x="20" y="7" width="2" height="1" fill="#f878f8"/>
  <rect x="22" y="7" width="4" height="1" fill="#d800cc"/>
  <rect x="26" y="7" width="2" height="1" fill="#f878f8"/>
  <rect x="28" y="7" width="4" height="1" fill="#f8b8f8"/>
  <rect x="16" y="8" width="2" height="1" fill="#f878f8"/>
  <rect x="18" y="8" width="6" height="1" fill="#f8b8f8"/>
  <rect x="24" y="8" width="2" height="1" fill="#d800cc"/>
  <rect x="26" y="8" width="4" height="1" fill="#f878f8"/>
  <rect x="30" y="8" width="2" height="1" fill="#f8b8f8"/>
  <rect x="16" y="9" width="2" height="1" fill="#f878f8"/>
  <rect x="18" y="9" width="6" height="1" fill="#f8b8f8"/>
  <rect x="24" y="9" width="2" height="1" fill="#d800cc"/>
  <rect x="26" y="9" width="4" height="1" fill="#f878f8"/>
  <rect x="30" y="9" width="2" height="1" fill="#f8b8f8"/>
  <rect x="4" y="10" width="6" height="1" fill="#f8b8f8"/>
  <rect x="14" y="10" width="4" height="1" fill="#f878f8"/>
  <rect x="18" y="10" width="2" height="1" fill="#f8b8f8"/>
  <rect x="20" y="10" width="2" height="1" fill="#d800cc"/>
  <rect x="22" y="10" width="4" height="1" fill="#f8b8f8"/>
  <rect x="26" y="10" width="2" height="1" fill="#d800cc"/>
  <rect x="28" y="10" width="2" height="1" fill="#f878f8"/>
  <rect x="30" y="10" width="2" height="1" fill="#f8b8f8"/>
  <rect x="4" y="11" width="6" height="1" fill="#f8b8f8"/>
  <rect x="14" y="11" width="4" height="1" fill="#f878f8"/>
  <rect x="18" y="11" width="2" height="1" fill="#f8b8f8"/>
  <rect x="20" y="11" width="2" height="1" fill="#d800cc"/>
  <rect x="22" y="11" width="4" height="1" fill="#f8b8f8"/>
  <rect x="26" y="11" width="2" height="1" fill="#d800cc"/>
  <rect x="28" y="11" width="2" height="1" fill="#f878f8"/>
  <rect x="30" y="11" width="2" height="1" fill="#f8b8f8"/>
  <rect x="4" y="12" width="4" height="1" fill="#f878f8"/>
  <rect x="8" y="12" width="6" height="1" fill="#f8b8f8"/>
  <rect x="14" y="12" width="2" height="1" fill="#f878f8"/>
  <rect x="16" y="12" width="4" height="1" fill="#f8b8f8"/>
  <rect x="20" y="12" width="2" height="1" fill="#d800cc"/>
  <rect x="22" y="12" width="4" height="1" fill="#f8b8f8"/>
  <rect x="26" y="12" width="2" height="1" fill="#d800cc"/>
  <rect x="28" y="12" width="4" height="1" fill="#f878f8"/>
  <rect x="4" y="13" width="4" height="1" fill="#f878f8"/>
  <rect x="8" y="13" width="6" height="1" fill="#f8b8f8"/>
  <rect x="14" y="13" width="2" height="1" fill="#f878f8"/>
  <rect x="16" y="13" width="4" height="1" fill="#f8b8f8"/>
  <rect x="20" y="13" width="2" height="1" fill="#d800cc"/>
  <rect x="22" y="13" width="4" height="1" fill="#f8b8f8"/>
  <rect x="26" y="13" width="2" height="1" fill="#d800cc"/>
  <rect x="28" y="13" width="4" height="1" fill="#f878f8"/>
  <rect x="8" y="14" width="4" height="1" fill="#f8b8f8"/>
  <rect x="12" y="14" width="4" height="1" fill="#f878f8"/>
  <rect x="16" y="14" width="6" height="1" fill="#f8b8f8"/>
  <rect x="22" y="14" width="2" height="1" fill="#d800cc"/>
  <rect x="24" y="14" width="4" height="1" fill="#f8b8f8"/>
  <rect x="28" y="14" width="2" height="1" fill="#d800cc"/>
  <rect x="8" y="15" width="4" height="1" fill="#f8b8f8"/>
  <rect x="12" y="15" width="4" height="1" fill="#f878f8"/>
  <rect x="16" y="15" width="6" height="1" fill="#f8b8f8"/>
  <rect x="22" y="15" width="2" height="1" fill="#d800cc"/>
  <rect x="24" y="15" width="4" height="1" fill="#f8b8f8"/>
  <rect x="28" y="15" width="2" height="1" fill="#d800cc"/>
  <rect x="8" y="16" width="4" height="1" fill="#f8b8f8"/>
  <rect x="12" y="16" width="4" height="1" fill="#f878f8"/>
  <rect x="16" y="16" width="6" height="1" fill="#f8b8f8"/>
  <rect x="22" y="16" width="2" height="1" fill="#d800cc"/>
  <rect x="24" y="16" width="2" height="1" fill="#f878f8"/>
  <rect x="26" y="16" width="2" height="1" fill="#f8b8f8"/>
  <rect x="8" y="17" width="4" height="1" fill="#f8b8f8"/>
  <rect x="12" y="17" width="4" height="1" fill="#f878f8"/>
  <rect x="16" y="17" width="6" height="1" fill="#f8b8f8"/>
  <rect x="22" y="17" width="2" height="1" fill="#d800cc"/>
  <rect x="24" y="17" width="2" height="1" fill="#f878f8"/>
  <rect x="26" y="17" width="2" height="1" fill="#f8b8f8"/>
  <rect x="12" y="18" width="6" height="1" fill="#f878f8"/>
  <rect x="18" y="18" width="2" height="1" fill="#f8b8f8"/>
  <rect x="20" y="18" width="2" height="1" fill="#d800cc"/>
  <rect x="22" y="18" width="4" height="1" fill="#f8b8f8"/>
  <rect x="26" y="18" width="2" height="1" fill="#f8b800"/>
  <rect x="28" y="18" width="2" height="1" fill="#ac7c00"/>
  <rect x="12" y="19" width="6" height="1" fill="#f878f8"/>
  <rect x="18" y="19" width="2" height="1" fill="#f8b8f8"/>
  <rect x="20" y="19" width="2" height="1" fill="#d800cc"/>
  <rect x="22" y="19" width="4" height="1" fill="#f8b8f8"/>
  <rect x="26" y="19" width="2" height="1" fill="#f8b800"/>
  <rect x="28" y="19" width="2" height="1" fill="#ac7c00"/>
  <rect x="10" y="20" width="4" height="1" fill="#f878f8"/>
  <rect x="14" y="20" width="2" height="1" fill="#d800cc"/>
  <rect x="16" y="20" width="2" height="1" fill="#f878f8"/>
  <rect x="18" y="20" width="2" height="1" fill="#f8b8f8"/>
  <rect x="20" y="20" width="2" height="1" fill="#d800cc"/>
  <rect x="22" y="20" width="2" height="1" fill="#f8b8f8"/>
  <rect x="24" y="20" width="4" height="1" fill="#f8d878"/>
  <rect x="28" y="20" width="2" height="1" fill="#f8b800"/>
  <rect x="30" y="20" width="2" height="1" fill="#ac7c00"/>
  <rect x="10" y="21" width="4" height="1" fill="#f878f8"/>
  <rect x="14" y="21" width="2" height="1" fill="#d800cc"/>
  <rect x="16" y="21" width="2" height="1" fill="#f878f8"/>
  <rect x="18" y="21" width="2" height="1" fill="#f8b8f8"/>
  <rect x="20" y="21" width="2" height="1" fill="#d800cc"/>
  <rect x="22" y="21" width="2" height="1" fill="#f8b8f8"/>
  <rect x="24" y="21" width="4" height="1" fill="#f8d878"/>
  <rect x="28" y="21" width="2" height="1" fill="#f8b800"/>
  <rect x="30" y="21" width="2" height="1" fill="#ac7c00"/>
  <rect x="8" y="22" width="6" height="1" fill="#f878f8"/>
  <rect x="16" y="22" width="6" height="1" fill="#f8b8f8"/>
  <rect x="22" y="22" width="2" height="1" fill="#f8b800"/>
  <rect x="24" y="22" width="6" height="1" fill="#f8d878"/>
  <rect x="30" y="22" width="2" height="1" fill="#ac7c00"/>
  <rect x="8" y="23" width="6" height="1" fill="#f878f8"/>
  <rect x="16" y="23" width="6" height="1" fill="#f8b8f8"/>
  <rect x="22" y="23" width="2" height="1" fill="#f8b800"/>
  <rect x="24" y="23" width="6" height="1" fill="#f8d878"/>
  <rect x="30" y="23" width="2" height="1" fill="#ac7c00"/>
  <rect x="4" y="24" width="8" height="1" fill="#f878f8"/>
  <rect x="16" y="24" width="6" height="1" fill="#f8b8f8"/>
  <rect x="22" y="24" width="2" height="1" fill="#ac7c00"/>
  <rect x="24" y="24" width="2" height="1" fill="#f8b800"/>
  <rect x="26" y="24" width="4" height="1" fill="#f8d878"/>
  <rect x="30" y="24" width="2" height="1" fill="#f8b800"/>
  <rect x="32" y="24" width="2" height="1" fill="#ac7c00"/>
  <rect x="4" y="25" width="8" height="1" fill="#f878f8"/>
  <rect x="16" y="25" width="6" height="1" fill="#f8b8f8"/>
  <rect x="22" y="25" width="2" height="1" fill="#ac7c00"/>
  <rect x="24" y="25" width="2" height="1" fill="#f8b800"/>
  <rect x="26" y="25" width="4" height="1" fill="#f8d878"/>
  <rect x="30" y="25" width="2" height="1" fill="#f8b800"/>
  <rect x="32" y="25" width="2" height="1" fill="#ac7c00"/>
  <rect x="6" y="26" width="6" height="1" fill="#f878f8"/>
  <rect x="16" y="26" width="6" height="1" fill="#f8b8f8"/>
  <rect x="24" y="26" width="4" height="1" fill="#ac7c00"/>
  <rect x="28" y="26" width="4" height="1" fill="#f8b800"/>
  <rect x="32" y="26" width="2" height="1" fill="#ac7c00"/>
  <rect x="6" y="27" width="6" height="1" fill="#f878f8"/>
  <rect x="16" y="27" width="6" height="1" fill="#f8b8f8"/>
  <rect x="24" y="27" width="4" height="1" fill="#ac7c00"/>
  <rect x="28" y="27" width="4" height="1" fill="#f8b800"/>
  <rect x="32" y="27" width="2" height="1" fill="#ac7c00"/>
  <rect x="12" y="28" width="10" height="1" fill="#f8b8f8"/>
  <rect x="28" y="28" width="6" height="1" fill="#ac7c00"/>
  <rect x="12" y="29" width="10" height="1" fill="#f8b8f8"/>
  <rect x="28" y="29" width="6" height="1" fill="#ac7c00"/>
  <rect x="14" y="30" width="8" height="1" fill="#f8b8f8"/>
  <rect x="14" y="31" width="8" height="1" fill="#f8b8f8"/>
</g>
<g id="frame1" opacity="0">
  <rect x="14" y="0" width="6" height="1" fill="#f8b8f8"/>
  <rect x="20" y="0" width="2" height="1" fill="#f878f8"/>
  <rect x="14" y="1" width="6" height="1" fill="#f8b8f8"/>
  <rect x="20" y="1" width="2" height="1" fill="#f878f8"/>
  <rect x="12" y="2" width="2" height="1" fill="#f8b8f8"/>
  <rect x="14" y="2" width="4" height="1" fill="#d800cc"/>
  <rect x="18" y="2" width="4" height="1" fill="#f8b8f8"/>
  <rect x="22" y="2" width="2" height="1" fill="#f878f8"/>
  <rect x="24" y="2" width="2" height="1" fill="#d800cc"/>
  <rect x="26" y="2" width="2" height="1" fill="#f878f8"/>
  <rect x="12" y="3" width="2" height="1" fill="#f8b8f8"/>
  <rect x="14" y="3" width="4" height="1" fill="#d800cc"/>
  <rect x="18" y="3" width="4" height="1" fill="#f8b8f8"/>
  <rect x="22" y="3" width="2" height="1" fill="#f878f8"/>
  <rect x="24" y="3" width="2" height="1" fill="#d800cc"/>
  <rect x="26" y="3" width="2" height="1" fill="#f878f8"/>
  <rect x="12" y="4" width="2" height="1" fill="#f8b8f8"/>
  <rect x="14" y="4" width="4" height="1" fill="#d800cc"/>
  <rect x="18" y="4" width="4" height="1" fill="#f8b8f8"/>
  <rect x="22" y="4" width="2" height="1" fill="#f878f8"/>
  <rect x="24" y="4" width="2" height="1" fill="#d800cc"/>
  <rect x="26" y="4" width="4" height="1" fill="#f8b8f8"/>
  <rect x="12" y="5" width="2" height="1" fill="#f8b8f8"/>
  <rect x="14" y="5" width="4" height="1" fill="#d800cc"/>
  <rect x="18" y="5" width="4" height="1" fill="#f8b8f8"/>
  <rect x="22" y="5" width="2" height="1" fill="#f878f8"/>
  <rect x="24" y="5" width="2" height="1" fill="#d800cc"/>
  <rect x="26" y="5" width="4" height="1" fill="#f8b8f8"/>
  <rect x="14" y="6" width="6" height="1" fill="#f8b8f8"/>
  <rect x="20" y="6" width="2" height="1" fill="#f878f8"/>
  <rect x="22" y="6" width="4" height="1" fill="#d800cc"/>
  <rect x="26" y="6" width="2" height="1" fill="#f878f8"/>
  <rect x="28" y="6" width="4" height="1" fill="#f8b8f8"/>
  <rect x="14" y="7" width="6" height="1" fill="#f8b8f8"/>
  <rect x="20" y="7" width="2" height="1" fill="#f878f8"/>
  <rect x="22" y="7" width="4" height="1" fill="#d800cc"/>
  <rect x="26" y="7" width="2" height="1" fill="#f878f8"/>
  <rect x="28" y="7" width="4" height="1" fill="#f8b8f8"/>
  <rect x="16" y="8" width="2" height="1" fill="#f878f8"/>
  <rect x="18" y="8" width="6" height="1" fill="#f8b8f8"/>
  <rect x="24" y="8" width="2" height="1" fill="#d800cc"/>
  <rect x="26" y="8" width="4" height="1" fill="#f878f8"/>
  <rect x="30" y="8" width="2" height="1" fill="#f8b8f8"/>
  <rect x="16" y="9" width="2" height="1" fill="#f878f8"/>
  <rect x="18" y="9" width="6" height="1" fill="#f8b8f8"/>
  <rect x="24" y="9" width="2" height="1" fill="#d800cc"/>
  <rect x="26" y="9" width="4" height="1" fill="#f878f8"/>
  <rect x="30" y="9" width="2" height="1" fill="#f8b8f8"/>
  <rect x="4" y="10" width="6" height="1" fill="#f8b8f8"/>
  <rect x="14" y="10" width="4" height="1" fill="#f878f8"/>
  <rect x="18" y="10" width="2" height="1" fill="#f8b8f8"/>
  <rect x="20" y="10" width="2" height="1" fill="#d800cc"/>
  <rect x="22" y="10" width="4" height="1" fill="#f8b8f8"/>
  <rect x="26" y="10" width="2" height="1" fill="#d800cc"/>
  <rect x="28" y="10" width="2" height="1" fill="#f878f8"/>
  <rect x="30" y="10" width="2" height="1" fill="#f8b8f8"/>
  <rect x="4" y="11" width="6" height="1" fill="#f8b8f8"/>
  <rect x="14" y="11" width="4" height="1" fill="#f878f8"/>
  <rect x="18" y="11" width="2" height="1" fill="#f8b8f8"/>
  <rect x="20" y="11" width="2" height="1" fill="#d800cc"/>
  <rect x="22" y="11" width="4" height="1" fill="#f8b8f8"/>
  <rect x="26" y="11" width="2" height="1" fill="#d800cc"/>
  <rect x="28" y="11" width="2" height="1" fill="#f878f8"/>
  <rect x="30" y="11" width="2" height="1" fill="#f8b8f8"/>
  <rect x="4" y="12" width="4" height="1" fill="#f878f8"/>
  <rect x="8" y="12" width="6" height="1" fill="#f8b8f8"/>
  <rect x="14" y="12" width="2" height="1" fill="#f878f8"/>
  <rect x="16" y="12" width="4" height="1" fill="#f8b8f8"/>
  <rect x="20" y="12" width="2" height="1" fill="#d800cc"/>
  <rect x="22" y="12" width="4" height="1" fill="#f8b8f8"/>
  <rect x="26" y="12" width="2" height="1" fill="#d800cc"/>
  <rect x="28" y="12" width="4" height="1" fill="#f878f8"/>
  <rect x="4" y="13" width="4" height="1" fill="#f878f8"/>
  <rect x="8" y="13" width="6" height="1" fill="#f8b8f8"/>
  <rect x="14" y="13" width="2" height="1" fill="#f878f8"/>
  <rect x="16" y="13" width="4" height="1" fill="#f8b8f8"/>
  <rect x="20" y="13" width="2" height="1" fill="#d800cc"/>
  <rect x="22" y="13" width="4" height="1" fill="#f8b8f8"/>
  <rect x="26" y="13" width="2" height="1" fill="#d800cc"/>
  <rect x="28" y="13" width="4" height="1" fill="#f878f8"/>
  <rect x="8" y="14" width="4" height="1" fill="#f8b8f8"/>
  <rect x="12" y="14" width="4" height="1" fill="#f878f8"/>
  <rect x="16" y="14" width="6" height="1" fill="#f8b8f8"/>
  <rect x="22" y="14" width="2" height="1" fill="#d800cc"/>
  <rect x="24" y="14" width="4" height="1" fill="#f8b8f8"/>
  <rect x="28" y="14" width="2" height="1" fill="#d800cc"/>
  <rect x="8" y="15" width="4" height="1" fill="#f8b8f8"/>
  <rect x="12" y="15" width="4" height="1" fill="#f878f8"/>
  <rect x="16" y="15" width="6" height="1" fill="#f8b8f8"/>
  <rect x="22" y="15" width="2" height="1" fill="#d800cc"/>
  <rect x="24" y="15" width="4" height="1" fill="#f8b8f8"/>
  <rect x="28" y="15" width="2" height="1" fill="#d800cc"/>
  <rect x="8" y="16" width="4" height="1" fill="#f8b8f8"/>
  <rect x="12" y="16" width="4" height="1" fill="#f878f8"/>
  <rect x="16" y="16" width="6" height="1" fill="#f8b8f8"/>
  <rect x="22" y="16" width="2" height="1" fill="#d800cc"/>
  <rect x="24" y="16" width="2" height="1" fill="#f878f8"/>
  <rect x="26" y="16" width="2" height="1" fill="#f8b8f8"/>
  <rect x="8" y="17" width="4" height="1" fill="#f8b8f8"/>
  <rect x="12" y="17" width="4" height="1" fill="#f878f8"/>
  <rect x="16" y="17" width="6" height="1" fill="#f8b8f8"/>
  <rect x="22" y="17" width="2" height="1" fill="#d800cc"/>
  <rect x="24" y="17" width="2" height="1" fill="#f878f8"/>
  <rect x="26" y="17" width="2" height="1" fill="#f8b8f8"/>
  <rect x="12" y="18" width="6" height="1" fill="#f878f8"/>
  <rect x="18" y="18" width="2" height="1" fill="#f8b8f8"/>
  <rect x="20" y="18" width="2" height="1" fill="#d800cc"/>
  <rect x="22" y="18" width="4" height="1" fill="#f8b8f8"/>
  <rect x="26" y="18" width="2" height="1" fill="#ac7c00"/>
  <rect x="12" y="19" width="6" height="1" fill="#f878f8"/>
  <rect x="18" y="19" width="2" height="1" fill="#f8b8f8"/>
  <rect x="20" y="19" width="2" height="1" fill="#d800cc"/>
  <rect x="22" y="19" width="4" height="1" fill="#f8b8f8"/>
  <rect x="26" y="19" width="2" height="1" fill="#ac7c00"/>
  <rect x="10" y="20" width="4" height="1" fill="#f878f8"/>
  <rect x="14" y="20" width="2" height="1" fill="#d800cc"/>
  <rect x="16" y="20" width="2" height="1" fill="#f878f8"/>
  <rect x="18" y="20" width="2" height="1" fill="#f8b8f8"/>
  <rect x="20" y="20" width="2" height="1" fill="#d800cc"/>
  <rect x="22" y="20" width="2" height="1" fill="#f8b8f8"/>
  <rect x="24" y="20" width="2" height="1" fill="#f8d878"/>
  <rect x="26" y="20" width="2" height="1" fill="#f8b800"/>
  <rect x="28" y="20" width="2" height="1" fill="#ac7c00"/>
  <rect x="10" y="21" width="4" height="1" fill="#f878f8"/>
  <rect x="14" y="21" width="2" height="1" fill="#d800cc"/>
  <rect x="16" y="21" width="2" height="1" fill="#f878f8"/>
  <rect x="18" y="21" width="2" height="1" fill="#f8b8f8"/>
  <rect x="20" y="21" width="2" height="1" fill="#d800cc"/>
  <rect x="22" y="21" width="2" height="1" fill="#f8b8f8"/>
  <rect x="24" y="21" width="2" height="1" fill="#f8d878"/>
  <rect x="26" y="21" width="2" height="1" fill="#f8b800"/>
  <rect x="28" y="21" width="2" height="1" fill="#ac7c00"/>
  <rect x="8" y="22" width="6" height="1" fill="#f878f8"/>
  <rect x="16" y="22" width="6" height="1" fill="#f8b8f8"/>
  <rect x="22" y="22" width="2" height="1" fill="#ac7c00"/>
  <rect x="24" y="22" width="2" height="1" fill="#f8b800"/>
  <rect x="26" y="22" width="2" height="1" fill="#f8d878"/>
  <rect x="28" y="22" width="2" height="1" fill="#f8b800"/>
  <rect x="30" y="22" width="2" height="1" fill="#ac7c00"/>
  <rect x="8" y="23" width="6" height="1" fill="#f878f8"/>
  <rect x="16" y="23" width="6" height="1" fill="#f8b8f8"/>
  <rect x="22" y="23" width="2" height="1" fill="#ac7c00"/>
  <rect x="24" y="23" width="2" height="1" fill="#f8b800"/>
  <rect x="26" y="23" width="2" height="1" fill="#f8d878"/>
  <rect x="28" y="23" width="2" height="1" fill="#f8b800"/>
  <rect x="30" y="23" width="2" height="1" fill="#ac7c00"/>
  <rect x="4" y="24" width="8" height="1" fill="#f878f8"/>
  <rect x="16" y="24" width="6" height="1" fill="#f8b8f8"/>
  <rect x="24" y="24" width="2" height="1" fill="#ac7c00"/>
  <rect x="26" y="24" width="4" height="1" fill="#f8b800"/>
  <rect x="30" y="24" width="2" height="1" fill="#ac7c00"/>
  <rect x="4" y="25" width="8" height="1" fill="#f878f8"/>
  <rect x="16" y="25" width="6" height="1" fill="#f8b8f8"/>
  <rect x="24" y="25" width="2" height="1" fill="#ac7c00"/>
  <rect x="26" y="25" width="4" height="1" fill="#f8b800"/>
  <rect x="30" y="25" width="2" height="1" fill="#ac7c00"/>
  <rect x="6" y="26" width="6" height="1" fill="#f878f8"/>
  <rect x="16" y="26" width="6" height="1" fill="#f8b8f8"/>
  <rect x="26" y="26" width="6" height="1" fill="#ac7c00"/>
  <rect x="6" y="27" width="6" height="1" fill="#f878f8"/>
  <rect x="16" y="27" width="6" height="1" fill="#f8b8f8"/>
  <rect x="26" y="27" width="6" height="1" fill="#ac7c00"/>
  <rect x="12" y="28" width="10" height="1" fill="#f8b8f8"/>
  <rect x="12" y="29" width="10" height="1" fill="#f8b8f8"/>
  <rect x="14" y="30" width="8" height="1" fill="#f8b8f8"/>
  <rect x="14" y="31" width="8" height="1" fill="#f8b8f8"/>
</g>
  <animate xlink:href="#frame0" attributeName="opacity" values="1;0;1" keyTimes="0.0;0.5;1.0" dur="0.1s" calcMode="discrete" repeatCount="indefinite"/>
  <animate xlink:href="#frame1" attributeName="opacity" values="0;1;0" keyTimes="0.0;0.5;1.0" dur="0.1s" calcMode="discrete" repeatCount="indefinite"/>
</svg>
