<svg xmlns="http://www.w3.org/2000/svg" xmlns:xlink="http://www.w3.org/1999/xlink"
     viewBox="0 0 32 64" width="32" height="64"
     shape-rendering="crispEdges">
<g id="frame0" opacity="1">
  <rect x="0" y="0" width="32" height="1" fill="#881400"/>
  <rect x="0" y="1" width="32" height="1" fill="#881400"/>
  <rect x="0" y="2" width="32" height="1" fill="#e45c10"/>
  <rect x="0" y="3" width="32" height="1" fill="#e45c10"/>
  <rect x="0" y="4" width="32" height="1" fill="#d8f878"/>
  <rect x="0" y="5" width="32" height="1" fill="#d8f878"/>
  <rect x="0" y="6" width="32" height="1" fill="#e45c10"/>
  <rect x="0" y="7" width="32" height="1" fill="#e45c10"/>
  <rect x="0" y="8" width="32" height="1" fill="#000000"/>
  <rect x="0" y="9" width="32" height="1" fill="#000000"/>
  <rect x="0" y="10" width="4" height="1" fill="#000000"/>
  <rect x="4" y="10" width="2" height="1" fill="#e45c10"/>
  <rect x="6" y="10" width="4" height="1" fill="#000000"/>
  <rect x="10" y="10" width="6" height="1" fill="#e45c10"/>
  <rect x="16" y="10" width="2" height="1" fill="#000000"/>
  <rect x="18" y="10" width="4" height="1" fill="#e45c10"/>
  <rect x="22" y="10" width="10" height="1" fill="#881400"/>
  <rect x="0" y="11" width="4" height="1" fill="#000000"/>
  <rect x="4" y="11" width="2" height="1" fill="#e45c10"/>
  <rect x="6" y="11" width="4" height="1" fill="#000000"/>
  <rect x="10" y="11" width="6" height="1" fill="#e45c10"/>
  <rect x="16" y="11" width="2" height="1" fill="#000000"/>
  <rect x="18" y="11" width="4" height="1" fill="#e45c10"/>
  <rect x="22" y="11" width="10" height="1" fill="#881400"/>
  <rect x="0" y="12" width="2" height="1" fill="#000000"/>
  <rect x="2" y="12" width="2" height="1" fill="#e45c10"/>
  <rect x="4" y="12" width="2" height="1" fill="#d8f878"/>
  <rect x="6" y="12" width="2" height="1" fill="#e45c10"/>
  <rect x="8" y="12" width="2" height="1" fill="#000000"/>
  <rect x="10" y="12" width="6" height="1" fill="#d8f878"/>
  <rect x="16" y="12" width="2" height="1" fill="#000000"/>
  <rect x="18" y="12" width="6" height="1" fill="#d8f878"/>
  <rect x="24" y="12" width="2" height="1" fill="#e45c10"/>
  <rect x="26" y="12" width="4" height="1" fill="#d8f878"/>
  <rect x="30" y="12" width="2" height="1" fill="#881400"/>
  <rect x="0" y="13" width="2" height="1" fill="#000000"/>
  <rect x="2" y="13" width="2" height="1" fill="#e45c10"/>
  <rect x="4" y="13" width="2" height="1" fill="#d8f878"/>
  <rect x="6" y="13" width="2" height="1" fill="#e45c10"/>
  <rect x="8" y="13" width="2" height="1" fill="#000000"/>
  <rect x="10" y="13" width="6" height="1" fill="#d8f878"/>
  <rect x="16" y="13" width="2" height="1" fill="#000000"/>
  <rect x="18" y="13" width="6" height="1" fill="#d8f878"/>
  <rect x="24" y="13" width="2" height="1" fill="#e45c10"/>
  <rect x="26" y="13" width="4" height="1" fill="#d8f878"/>
  <rect x="30" y="13" width="2" height="1" fill="#881400"/>
  <rect x="0" y="14" width="2" height="1" fill="#000000"/>
  <rect x="2" y="14" width="2" height="1" fill="#e45c10"/>
  <rect x="4" y="14" width="2" height="1" fill="#881400"/>
  <rect x="6" y="14" width="2" height="1" fill="#e45c10"/>
  <rect x="8" y="14" width="2" height="1" fill="#000000"/>
  <rect x="10" y="14" width="2" height="1" fill="#e45c10"/>
  <rect x="12" y="14" width="2" height="1" fill="#881400"/>
  <rect x="14" y="14" width="2" height="1" fill="#e45c10"/>
  <rect x="16" y="14" width="2" height="1" fill="#000000"/>
  <rect x="18" y="14" width="2" height="1" fill="#e45c10"/>
  <rect x="20" y="14" width="2" height="1" fill="#881400"/>
  <rect x="22" y="14" width="2" height="1" fill="#e45c10"/>
  <rect x="24" y="14" width="2" height="1" fill="#881400"/>
  <rect x="26" y="14" width="2" height="1" fill="#e45c10"/>
  <rect x="28" y="14" width="2" height="1" fill="#d8f878"/>
  <rect x="30" y="14" width="2" height="1" fill="#881400"/>
  <rect x="0" y="15" width="2" height="1" fill="#000000"/>
  <rect x="2" y="15" width="2" height="1" fill="#e45c10"/>
  <rect x="4" y="15" width="2" height="1" fill="#881400"/>
  <rect x="6" y="15" width="2" height="1" fill="#e45c10"/>
  <rect x="8" y="15" width="2" height="1" fill="#000000"/>
  <rect x="10" y="15" width="2" height="1" fill="#e45c10"/>
  <rect x="12" y="15" width="2" height="1" fill="#881400"/>
  <rect x="14" y="15" width="2" height="1" fill="#e45c10"/>
  <rect x="16" y="15" width="2" height="1" fill="#000000"/>
  <rect x="18" y="15" width="2" height="1" fill="#e45c10"/>
  <rect x="20" y="15" width="2" height="1" fill="#881400"/>
  <rect x="22" y="15" width="2" height="1" fill="#e45c10"/>
  <rect x="24" y="15" width="2" height="1" fill="#881400"/>
  <rect x="26" y="15" width="2" height="1" fill="#e45c10"/>
  <rect x="28" y="15" width="2" height="1" fill="#d8f878"/>
  <rect x="30" y="15" width="2" height="1" fill="#881400"/>
  <rect x="0" y="16" width="4" height="1" fill="#000000"/>
  <rect x="4" y="16" width="2" height="1" fill="#881400"/>
  <rect x="6" y="16" width="4" height="1" fill="#000000"/>
  <rect x="10" y="16" width="6" height="1" fill="#881400"/>
  <rect x="16" y="16" width="2" height="1" fill="#000000"/>
  <rect x="18" y="16" width="14" height="1" fill="#881400"/>
  <rect x="0" y="17" width="4" height="1" fill="#000000"/>
  <rect x="4" y="17" width="2" height="1" fill="#881400"/>
  <rect x="6" y="17" width="4" height="1" fill="#000000"/>
  <rect x="10" y="17" width="6" height="1" fill="#881400"/>
  <rect x="16" y="17" width="2" height="1" fill="#000000"/>
  <rect x="18" y="17" width="14" height="1" fill="#881400"/>
  <rect x="0" y="18" width="32" height="1" fill="#000000"/>
  <rect x="0" y="19" width="32" height="1" fill="#000000"/>
  <rect x="0" y="20" width="2" height="1" fill="#e45c10"/>
  <rect x="2" y="20" width="2" height="1" fill="#881400"/>
  <rect x="4" y="20" width="2" height="1" fill="#000000"/>
  <rect x="6" y="20" width="2" height="1" fill="#881400"/>
  <rect x="8" y="20" width="4" height="1" fill="#e45c10"/>
  <rect x="12" y="20" width="2" height="1" fill="#000000"/>
  <rect x="14" y="20" width="2" height="1" fill="#881400"/>
  <rect x="16" y="20" width="4" height="1" fill="#e45c10"/>
  <rect x="20" y="20" width="2" height="1" fill="#000000"/>
  <rect x="22" y="20" width="2" height="1" fill="#881400"/>
  <rect x="24" y="20" width="2" height="1" fill="#e45c10"/>
  <rect x="26" y="20" width="2" height="1" fill="#881400"/>
  <rect x="28" y="20" width="2" height="1" fill="#000000"/>
  <rect x="30" y="20" width="2" height="1" fill="#e45c10"/>
  <rect x="0" y="21" width="2" height="1" fill="#e45c10"/>
  <rect x="2" y="21" width="2" height="1" fill="#881400"/>
  <rect x="4" y="21" width="2" height="1" fill="#000000"/>
  <rect x="6" y="21" width="2" height="1" fill="#881400"/>
  <rect x="8" y="21" width="4" height="1" fill="#e45c10"/>
  <rect x="12" y="21" width="2" height="1" fill="#000000"/>
  <rect x="14" y="21" width="2" height="1" fill="#881400"/>
  <rect x="16" y="21" width="4" height="1" fill="#e45c10"/>
  <rect x="20" y="21" width="2" height="1" fill="#000000"/>
  <rect x="22" y="21" width="2" height="1" fill="#881400"/>
  <rect x="24" y="21" width="2" height="1" fill="#e45c10"/>
  <rect x="26" y="21" width="2" height="1" fill="#881400"/>
  <rect x="28" y="21" width="2" height="1" fill="#000000"/>
  <rect x="30" y="21" width="2" height="1" fill="#e45c10"/>
  <rect x="0" y="22" width="2" height="1" fill="#000000"/>
  <rect x="2" y="22" width="2" height="1" fill="#881400"/>
  <rect x="4" y="22" width="2" height="1" fill="#000000"/>
  <rect x="6" y="22" width="6" height="1" fill="#881400"/>
  <rect x="12" y="22" width="2" height="1" fill="#000000"/>
  <rect x="14" y="22" width="2" height="1" fill="#881400"/>
  <rect x="16" y="22" width="2" height="1" fill="#000000"/>
  <rect x="18" y="22" width="2" height="1" fill="#881400"/>
  <rect x="20" y="22" width="2" height="1" fill="#000000"/>
  <rect x="22" y="22" width="6" height="1" fill="#881400"/>
  <rect x="28" y="22" width="2" height="1" fill="#000000"/>
  <rect x="30" y="22" width="2" height="1" fill="#881400"/>
  <rect x="0" y="23" width="2" height="1" fill="#000000"/>
  <rect x="2" y="23" width="2" height="1" fill="#881400"/>
  <rect x="4" y="23" width="2" height="1" fill="#000000"/>
  <rect x="6" y="23" width="6" height="1" fill="#881400"/>
  <rect x="12" y="23" width="2" height="1" fill="#000000"/>
  <rect x="14" y="23" width="2" height="1" fill="#881400"/>
  <rect x="16" y="23" width="2" height="1" fill="#000000"/>
  <rect x="18" y="23" width="2" height="1" fill="#881400"/>
  <rect x="20" y="23" width="2" height="1" fill="#000000"/>
  <rect x="22" y="23" width="6" height="1" fill="#881400"/>
  <rect x="28" y="23" width="2" height="1" fill="#000000"/>
  <rect x="30" y="23" width="2" height="1" fill="#881400"/>
  <rect x="0" y="24" width="32" height="1" fill="#000000"/>
  <rect x="0" y="25" width="32" height="1" fill="#000000"/>
  <rect x="0" y="26" width="2" height="1" fill="#000000"/>
  <rect x="2" y="26" width="2" height="1" fill="#881400"/>
  <rect x="4" y="26" width="2" height="1" fill="#000000"/>
  <rect x="6" y="26" width="2" height="1" fill="#881400"/>
  <rect x="8" y="26" width="4" height="1" fill="#000000"/>
  <rect x="12" y="26" width="4" height="1" fill="#881400"/>
  <rect x="16" y="26" width="4" height="1" fill="#000000"/>
  <rect x="20" y="26" width="6" height="1" fill="#881400"/>
  <rect x="26" y="26" width="2" height="1" fill="#000000"/>
  <rect x="28" y="26" width="4" height="1" fill="#881400"/>
  <rect x="0" y="27" width="2" height="1" fill="#000000"/>
  <rect x="2" y="27" width="2" height="1" fill="#881400"/>
  <rect x="4" y="27" width="2" height="1" fill="#000000"/>
  <rect x="6" y="27" width="2" height="1" fill="#881400"/>
  <rect x="8" y="27" width="4" height="1" fill="#000000"/>
  <rect x="12" y="27" width="4" height="1" fill="#881400"/>
  <rect x="16" y="27" width="4" height="1" fill="#000000"/>
  <rect x="20" y="27" width="6" height="1" fill="#881400"/>
  <rect x="26" y="27" width="2" height="1" fill="#000000"/>
  <rect x="28" y="27" width="4" height="1" fill="#881400"/>
  <rect x="0" y="28" width="32" height="1" fill="#000000"/>
  <rect x="0" y="29" width="32" height="1" fill="#000000"/>
  <rect x="0" y="30" width="32" height="1" fill="#000000"/>
  <rect x="0" y="31" width="32" height="1" fill="#000000"/>
  <rect x="0" y="32" width="32" height="1" fill="#000000"/>
  <rect x="0" y="33" width="32" height="1" fill="#000000"/>
  <rect x="0" y="34" width="32" height="1" fill="#000000"/>
  <rect x="0" y="35" width="32" height="1" fill="#000000"/>
  <rect x="0" y="36" width="32" height="1" fill="#000000"/>
  <rect x="0" y="37" width="32" height="1" fill="#000000"/>
  <rect x="0" y="38" width="32" height="1" fill="#000000"/>
  <rect x="0" y="39" width="32" height="1" fill="#000000"/>
  <rect x="0" y="40" width="32" height="1" fill="#000000"/>
  <rect x="0" y="41" width="32" height="1" fill="#000000"/>
  <rect x="0" y="42" width="32" height="1" fill="#000000"/>
  <rect x="0" y="43" width="32" height="1" fill="#000000"/>
  <rect x="0" y="44" width="32" height="1" fill="#000000"/>
  <rect x="0" y="45" width="32" height="1" fill="#000000"/>
  <rect x="0" y="46" width="32" height="1" fill="#000000"/>
  <rect x="0" y="47" width="32" height="1" fill="#000000"/>
  <rect x="0" y="48" width="32" height="1" fill="#000000"/>
  <rect x="0" y="49" width="32" height="1" fill="#000000"/>
  <rect x="0" y="50" width="32" height="1" fill="#000000"/>
  <rect x="0" y="51" width="32" height="1" fill="#000000"/>
  <rect x="0" y="52" width="32" height="1" fill="#000000"/>
  <rect x="0" y="53" width="32" height="1" fill="#000000"/>
  <rect x="0" y="54" width="32" height="1" fill="#000000"/>
  <rect x="0" y="55" width="32" height="1" fill="#000000"/>
  <rect x="0" y="56" width="32" height="1" fill="#000000"/>
  <rect x="0" y="57" width="32" height="1" fill="#000000"/>
  <rect x="0" y="58" width="32" height="1" fill="#000000"/>
  <rect x="0" y="59" width="32" height="1" fill="#000000"/>
  <rect x="0" y="60" width="32" height="1" fill="#000000"/>
  <rect x="0" y="61" width="32" height="1" fill="#000000"/>
  <rect x="0" y="62" width="32" height="1" fill="#000000"/>
  <rect x="0" y="63" width="32" height="1" fill="#000000"/>
</g>
</svg>
